ISO-10303-21;
HEADER;
/* Generated by software containing ST-Developer
 * from STEP Tools, Inc. (www.steptools.com) 
 */
/* OPTION: using custom renumber hook */

FILE_DESCRIPTION(
/* description */ ('STEP AP242 Edition 2',
'CAx-IF Rec.Pracs.---Representation and Presentation of Product Manufa
cturing Information (PMI)---4.0---2014-10-13',
'CAx-IF Rec.Pracs.---3D Tessellated Geometry---0.4---2014-09-14','2;1',
'CAx-IF Rec.Pracs.---User Defined Attributes---1.5---2016-08-15'),
/* implementation_level */ '2;1');

FILE_NAME(
/* name */ 'BIG BUTTON',
/* time_stamp */ '2026-09-27T01:49:19Z',
/* author */ (''),
/* organization */ (''),
/* preprocessor_version */ 'ST-DEVELOPER v20',
/* originating_system */ 'ONSHAPE BY PTC INC, 1.221',
/* authorisation */ '  ');

FILE_SCHEMA (('AP242_MANAGED_MODEL_BASED_3D_ENGINEERING_MIM_LF { 1 0 10303 442 3 1 4 }'));
ENDSEC;

DATA;
#10=SHAPE_REPRESENTATION_RELATIONSHIP('','',#545,#11);
#11=ADVANCED_BREP_SHAPE_REPRESENTATION('',(#543),#861);
#12=CYLINDRICAL_SURFACE('',#561,0.0028);
#13=CIRCLE('',#548,0.0028);
#14=CIRCLE('',#562,0.0028);
#15=ORIENTED_EDGE('',*,*,#155,.T.);
#16=ORIENTED_EDGE('',*,*,#156,.T.);
#17=ORIENTED_EDGE('',*,*,#157,.F.);
#18=ORIENTED_EDGE('',*,*,#158,.F.);
#19=ORIENTED_EDGE('',*,*,#159,.F.);
#20=ORIENTED_EDGE('',*,*,#160,.F.);
#21=ORIENTED_EDGE('',*,*,#161,.F.);
#22=ORIENTED_EDGE('',*,*,#162,.T.);
#23=ORIENTED_EDGE('',*,*,#163,.T.);
#24=ORIENTED_EDGE('',*,*,#164,.F.);
#25=ORIENTED_EDGE('',*,*,#165,.F.);
#26=ORIENTED_EDGE('',*,*,#166,.T.);
#27=ORIENTED_EDGE('',*,*,#161,.T.);
#28=ORIENTED_EDGE('',*,*,#167,.F.);
#29=ORIENTED_EDGE('',*,*,#168,.F.);
#30=ORIENTED_EDGE('',*,*,#169,.T.);
#31=ORIENTED_EDGE('',*,*,#165,.T.);
#32=ORIENTED_EDGE('',*,*,#170,.F.);
#33=ORIENTED_EDGE('',*,*,#171,.F.);
#34=ORIENTED_EDGE('',*,*,#172,.T.);
#35=ORIENTED_EDGE('',*,*,#168,.T.);
#36=ORIENTED_EDGE('',*,*,#173,.F.);
#37=ORIENTED_EDGE('',*,*,#174,.F.);
#38=ORIENTED_EDGE('',*,*,#175,.T.);
#39=ORIENTED_EDGE('',*,*,#171,.T.);
#40=ORIENTED_EDGE('',*,*,#176,.F.);
#41=ORIENTED_EDGE('',*,*,#177,.F.);
#42=ORIENTED_EDGE('',*,*,#178,.T.);
#43=ORIENTED_EDGE('',*,*,#174,.T.);
#44=ORIENTED_EDGE('',*,*,#179,.F.);
#45=ORIENTED_EDGE('',*,*,#180,.F.);
#46=ORIENTED_EDGE('',*,*,#181,.T.);
#47=ORIENTED_EDGE('',*,*,#177,.T.);
#48=ORIENTED_EDGE('',*,*,#182,.F.);
#49=ORIENTED_EDGE('',*,*,#183,.F.);
#50=ORIENTED_EDGE('',*,*,#184,.T.);
#51=ORIENTED_EDGE('',*,*,#180,.T.);
#52=ORIENTED_EDGE('',*,*,#185,.F.);
#53=ORIENTED_EDGE('',*,*,#186,.F.);
#54=ORIENTED_EDGE('',*,*,#187,.T.);
#55=ORIENTED_EDGE('',*,*,#183,.T.);
#56=ORIENTED_EDGE('',*,*,#188,.F.);
#57=ORIENTED_EDGE('',*,*,#189,.F.);
#58=ORIENTED_EDGE('',*,*,#190,.T.);
#59=ORIENTED_EDGE('',*,*,#186,.T.);
#60=ORIENTED_EDGE('',*,*,#191,.F.);
#61=ORIENTED_EDGE('',*,*,#192,.F.);
#62=ORIENTED_EDGE('',*,*,#193,.T.);
#63=ORIENTED_EDGE('',*,*,#189,.T.);
#64=ORIENTED_EDGE('',*,*,#194,.F.);
#65=ORIENTED_EDGE('',*,*,#163,.F.);
#66=ORIENTED_EDGE('',*,*,#195,.T.);
#67=ORIENTED_EDGE('',*,*,#192,.T.);
#68=ORIENTED_EDGE('',*,*,#196,.F.);
#69=ORIENTED_EDGE('',*,*,#159,.T.);
#70=ORIENTED_EDGE('',*,*,#162,.F.);
#71=ORIENTED_EDGE('',*,*,#166,.F.);
#72=ORIENTED_EDGE('',*,*,#169,.F.);
#73=ORIENTED_EDGE('',*,*,#172,.F.);
#74=ORIENTED_EDGE('',*,*,#175,.F.);
#75=ORIENTED_EDGE('',*,*,#178,.F.);
#76=ORIENTED_EDGE('',*,*,#181,.F.);
#77=ORIENTED_EDGE('',*,*,#184,.F.);
#78=ORIENTED_EDGE('',*,*,#187,.F.);
#79=ORIENTED_EDGE('',*,*,#190,.F.);
#80=ORIENTED_EDGE('',*,*,#193,.F.);
#81=ORIENTED_EDGE('',*,*,#195,.F.);
#82=ORIENTED_EDGE('',*,*,#196,.T.);
#83=ORIENTED_EDGE('',*,*,#164,.T.);
#84=ORIENTED_EDGE('',*,*,#160,.T.);
#85=ORIENTED_EDGE('',*,*,#194,.T.);
#86=ORIENTED_EDGE('',*,*,#191,.T.);
#87=ORIENTED_EDGE('',*,*,#188,.T.);
#88=ORIENTED_EDGE('',*,*,#185,.T.);
#89=ORIENTED_EDGE('',*,*,#182,.T.);
#90=ORIENTED_EDGE('',*,*,#179,.T.);
#91=ORIENTED_EDGE('',*,*,#176,.T.);
#92=ORIENTED_EDGE('',*,*,#173,.T.);
#93=ORIENTED_EDGE('',*,*,#170,.T.);
#94=ORIENTED_EDGE('',*,*,#167,.T.);
#95=ORIENTED_EDGE('',*,*,#155,.F.);
#96=ORIENTED_EDGE('',*,*,#197,.F.);
#97=ORIENTED_EDGE('',*,*,#198,.T.);
#98=ORIENTED_EDGE('',*,*,#199,.T.);
#99=ORIENTED_EDGE('',*,*,#158,.T.);
#100=ORIENTED_EDGE('',*,*,#200,.F.);
#101=ORIENTED_EDGE('',*,*,#201,.F.);
#102=ORIENTED_EDGE('',*,*,#197,.T.);
#103=ORIENTED_EDGE('',*,*,#157,.T.);
#104=ORIENTED_EDGE('',*,*,#202,.F.);
#105=ORIENTED_EDGE('',*,*,#203,.F.);
#106=ORIENTED_EDGE('',*,*,#200,.T.);
#107=ORIENTED_EDGE('',*,*,#156,.F.);
#108=ORIENTED_EDGE('',*,*,#199,.F.);
#109=ORIENTED_EDGE('',*,*,#204,.T.);
#110=ORIENTED_EDGE('',*,*,#202,.T.);
#111=ORIENTED_EDGE('',*,*,#198,.F.);
#112=ORIENTED_EDGE('',*,*,#201,.T.);
#113=ORIENTED_EDGE('',*,*,#203,.T.);
#114=ORIENTED_EDGE('',*,*,#204,.F.);
#115=ORIENTED_EDGE('',*,*,#205,.F.);
#116=ORIENTED_EDGE('',*,*,#206,.T.);
#117=ORIENTED_EDGE('',*,*,#207,.T.);
#118=ORIENTED_EDGE('',*,*,#208,.F.);
#119=ORIENTED_EDGE('',*,*,#209,.T.);
#120=ORIENTED_EDGE('',*,*,#210,.T.);
#121=ORIENTED_EDGE('',*,*,#211,.T.);
#122=ORIENTED_EDGE('',*,*,#212,.T.);
#123=ORIENTED_EDGE('',*,*,#213,.F.);
#124=ORIENTED_EDGE('',*,*,#214,.T.);
#125=ORIENTED_EDGE('',*,*,#215,.T.);
#126=ORIENTED_EDGE('',*,*,#208,.T.);
#127=ORIENTED_EDGE('',*,*,#216,.F.);
#128=ORIENTED_EDGE('',*,*,#217,.T.);
#129=ORIENTED_EDGE('',*,*,#213,.T.);
#130=ORIENTED_EDGE('',*,*,#207,.F.);
#131=ORIENTED_EDGE('',*,*,#218,.F.);
#132=ORIENTED_EDGE('',*,*,#219,.T.);
#133=ORIENTED_EDGE('',*,*,#216,.T.);
#134=ORIENTED_EDGE('',*,*,#206,.F.);
#135=ORIENTED_EDGE('',*,*,#215,.F.);
#136=ORIENTED_EDGE('',*,*,#220,.T.);
#137=ORIENTED_EDGE('',*,*,#218,.T.);
#138=ORIENTED_EDGE('',*,*,#205,.T.);
#139=ORIENTED_EDGE('',*,*,#221,.F.);
#140=ORIENTED_EDGE('',*,*,#212,.F.);
#141=ORIENTED_EDGE('',*,*,#222,.F.);
#142=ORIENTED_EDGE('',*,*,#220,.F.);
#143=ORIENTED_EDGE('',*,*,#222,.T.);
#144=ORIENTED_EDGE('',*,*,#211,.F.);
#145=ORIENTED_EDGE('',*,*,#223,.F.);
#146=ORIENTED_EDGE('',*,*,#219,.F.);
#147=ORIENTED_EDGE('',*,*,#221,.T.);
#148=ORIENTED_EDGE('',*,*,#214,.F.);
#149=ORIENTED_EDGE('',*,*,#224,.F.);
#150=ORIENTED_EDGE('',*,*,#209,.F.);
#151=ORIENTED_EDGE('',*,*,#223,.T.);
#152=ORIENTED_EDGE('',*,*,#210,.F.);
#153=ORIENTED_EDGE('',*,*,#224,.T.);
#154=ORIENTED_EDGE('',*,*,#217,.F.);
#155=EDGE_CURVE('',#225,#226,#271,.T.);
#156=EDGE_CURVE('',#226,#227,#272,.T.);
#157=EDGE_CURVE('',#228,#227,#273,.T.);
#158=EDGE_CURVE('',#225,#228,#274,.T.);
#159=EDGE_CURVE('',#229,#229,#13,.T.);
#160=EDGE_CURVE('',#230,#231,#275,.T.);
#161=EDGE_CURVE('',#232,#230,#276,.T.);
#162=EDGE_CURVE('',#232,#233,#277,.T.);
#163=EDGE_CURVE('',#233,#231,#278,.T.);
#164=EDGE_CURVE('',#234,#230,#279,.T.);
#165=EDGE_CURVE('',#235,#234,#280,.T.);
#166=EDGE_CURVE('',#235,#232,#281,.T.);
#167=EDGE_CURVE('',#236,#234,#282,.T.);
#168=EDGE_CURVE('',#237,#236,#283,.T.);
#169=EDGE_CURVE('',#237,#235,#284,.T.);
#170=EDGE_CURVE('',#238,#236,#285,.T.);
#171=EDGE_CURVE('',#239,#238,#286,.T.);
#172=EDGE_CURVE('',#239,#237,#287,.T.);
#173=EDGE_CURVE('',#240,#238,#288,.T.);
#174=EDGE_CURVE('',#241,#240,#289,.T.);
#175=EDGE_CURVE('',#241,#239,#290,.T.);
#176=EDGE_CURVE('',#242,#240,#291,.T.);
#177=EDGE_CURVE('',#243,#242,#292,.T.);
#178=EDGE_CURVE('',#243,#241,#293,.T.);
#179=EDGE_CURVE('',#244,#242,#294,.T.);
#180=EDGE_CURVE('',#245,#244,#295,.T.);
#181=EDGE_CURVE('',#245,#243,#296,.T.);
#182=EDGE_CURVE('',#246,#244,#297,.T.);
#183=EDGE_CURVE('',#247,#246,#298,.T.);
#184=EDGE_CURVE('',#247,#245,#299,.T.);
#185=EDGE_CURVE('',#248,#246,#300,.T.);
#186=EDGE_CURVE('',#249,#248,#301,.T.);
#187=EDGE_CURVE('',#249,#247,#302,.T.);
#188=EDGE_CURVE('',#250,#248,#303,.T.);
#189=EDGE_CURVE('',#251,#250,#304,.T.);
#190=EDGE_CURVE('',#251,#249,#305,.T.);
#191=EDGE_CURVE('',#252,#250,#306,.T.);
#192=EDGE_CURVE('',#253,#252,#307,.T.);
#193=EDGE_CURVE('',#253,#251,#308,.T.);
#194=EDGE_CURVE('',#231,#252,#309,.T.);
#195=EDGE_CURVE('',#233,#253,#310,.T.);
#196=EDGE_CURVE('',#254,#254,#14,.T.);
#197=EDGE_CURVE('',#255,#225,#311,.T.);
#198=EDGE_CURVE('',#255,#256,#312,.T.);
#199=EDGE_CURVE('',#256,#226,#313,.T.);
#200=EDGE_CURVE('',#257,#228,#314,.T.);
#201=EDGE_CURVE('',#255,#257,#315,.T.);
#202=EDGE_CURVE('',#258,#227,#316,.T.);
#203=EDGE_CURVE('',#257,#258,#317,.T.);
#204=EDGE_CURVE('',#256,#258,#318,.T.);
#205=EDGE_CURVE('',#259,#260,#319,.T.);
#206=EDGE_CURVE('',#259,#261,#320,.T.);
#207=EDGE_CURVE('',#261,#262,#321,.T.);
#208=EDGE_CURVE('',#260,#262,#322,.T.);
#209=EDGE_CURVE('',#263,#264,#323,.T.);
#210=EDGE_CURVE('',#264,#265,#324,.T.);
#211=EDGE_CURVE('',#265,#266,#325,.T.);
#212=EDGE_CURVE('',#266,#263,#326,.T.);
#213=EDGE_CURVE('',#267,#262,#327,.T.);
#214=EDGE_CURVE('',#267,#268,#328,.T.);
#215=EDGE_CURVE('',#268,#260,#329,.T.);
#216=EDGE_CURVE('',#269,#261,#330,.T.);
#217=EDGE_CURVE('',#269,#267,#331,.T.);
#218=EDGE_CURVE('',#270,#259,#332,.T.);
#219=EDGE_CURVE('',#270,#269,#333,.T.);
#220=EDGE_CURVE('',#268,#270,#334,.T.);
#221=EDGE_CURVE('',#263,#268,#335,.T.);
#222=EDGE_CURVE('',#270,#266,#336,.T.);
#223=EDGE_CURVE('',#269,#265,#337,.F.);
#224=EDGE_CURVE('',#264,#267,#338,.T.);
#225=VERTEX_POINT('',#716);
#226=VERTEX_POINT('',#717);
#227=VERTEX_POINT('',#719);
#228=VERTEX_POINT('',#721);
#229=VERTEX_POINT('',#724);
#230=VERTEX_POINT('',#727);
#231=VERTEX_POINT('',#728);
#232=VERTEX_POINT('',#730);
#233=VERTEX_POINT('',#732);
#234=VERTEX_POINT('',#736);
#235=VERTEX_POINT('',#738);
#236=VERTEX_POINT('',#742);
#237=VERTEX_POINT('',#744);
#238=VERTEX_POINT('',#748);
#239=VERTEX_POINT('',#750);
#240=VERTEX_POINT('',#754);
#241=VERTEX_POINT('',#756);
#242=VERTEX_POINT('',#760);
#243=VERTEX_POINT('',#762);
#244=VERTEX_POINT('',#766);
#245=VERTEX_POINT('',#768);
#246=VERTEX_POINT('',#772);
#247=VERTEX_POINT('',#774);
#248=VERTEX_POINT('',#778);
#249=VERTEX_POINT('',#780);
#250=VERTEX_POINT('',#784);
#251=VERTEX_POINT('',#786);
#252=VERTEX_POINT('',#790);
#253=VERTEX_POINT('',#792);
#254=VERTEX_POINT('',#799);
#255=VERTEX_POINT('',#804);
#256=VERTEX_POINT('',#806);
#257=VERTEX_POINT('',#810);
#258=VERTEX_POINT('',#814);
#259=VERTEX_POINT('',#820);
#260=VERTEX_POINT('',#821);
#261=VERTEX_POINT('',#823);
#262=VERTEX_POINT('',#825);
#263=VERTEX_POINT('',#829);
#264=VERTEX_POINT('',#830);
#265=VERTEX_POINT('',#832);
#266=VERTEX_POINT('',#834);
#267=VERTEX_POINT('',#838);
#268=VERTEX_POINT('',#840);
#269=VERTEX_POINT('',#844);
#270=VERTEX_POINT('',#848);
#271=LINE('',#715,#339);
#272=LINE('',#718,#340);
#273=LINE('',#720,#341);
#274=LINE('',#722,#342);
#275=LINE('',#726,#343);
#276=LINE('',#729,#344);
#277=LINE('',#731,#345);
#278=LINE('',#733,#346);
#279=LINE('',#735,#347);
#280=LINE('',#737,#348);
#281=LINE('',#739,#349);
#282=LINE('',#741,#350);
#283=LINE('',#743,#351);
#284=LINE('',#745,#352);
#285=LINE('',#747,#353);
#286=LINE('',#749,#354);
#287=LINE('',#751,#355);
#288=LINE('',#753,#356);
#289=LINE('',#755,#357);
#290=LINE('',#757,#358);
#291=LINE('',#759,#359);
#292=LINE('',#761,#360);
#293=LINE('',#763,#361);
#294=LINE('',#765,#362);
#295=LINE('',#767,#363);
#296=LINE('',#769,#364);
#297=LINE('',#771,#365);
#298=LINE('',#773,#366);
#299=LINE('',#775,#367);
#300=LINE('',#777,#368);
#301=LINE('',#779,#369);
#302=LINE('',#781,#370);
#303=LINE('',#783,#371);
#304=LINE('',#785,#372);
#305=LINE('',#787,#373);
#306=LINE('',#789,#374);
#307=LINE('',#791,#375);
#308=LINE('',#793,#376);
#309=LINE('',#795,#377);
#310=LINE('',#796,#378);
#311=LINE('',#803,#379);
#312=LINE('',#805,#380);
#313=LINE('',#807,#381);
#314=LINE('',#809,#382);
#315=LINE('',#811,#383);
#316=LINE('',#813,#384);
#317=LINE('',#815,#385);
#318=LINE('',#817,#386);
#319=LINE('',#819,#387);
#320=LINE('',#822,#388);
#321=LINE('',#824,#389);
#322=LINE('',#826,#390);
#323=LINE('',#828,#391);
#324=LINE('',#831,#392);
#325=LINE('',#833,#393);
#326=LINE('',#835,#394);
#327=LINE('',#837,#395);
#328=LINE('',#839,#396);
#329=LINE('',#841,#397);
#330=LINE('',#843,#398);
#331=LINE('',#845,#399);
#332=LINE('',#847,#400);
#333=LINE('',#849,#401);
#334=LINE('',#851,#402);
#335=LINE('',#853,#403);
#336=LINE('',#854,#404);
#337=LINE('',#856,#405);
#338=LINE('',#858,#406);
#339=VECTOR('',#583,1.);
#340=VECTOR('',#584,1.);
#341=VECTOR('',#585,1.);
#342=VECTOR('',#586,1.);
#343=VECTOR('',#591,1.);
#344=VECTOR('',#592,1.);
#345=VECTOR('',#593,1.);
#346=VECTOR('',#594,1.);
#347=VECTOR('',#597,1.);
#348=VECTOR('',#598,1.);
#349=VECTOR('',#599,1.);
#350=VECTOR('',#602,1.);
#351=VECTOR('',#603,1.);
#352=VECTOR('',#604,1.);
#353=VECTOR('',#607,1.);
#354=VECTOR('',#608,1.);
#355=VECTOR('',#609,1.);
#356=VECTOR('',#612,1.);
#357=VECTOR('',#613,1.);
#358=VECTOR('',#614,1.);
#359=VECTOR('',#617,1.);
#360=VECTOR('',#618,1.);
#361=VECTOR('',#619,1.);
#362=VECTOR('',#622,1.);
#363=VECTOR('',#623,1.);
#364=VECTOR('',#624,1.);
#365=VECTOR('',#627,1.);
#366=VECTOR('',#628,1.);
#367=VECTOR('',#629,1.);
#368=VECTOR('',#632,1.);
#369=VECTOR('',#633,1.);
#370=VECTOR('',#634,1.);
#371=VECTOR('',#637,1.);
#372=VECTOR('',#638,1.);
#373=VECTOR('',#639,1.);
#374=VECTOR('',#642,1.);
#375=VECTOR('',#643,1.);
#376=VECTOR('',#644,1.);
#377=VECTOR('',#647,1.);
#378=VECTOR('',#648,1.);
#379=VECTOR('',#659,1.);
#380=VECTOR('',#660,1.);
#381=VECTOR('',#661,1.);
#382=VECTOR('',#664,1.);
#383=VECTOR('',#665,1.);
#384=VECTOR('',#668,1.);
#385=VECTOR('',#669,1.);
#386=VECTOR('',#672,1.);
#387=VECTOR('',#675,1.);
#388=VECTOR('',#676,1.);
#389=VECTOR('',#677,1.);
#390=VECTOR('',#678,1.);
#391=VECTOR('',#681,1.);
#392=VECTOR('',#682,1.);
#393=VECTOR('',#683,1.);
#394=VECTOR('',#684,1.);
#395=VECTOR('',#687,1.);
#396=VECTOR('',#688,1.);
#397=VECTOR('',#689,1.);
#398=VECTOR('',#692,1.);
#399=VECTOR('',#693,1.);
#400=VECTOR('',#696,1.);
#401=VECTOR('',#697,1.);
#402=VECTOR('',#700,1.);
#403=VECTOR('',#703,1.);
#404=VECTOR('',#704,1.);
#405=VECTOR('',#707,1.);
#406=VECTOR('',#710,1.);
#407=EDGE_LOOP('',(#15,#16,#17,#18));
#408=EDGE_LOOP('',(#19));
#409=EDGE_LOOP('',(#20,#21,#22,#23));
#410=EDGE_LOOP('',(#24,#25,#26,#27));
#411=EDGE_LOOP('',(#28,#29,#30,#31));
#412=EDGE_LOOP('',(#32,#33,#34,#35));
#413=EDGE_LOOP('',(#36,#37,#38,#39));
#414=EDGE_LOOP('',(#40,#41,#42,#43));
#415=EDGE_LOOP('',(#44,#45,#46,#47));
#416=EDGE_LOOP('',(#48,#49,#50,#51));
#417=EDGE_LOOP('',(#52,#53,#54,#55));
#418=EDGE_LOOP('',(#56,#57,#58,#59));
#419=EDGE_LOOP('',(#60,#61,#62,#63));
#420=EDGE_LOOP('',(#64,#65,#66,#67));
#421=EDGE_LOOP('',(#68));
#422=EDGE_LOOP('',(#69));
#423=EDGE_LOOP('',(#70,#71,#72,#73,#74,#75,#76,#77,#78,#79,#80,#81));
#424=EDGE_LOOP('',(#82));
#425=EDGE_LOOP('',(#83,#84,#85,#86,#87,#88,#89,#90,#91,#92,#93,#94));
#426=EDGE_LOOP('',(#95,#96,#97,#98));
#427=EDGE_LOOP('',(#99,#100,#101,#102));
#428=EDGE_LOOP('',(#103,#104,#105,#106));
#429=EDGE_LOOP('',(#107,#108,#109,#110));
#430=EDGE_LOOP('',(#111,#112,#113,#114));
#431=EDGE_LOOP('',(#115,#116,#117,#118));
#432=EDGE_LOOP('',(#119,#120,#121,#122));
#433=EDGE_LOOP('',(#123,#124,#125,#126));
#434=EDGE_LOOP('',(#127,#128,#129,#130));
#435=EDGE_LOOP('',(#131,#132,#133,#134));
#436=EDGE_LOOP('',(#135,#136,#137,#138));
#437=EDGE_LOOP('',(#139,#140,#141,#142));
#438=EDGE_LOOP('',(#143,#144,#145,#146));
#439=EDGE_LOOP('',(#147,#148,#149,#150));
#440=EDGE_LOOP('',(#151,#152,#153,#154));
#441=FACE_BOUND('',#407,.T.);
#442=FACE_BOUND('',#408,.T.);
#443=FACE_BOUND('',#409,.T.);
#444=FACE_BOUND('',#410,.T.);
#445=FACE_BOUND('',#411,.T.);
#446=FACE_BOUND('',#412,.T.);
#447=FACE_BOUND('',#413,.T.);
#448=FACE_BOUND('',#414,.T.);
#449=FACE_BOUND('',#415,.T.);
#450=FACE_BOUND('',#416,.T.);
#451=FACE_BOUND('',#417,.T.);
#452=FACE_BOUND('',#418,.T.);
#453=FACE_BOUND('',#419,.T.);
#454=FACE_BOUND('',#420,.T.);
#455=FACE_BOUND('',#421,.T.);
#456=FACE_BOUND('',#422,.T.);
#457=FACE_BOUND('',#423,.T.);
#458=FACE_BOUND('',#424,.T.);
#459=FACE_BOUND('',#425,.T.);
#460=FACE_BOUND('',#426,.T.);
#461=FACE_BOUND('',#427,.T.);
#462=FACE_BOUND('',#428,.T.);
#463=FACE_BOUND('',#429,.T.);
#464=FACE_BOUND('',#430,.T.);
#465=FACE_BOUND('',#431,.T.);
#466=FACE_BOUND('',#432,.T.);
#467=FACE_BOUND('',#433,.T.);
#468=FACE_BOUND('',#434,.T.);
#469=FACE_BOUND('',#435,.T.);
#470=FACE_BOUND('',#436,.T.);
#471=FACE_BOUND('',#437,.T.);
#472=FACE_BOUND('',#438,.T.);
#473=FACE_BOUND('',#439,.T.);
#474=FACE_BOUND('',#440,.T.);
#475=PLANE('',#547);
#476=PLANE('',#549);
#477=PLANE('',#550);
#478=PLANE('',#551);
#479=PLANE('',#552);
#480=PLANE('',#553);
#481=PLANE('',#554);
#482=PLANE('',#555);
#483=PLANE('',#556);
#484=PLANE('',#557);
#485=PLANE('',#558);
#486=PLANE('',#559);
#487=PLANE('',#560);
#488=PLANE('',#563);
#489=PLANE('',#564);
#490=PLANE('',#565);
#491=PLANE('',#566);
#492=PLANE('',#567);
#493=PLANE('',#568);
#494=PLANE('',#569);
#495=PLANE('',#570);
#496=PLANE('',#571);
#497=PLANE('',#572);
#498=PLANE('',#573);
#499=PLANE('',#574);
#500=PLANE('',#575);
#501=PLANE('',#576);
#502=PLANE('',#577);
#503=PLANE('',#578);
#504=ADVANCED_FACE('',(#441,#442),#475,.T.);
#505=ADVANCED_FACE('',(#443),#476,.T.);
#506=ADVANCED_FACE('',(#444),#477,.T.);
#507=ADVANCED_FACE('',(#445),#478,.T.);
#508=ADVANCED_FACE('',(#446),#479,.T.);
#509=ADVANCED_FACE('',(#447),#480,.T.);
#510=ADVANCED_FACE('',(#448),#481,.T.);
#511=ADVANCED_FACE('',(#449),#482,.T.);
#512=ADVANCED_FACE('',(#450),#483,.T.);
#513=ADVANCED_FACE('',(#451),#484,.T.);
#514=ADVANCED_FACE('',(#452),#485,.T.);
#515=ADVANCED_FACE('',(#453),#486,.T.);
#516=ADVANCED_FACE('',(#454),#487,.T.);
#517=ADVANCED_FACE('',(#455,#456),#12,.T.);
#518=ADVANCED_FACE('',(#457,#458),#488,.T.);
#519=ADVANCED_FACE('',(#459),#489,.T.);
#520=ADVANCED_FACE('',(#460),#490,.T.);
#521=ADVANCED_FACE('',(#461),#491,.F.);
#522=ADVANCED_FACE('',(#462),#492,.F.);
#523=ADVANCED_FACE('',(#463),#493,.T.);
#524=ADVANCED_FACE('',(#464,#465),#494,.T.);
#525=ADVANCED_FACE('',(#466),#495,.F.);
#526=ADVANCED_FACE('',(#467),#496,.F.);
#527=ADVANCED_FACE('',(#468),#497,.T.);
#528=ADVANCED_FACE('',(#469),#498,.T.);
#529=ADVANCED_FACE('',(#470),#499,.F.);
#530=ADVANCED_FACE('',(#471),#500,.F.);
#531=ADVANCED_FACE('',(#472),#501,.T.);
#532=ADVANCED_FACE('',(#473),#502,.F.);
#533=ADVANCED_FACE('',(#474),#503,.T.);
#534=CLOSED_SHELL('',(#504,#505,#506,#507,#508,#509,#510,#511,#512,#513,
#514,#515,#516,#517,#518,#519,#520,#521,#522,#523,#524,#525,#526,#527,#528,
#529,#530,#531,#532,#533));
#535=STYLED_ITEM('',(#536),#543);
#536=PRESENTATION_STYLE_ASSIGNMENT((#537));
#537=SURFACE_STYLE_USAGE(.BOTH.,#538);
#538=SURFACE_SIDE_STYLE('',(#539));
#539=SURFACE_STYLE_FILL_AREA(#540);
#540=FILL_AREA_STYLE('',(#541));
#541=FILL_AREA_STYLE_COLOUR('',#542);
#542=COLOUR_RGB('',0.615686274509804,0.811764705882353,0.929411764705882);
#543=MANIFOLD_SOLID_BREP('Part 1',#534);
#544=SHAPE_DEFINITION_REPRESENTATION(#866,#545);
#545=SHAPE_REPRESENTATION('Part 1',(#546),#861);
#546=AXIS2_PLACEMENT_3D('',#713,#579,#580);
#547=AXIS2_PLACEMENT_3D('',#714,#581,#582);
#548=AXIS2_PLACEMENT_3D('',#723,#587,#588);
#549=AXIS2_PLACEMENT_3D('',#725,#589,#590);
#550=AXIS2_PLACEMENT_3D('',#734,#595,#596);
#551=AXIS2_PLACEMENT_3D('',#740,#600,#601);
#552=AXIS2_PLACEMENT_3D('',#746,#605,#606);
#553=AXIS2_PLACEMENT_3D('',#752,#610,#611);
#554=AXIS2_PLACEMENT_3D('',#758,#615,#616);
#555=AXIS2_PLACEMENT_3D('',#764,#620,#621);
#556=AXIS2_PLACEMENT_3D('',#770,#625,#626);
#557=AXIS2_PLACEMENT_3D('',#776,#630,#631);
#558=AXIS2_PLACEMENT_3D('',#782,#635,#636);
#559=AXIS2_PLACEMENT_3D('',#788,#640,#641);
#560=AXIS2_PLACEMENT_3D('',#794,#645,#646);
#561=AXIS2_PLACEMENT_3D('',#797,#649,#650);
#562=AXIS2_PLACEMENT_3D('',#798,#651,#652);
#563=AXIS2_PLACEMENT_3D('',#800,#653,#654);
#564=AXIS2_PLACEMENT_3D('',#801,#655,#656);
#565=AXIS2_PLACEMENT_3D('',#802,#657,#658);
#566=AXIS2_PLACEMENT_3D('',#808,#662,#663);
#567=AXIS2_PLACEMENT_3D('',#812,#666,#667);
#568=AXIS2_PLACEMENT_3D('',#816,#670,#671);
#569=AXIS2_PLACEMENT_3D('',#818,#673,#674);
#570=AXIS2_PLACEMENT_3D('',#827,#679,#680);
#571=AXIS2_PLACEMENT_3D('',#836,#685,#686);
#572=AXIS2_PLACEMENT_3D('',#842,#690,#691);
#573=AXIS2_PLACEMENT_3D('',#846,#694,#695);
#574=AXIS2_PLACEMENT_3D('',#850,#698,#699);
#575=AXIS2_PLACEMENT_3D('',#852,#701,#702);
#576=AXIS2_PLACEMENT_3D('',#855,#705,#706);
#577=AXIS2_PLACEMENT_3D('',#857,#708,#709);
#578=AXIS2_PLACEMENT_3D('',#859,#711,#712);
#579=DIRECTION('',(0.,0.,1.));
#580=DIRECTION('',(1.,0.,0.));
#581=DIRECTION('',(0.,0.,1.));
#582=DIRECTION('',(1.,0.,0.));
#583=DIRECTION('',(-3.08395284618099E-16,-1.,0.));
#584=DIRECTION('',(1.,0.,0.));
#585=DIRECTION('',(-3.08395284618099E-16,-1.,0.));
#586=DIRECTION('',(1.,0.,0.));
#587=DIRECTION('',(0.,0.,1.));
#588=DIRECTION('',(1.,-6.12323399573677E-17,0.));
#589=DIRECTION('',(-1.,0.,0.));
#590=DIRECTION('',(0.,0.,1.));
#591=DIRECTION('',(0.,1.,0.));
#592=DIRECTION('',(0.,0.,-1.));
#593=DIRECTION('',(0.,1.,0.));
#594=DIRECTION('',(0.,0.,-1.));
#595=DIRECTION('',(0.,1.,0.));
#596=DIRECTION('',(0.,0.,1.));
#597=DIRECTION('',(1.,0.,0.));
#598=DIRECTION('',(0.,0.,-1.));
#599=DIRECTION('',(1.,0.,0.));
#600=DIRECTION('',(-1.,0.,0.));
#601=DIRECTION('',(0.,0.,1.));
#602=DIRECTION('',(0.,1.,0.));
#603=DIRECTION('',(0.,0.,-1.));
#604=DIRECTION('',(0.,1.,0.));
#605=DIRECTION('',(0.,1.,0.));
#606=DIRECTION('',(0.,0.,1.));
#607=DIRECTION('',(1.,0.,0.));
#608=DIRECTION('',(0.,0.,-1.));
#609=DIRECTION('',(1.,0.,0.));
#610=DIRECTION('',(1.,0.,0.));
#611=DIRECTION('',(0.,0.,-1.));
#612=DIRECTION('',(0.,-1.,0.));
#613=DIRECTION('',(0.,0.,-1.));
#614=DIRECTION('',(0.,-1.,0.));
#615=DIRECTION('',(0.,1.,0.));
#616=DIRECTION('',(0.,0.,1.));
#617=DIRECTION('',(1.,0.,0.));
#618=DIRECTION('',(0.,0.,-1.));
#619=DIRECTION('',(1.,0.,0.));
#620=DIRECTION('',(1.,0.,0.));
#621=DIRECTION('',(0.,0.,-1.));
#622=DIRECTION('',(0.,-1.,0.));
#623=DIRECTION('',(0.,0.,-1.));
#624=DIRECTION('',(0.,-1.,0.));
#625=DIRECTION('',(0.,-1.,0.));
#626=DIRECTION('',(0.,0.,-1.));
#627=DIRECTION('',(-1.,0.,0.));
#628=DIRECTION('',(0.,0.,-1.));
#629=DIRECTION('',(-1.,0.,0.));
#630=DIRECTION('',(1.,0.,0.));
#631=DIRECTION('',(0.,0.,-1.));
#632=DIRECTION('',(0.,-1.,0.));
#633=DIRECTION('',(0.,0.,-1.));
#634=DIRECTION('',(0.,-1.,0.));
#635=DIRECTION('',(0.,-1.,0.));
#636=DIRECTION('',(0.,0.,-1.));
#637=DIRECTION('',(-1.,0.,0.));
#638=DIRECTION('',(0.,0.,-1.));
#639=DIRECTION('',(-1.,0.,0.));
#640=DIRECTION('',(-1.,0.,0.));
#641=DIRECTION('',(0.,0.,1.));
#642=DIRECTION('',(0.,1.,0.));
#643=DIRECTION('',(0.,0.,-1.));
#644=DIRECTION('',(0.,1.,0.));
#645=DIRECTION('',(0.,-1.,0.));
#646=DIRECTION('',(0.,0.,-1.));
#647=DIRECTION('',(-1.,0.,0.));
#648=DIRECTION('',(-1.,0.,0.));
#649=DIRECTION('',(0.,0.,-1.));
#650=DIRECTION('',(-1.,0.,0.));
#651=DIRECTION('',(0.,0.,1.));
#652=DIRECTION('',(1.,-6.12323399573677E-17,0.));
#653=DIRECTION('',(0.,0.,1.));
#654=DIRECTION('',(1.,0.,0.));
#655=DIRECTION('',(0.,0.,1.));
#656=DIRECTION('',(1.,0.,0.));
#657=DIRECTION('',(1.,-3.08395284618099E-16,0.));
#658=DIRECTION('',(3.08395284618099E-16,1.,0.));
#659=DIRECTION('',(0.,0.,-1.));
#660=DIRECTION('',(-3.08395284618099E-16,-1.,0.));
#661=DIRECTION('',(0.,0.,-1.));
#662=DIRECTION('',(0.,1.,0.));
#663=DIRECTION('',(0.,0.,1.));
#664=DIRECTION('',(0.,0.,-1.));
#665=DIRECTION('',(1.,0.,0.));
#666=DIRECTION('',(1.,-3.08395284618099E-16,0.));
#667=DIRECTION('',(3.08395284618099E-16,1.,0.));
#668=DIRECTION('',(0.,0.,-1.));
#669=DIRECTION('',(-3.08395284618099E-16,-1.,0.));
#670=DIRECTION('',(0.,1.,0.));
#671=DIRECTION('',(0.,0.,1.));
#672=DIRECTION('',(1.,0.,0.));
#673=DIRECTION('',(0.,0.,1.));
#674=DIRECTION('',(1.,0.,0.));
#675=DIRECTION('',(0.,1.,0.));
#676=DIRECTION('',(1.,0.,0.));
#677=DIRECTION('',(0.,1.,0.));
#678=DIRECTION('',(1.,0.,0.));
#679=DIRECTION('',(0.,0.,1.));
#680=DIRECTION('',(1.,0.,0.));
#681=DIRECTION('',(1.,0.,0.));
#682=DIRECTION('',(0.,-1.,0.));
#683=DIRECTION('',(-1.,0.,0.));
#684=DIRECTION('',(0.,1.,0.));
#685=DIRECTION('',(0.,-1.,0.));
#686=DIRECTION('',(0.,0.,-1.));
#687=DIRECTION('',(0.,0.,1.));
#688=DIRECTION('',(-1.,0.,0.));
#689=DIRECTION('',(0.,0.,1.));
#690=DIRECTION('',(1.,0.,0.));
#691=DIRECTION('',(0.,0.,-1.));
#692=DIRECTION('',(0.,0.,1.));
#693=DIRECTION('',(0.,1.,0.));
#694=DIRECTION('',(0.,-1.,0.));
#695=DIRECTION('',(0.,0.,-1.));
#696=DIRECTION('',(0.,0.,1.));
#697=DIRECTION('',(1.,0.,0.));
#698=DIRECTION('',(1.,0.,0.));
#699=DIRECTION('',(0.,0.,-1.));
#700=DIRECTION('',(0.,-1.,0.));
#701=DIRECTION('',(0.707106781186547,0.,0.707106781186548));
#702=DIRECTION('',(0.,1.,0.));
#703=DIRECTION('',(-0.577350269189626,0.577350269189625,0.577350269189626));
#704=DIRECTION('',(0.577350269189626,0.577350269189625,-0.577350269189626));
#705=DIRECTION('',(0.,-0.707106781186548,-0.707106781186547));
#706=DIRECTION('',(-1.,0.,0.));
#707=DIRECTION('',(0.577350269189626,-0.577350269189625,0.577350269189626));
#708=DIRECTION('',(0.,-0.707106781186548,0.707106781186547));
#709=DIRECTION('',(1.,0.,0.));
#710=DIRECTION('',(0.577350269189626,0.577350269189625,0.577350269189626));
#711=DIRECTION('',(0.707106781186547,0.,-0.707106781186548));
#712=DIRECTION('',(0.,-1.,0.));
#713=CARTESIAN_POINT('',(0.,0.,0.));
#714=CARTESIAN_POINT('',(0.,0.,0.));
#715=CARTESIAN_POINT('',(-0.035,0.,0.));
#716=CARTESIAN_POINT('',(-0.035,0.0225,0.));
#717=CARTESIAN_POINT('',(-0.035,-0.0225,0.));
#718=CARTESIAN_POINT('',(-6.93889390390723E-18,-0.0225,0.));
#719=CARTESIAN_POINT('',(0.035,-0.0225,0.));
#720=CARTESIAN_POINT('',(0.035,0.,0.));
#721=CARTESIAN_POINT('',(0.035,0.0225,0.));
#722=CARTESIAN_POINT('',(6.93889390390723E-18,0.0225,0.));
#723=CARTESIAN_POINT('',(0.,1.71450551880629E-19,0.));
#724=CARTESIAN_POINT('',(0.0028,-4.81482486096809E-35,0.));
#725=CARTESIAN_POINT('',(0.00195,0.000275,0.005));
#726=CARTESIAN_POINT('',(0.00195,0.000275,0.));
#727=CARTESIAN_POINT('',(0.00195,-0.00055,0.));
#728=CARTESIAN_POINT('',(0.00195,0.00055,0.));
#729=CARTESIAN_POINT('',(0.00195,-0.00055,0.005));
#730=CARTESIAN_POINT('',(0.00195,-0.00055,0.005));
#731=CARTESIAN_POINT('',(0.00195,0.000275,0.005));
#732=CARTESIAN_POINT('',(0.00195,0.00055,0.005));
#733=CARTESIAN_POINT('',(0.00195,0.00055,0.005));
#734=CARTESIAN_POINT('',(0.00125,-0.00055,0.005));
#735=CARTESIAN_POINT('',(0.00125,-0.00055,0.));
#736=CARTESIAN_POINT('',(0.00055,-0.00055,0.));
#737=CARTESIAN_POINT('',(0.00055,-0.00055,0.005));
#738=CARTESIAN_POINT('',(0.00055,-0.00055,0.005));
#739=CARTESIAN_POINT('',(0.00125,-0.00055,0.005));
#740=CARTESIAN_POINT('',(0.00055,-0.00125,0.005));
#741=CARTESIAN_POINT('',(0.00055,-0.00125,0.));
#742=CARTESIAN_POINT('',(0.00055,-0.00195,0.));
#743=CARTESIAN_POINT('',(0.00055,-0.00195,0.005));
#744=CARTESIAN_POINT('',(0.00055,-0.00195,0.005));
#745=CARTESIAN_POINT('',(0.00055,-0.00125,0.005));
#746=CARTESIAN_POINT('',(2.16840434497101E-19,-0.00195,0.005));
#747=CARTESIAN_POINT('',(2.16840434497101E-19,-0.00195,0.));
#748=CARTESIAN_POINT('',(-0.00055,-0.00195,0.));
#749=CARTESIAN_POINT('',(-0.00055,-0.00195,0.005));
#750=CARTESIAN_POINT('',(-0.00055,-0.00195,0.005));
#751=CARTESIAN_POINT('',(2.16840434497101E-19,-0.00195,0.005));
#752=CARTESIAN_POINT('',(-0.00055,-0.00125,0.005));
#753=CARTESIAN_POINT('',(-0.00055,-0.00125,0.));
#754=CARTESIAN_POINT('',(-0.00055,-0.00055,0.));
#755=CARTESIAN_POINT('',(-0.00055,-0.00055,0.005));
#756=CARTESIAN_POINT('',(-0.00055,-0.00055,0.005));
#757=CARTESIAN_POINT('',(-0.00055,-0.00125,0.005));
#758=CARTESIAN_POINT('',(-0.00125,-0.00055,0.005));
#759=CARTESIAN_POINT('',(-0.00125,-0.00055,0.));
#760=CARTESIAN_POINT('',(-0.00195,-0.00055,0.));
#761=CARTESIAN_POINT('',(-0.00195,-0.00055,0.005));
#762=CARTESIAN_POINT('',(-0.00195,-0.00055,0.005));
#763=CARTESIAN_POINT('',(-0.00125,-0.00055,0.005));
#764=CARTESIAN_POINT('',(-0.00195,-4.33680868994202E-19,0.005));
#765=CARTESIAN_POINT('',(-0.00195,-4.33680868994202E-19,0.));
#766=CARTESIAN_POINT('',(-0.00195,0.00055,0.));
#767=CARTESIAN_POINT('',(-0.00195,0.00055,0.005));
#768=CARTESIAN_POINT('',(-0.00195,0.00055,0.005));
#769=CARTESIAN_POINT('',(-0.00195,-4.33680868994202E-19,0.005));
#770=CARTESIAN_POINT('',(-0.00125,0.00055,0.005));
#771=CARTESIAN_POINT('',(-0.00125,0.00055,0.));
#772=CARTESIAN_POINT('',(-0.00055,0.00055,0.));
#773=CARTESIAN_POINT('',(-0.00055,0.00055,0.005));
#774=CARTESIAN_POINT('',(-0.00055,0.00055,0.005));
#775=CARTESIAN_POINT('',(-0.00125,0.00055,0.005));
#776=CARTESIAN_POINT('',(-0.00055,0.00125,0.005));
#777=CARTESIAN_POINT('',(-0.00055,0.00125,0.));
#778=CARTESIAN_POINT('',(-0.00055,0.00195,0.));
#779=CARTESIAN_POINT('',(-0.00055,0.00195,0.005));
#780=CARTESIAN_POINT('',(-0.00055,0.00195,0.005));
#781=CARTESIAN_POINT('',(-0.00055,0.00125,0.005));
#782=CARTESIAN_POINT('',(-1.0842021724855E-19,0.00195,0.005));
#783=CARTESIAN_POINT('',(-1.0842021724855E-19,0.00195,0.));
#784=CARTESIAN_POINT('',(0.00055,0.00195,0.));
#785=CARTESIAN_POINT('',(0.00055,0.00195,0.005));
#786=CARTESIAN_POINT('',(0.00055,0.00195,0.005));
#787=CARTESIAN_POINT('',(-1.0842021724855E-19,0.00195,0.005));
#788=CARTESIAN_POINT('',(0.00055,0.00125,0.005));
#789=CARTESIAN_POINT('',(0.00055,0.00125,0.));
#790=CARTESIAN_POINT('',(0.00055,0.00055,0.));
#791=CARTESIAN_POINT('',(0.00055,0.00055,0.005));
#792=CARTESIAN_POINT('',(0.00055,0.00055,0.005));
#793=CARTESIAN_POINT('',(0.00055,0.00125,0.005));
#794=CARTESIAN_POINT('',(0.00125,0.00055,0.005));
#795=CARTESIAN_POINT('',(0.00125,0.00055,0.));
#796=CARTESIAN_POINT('',(0.00125,0.00055,0.005));
#797=CARTESIAN_POINT('',(0.,1.71450551880629E-19,0.005));
#798=CARTESIAN_POINT('',(0.,1.71450551880629E-19,0.005));
#799=CARTESIAN_POINT('',(0.0028,-4.81482486096809E-35,0.005));
#800=CARTESIAN_POINT('',(0.,0.,0.005));
#801=CARTESIAN_POINT('',(0.,0.,0.));
#802=CARTESIAN_POINT('',(-0.035,0.,0.005));
#803=CARTESIAN_POINT('',(-0.035,0.0225,0.005));
#804=CARTESIAN_POINT('',(-0.035,0.0225,0.005));
#805=CARTESIAN_POINT('',(-0.035,0.,0.005));
#806=CARTESIAN_POINT('',(-0.035,-0.0225,0.005));
#807=CARTESIAN_POINT('',(-0.035,-0.0225,0.005));
#808=CARTESIAN_POINT('',(6.93889390390723E-18,0.0225,0.005));
#809=CARTESIAN_POINT('',(0.035,0.0225,0.005));
#810=CARTESIAN_POINT('',(0.035,0.0225,0.005));
#811=CARTESIAN_POINT('',(6.93889390390723E-18,0.0225,0.005));
#812=CARTESIAN_POINT('',(0.035,0.,0.005));
#813=CARTESIAN_POINT('',(0.035,-0.0225,0.005));
#814=CARTESIAN_POINT('',(0.035,-0.0225,0.005));
#815=CARTESIAN_POINT('',(0.035,0.,0.005));
#816=CARTESIAN_POINT('',(-6.93889390390723E-18,-0.0225,0.005));
#817=CARTESIAN_POINT('',(-6.93889390390723E-18,-0.0225,0.005));
#818=CARTESIAN_POINT('',(0.,0.,0.005));
#819=CARTESIAN_POINT('',(-0.0475,3.46944695195361E-18,0.005));
#820=CARTESIAN_POINT('',(-0.0475,-0.0275,0.005));
#821=CARTESIAN_POINT('',(-0.0475,0.0275,0.005));
#822=CARTESIAN_POINT('',(0.,-0.0275,0.005));
#823=CARTESIAN_POINT('',(0.0475,-0.0275,0.005));
#824=CARTESIAN_POINT('',(0.0475,0.,0.005));
#825=CARTESIAN_POINT('',(0.0475,0.0275,0.005));
#826=CARTESIAN_POINT('',(0.,0.0275,0.005));
#827=CARTESIAN_POINT('',(0.,0.,-0.002));
#828=CARTESIAN_POINT('',(0.,0.025,-0.002));
#829=CARTESIAN_POINT('',(-0.045,0.025,-0.002));
#830=CARTESIAN_POINT('',(0.045,0.025,-0.002));
#831=CARTESIAN_POINT('',(0.045,-0.0275,-0.002));
#832=CARTESIAN_POINT('',(0.045,-0.025,-0.002));
#833=CARTESIAN_POINT('',(-0.0475,-0.025,-0.002));
#834=CARTESIAN_POINT('',(-0.045,-0.025,-0.002));
#835=CARTESIAN_POINT('',(-0.045,0.,-0.002));
#836=CARTESIAN_POINT('',(0.,0.0275,-0.002));
#837=CARTESIAN_POINT('',(0.0475,0.0275,-0.002));
#838=CARTESIAN_POINT('',(0.0475,0.0275,0.0005));
#839=CARTESIAN_POINT('',(0.,0.0275,0.0005));
#840=CARTESIAN_POINT('',(-0.0475,0.0275,0.0005));
#841=CARTESIAN_POINT('',(-0.0475,0.0275,-0.002));
#842=CARTESIAN_POINT('',(0.0475,0.,-0.002));
#843=CARTESIAN_POINT('',(0.0475,-0.0275,-0.002));
#844=CARTESIAN_POINT('',(0.0475,-0.0275,0.0005));
#845=CARTESIAN_POINT('',(0.0475,0.0275,0.0005));
#846=CARTESIAN_POINT('',(0.,-0.0275,-0.002));
#847=CARTESIAN_POINT('',(-0.0475,-0.0275,-0.002));
#848=CARTESIAN_POINT('',(-0.0475,-0.0275,0.0005));
#849=CARTESIAN_POINT('',(0.0475,-0.0275,0.0005));
#850=CARTESIAN_POINT('',(-0.0475,3.46944695195361E-18,-0.002));
#851=CARTESIAN_POINT('',(-0.0475,3.46944695195361E-18,0.0005));
#852=CARTESIAN_POINT('',(-0.045,0.,-0.002));
#853=CARTESIAN_POINT('',(-0.03,0.01,-0.017));
#854=CARTESIAN_POINT('',(-0.0366666666666667,-0.0166666666666667,-0.0103333333333333));
#855=CARTESIAN_POINT('',(0.,-0.0275,0.0005));
#856=CARTESIAN_POINT('',(0.0316666666666666,-0.0116666666666667,-0.0153333333333333));
#857=CARTESIAN_POINT('',(0.,0.025,-0.002));
#858=CARTESIAN_POINT('',(0.03,0.01,-0.017));
#859=CARTESIAN_POINT('',(0.0475,0.,0.0005));
#860=MECHANICAL_DESIGN_GEOMETRIC_PRESENTATION_REPRESENTATION('',(#535),
#861);
#861=(
GEOMETRIC_REPRESENTATION_CONTEXT(3)
GLOBAL_UNCERTAINTY_ASSIGNED_CONTEXT((#862))
GLOBAL_UNIT_ASSIGNED_CONTEXT((#865,#864,#863))
REPRESENTATION_CONTEXT('Part 1','TOP_LEVEL_ASSEMBLY_PART')
);
#862=UNCERTAINTY_MEASURE_WITH_UNIT(LENGTH_MEASURE(1.E-8),#865,
'DISTANCE_ACCURACY_VALUE','Maximum Tolerance applied to model');
#863=(
NAMED_UNIT(*)
SI_UNIT($,.STERADIAN.)
SOLID_ANGLE_UNIT()
);
#864=(
NAMED_UNIT(*)
PLANE_ANGLE_UNIT()
SI_UNIT($,.RADIAN.)
);
#865=(
LENGTH_UNIT()
NAMED_UNIT(*)
SI_UNIT($,.METRE.)
);
#866=PRODUCT_DEFINITION_SHAPE('','',#867);
#867=PRODUCT_DEFINITION('','',#869,#868);
#868=PRODUCT_DEFINITION_CONTEXT('',#875,'design');
#869=PRODUCT_DEFINITION_FORMATION_WITH_SPECIFIED_SOURCE('','',#871,
 .NOT_KNOWN.);
#870=PRODUCT_RELATED_PRODUCT_CATEGORY('','',(#871));
#871=PRODUCT('Part 1','Part 1','Part 1',(#873));
#872=PRODUCT_CATEGORY('','');
#873=PRODUCT_CONTEXT('',#875,'mechanical');
#874=APPLICATION_PROTOCOL_DEFINITION('international standard',
'ap242_managed_model_based_3d_engineering',2020,#875);
#875=APPLICATION_CONTEXT('managed model based 3d engineering');
ENDSEC;
END-ISO-10303-21;
