ISO-10303-21;
HEADER;
/* Generated by software containing ST-Developer
 * from STEP Tools, Inc. (www.steptools.com) 
 */
/* OPTION: using custom renumber hook */

FILE_DESCRIPTION(
/* description */ ('STEP AP242 Edition 2',
'CAx-IF Rec.Pracs.---Representation and Presentation of Product Manufa
cturing Information (PMI)---4.0---2014-10-13',
'CAx-IF Rec.Pracs.---3D Tessellated Geometry---0.4---2014-09-14','2;1',
'CAx-IF Rec.Pracs.---User Defined Attributes---1.5---2016-08-15'),
/* implementation_level */ '2;1');

FILE_NAME(
/* name */ 'BOTTOM SHELL',
/* time_stamp */ '2026-09-27T01:48:03Z',
/* author */ (''),
/* organization */ (''),
/* preprocessor_version */ 'ST-DEVELOPER v20',
/* originating_system */ 'ONSHAPE BY PTC INC, 1.221',
/* authorisation */ '  ');

FILE_SCHEMA (('AP242_MANAGED_MODEL_BASED_3D_ENGINEERING_MIM_LF { 1 0 10303 442 3 1 4 }'));
ENDSEC;

DATA;
#10=SHAPE_REPRESENTATION_RELATIONSHIP('','',#1405,#11);
#11=ADVANCED_BREP_SHAPE_REPRESENTATION('',(#1403),#2293);
#12=CYLINDRICAL_SURFACE('',#1453,0.0016);
#13=CYLINDRICAL_SURFACE('',#1454,0.0016);
#14=CYLINDRICAL_SURFACE('',#1456,0.0016);
#15=CYLINDRICAL_SURFACE('',#1458,0.0016);
#16=CYLINDRICAL_SURFACE('',#1465,0.005);
#17=CYLINDRICAL_SURFACE('',#1470,0.005);
#18=CYLINDRICAL_SURFACE('',#1471,0.005);
#19=CYLINDRICAL_SURFACE('',#1473,0.005);
#20=CYLINDRICAL_SURFACE('',#1479,0.0016);
#21=CYLINDRICAL_SURFACE('',#1481,0.0016);
#22=CYLINDRICAL_SURFACE('',#1483,0.0016);
#23=CYLINDRICAL_SURFACE('',#1485,0.0016);
#24=CYLINDRICAL_SURFACE('',#1489,0.0035);
#25=CYLINDRICAL_SURFACE('',#1492,0.0035);
#26=CYLINDRICAL_SURFACE('',#1495,0.0035);
#27=CYLINDRICAL_SURFACE('',#1498,0.0035);
#28=CYLINDRICAL_SURFACE('',#1504,0.0012);
#29=CYLINDRICAL_SURFACE('',#1507,0.0012);
#30=CYLINDRICAL_SURFACE('',#1519,0.0025);
#31=CYLINDRICAL_SURFACE('',#1521,0.0025);
#32=CYLINDRICAL_SURFACE('',#1523,0.0025);
#33=CYLINDRICAL_SURFACE('',#1525,0.0025);
#34=CIRCLE('',#1408,0.0025);
#35=CIRCLE('',#1409,0.0025);
#36=CIRCLE('',#1410,0.0025);
#37=CIRCLE('',#1411,0.0025);
#38=CIRCLE('',#1413,0.005);
#39=CIRCLE('',#1414,0.005);
#40=CIRCLE('',#1415,0.005);
#41=CIRCLE('',#1416,0.005);
#42=CIRCLE('',#1418,0.0035);
#43=CIRCLE('',#1419,0.0035);
#44=CIRCLE('',#1420,0.0035);
#45=CIRCLE('',#1421,0.0035);
#46=CIRCLE('',#1422,0.0016);
#47=CIRCLE('',#1423,0.0016);
#48=CIRCLE('',#1424,0.0016);
#49=CIRCLE('',#1425,0.0016);
#50=CIRCLE('',#1432,0.0016);
#51=CIRCLE('',#1433,0.0016);
#52=CIRCLE('',#1434,0.0016);
#53=CIRCLE('',#1435,0.0016);
#54=CIRCLE('',#1445,0.0016);
#55=CIRCLE('',#1446,0.005);
#56=CIRCLE('',#1449,0.005);
#57=CIRCLE('',#1450,0.0016);
#58=CIRCLE('',#1455,0.0016);
#59=CIRCLE('',#1457,0.0016);
#60=CIRCLE('',#1460,0.0025);
#61=CIRCLE('',#1461,0.0025);
#62=CIRCLE('',#1462,0.0025);
#63=CIRCLE('',#1463,0.0025);
#64=CIRCLE('',#1466,0.005);
#65=CIRCLE('',#1474,0.005);
#66=CIRCLE('',#1480,0.0016);
#67=CIRCLE('',#1482,0.0016);
#68=CIRCLE('',#1484,0.0016);
#69=CIRCLE('',#1486,0.0016);
#70=CIRCLE('',#1488,0.0035);
#71=CIRCLE('',#1491,0.0035);
#72=CIRCLE('',#1494,0.0035);
#73=CIRCLE('',#1497,0.0035);
#74=CIRCLE('',#1502,0.0012);
#75=CIRCLE('',#1503,0.0012);
#76=CIRCLE('',#1505,0.0012);
#77=CIRCLE('',#1508,0.0012);
#78=ORIENTED_EDGE('',*,*,#442,.F.);
#79=ORIENTED_EDGE('',*,*,#443,.F.);
#80=ORIENTED_EDGE('',*,*,#444,.T.);
#81=ORIENTED_EDGE('',*,*,#445,.F.);
#82=ORIENTED_EDGE('',*,*,#446,.T.);
#83=ORIENTED_EDGE('',*,*,#447,.F.);
#84=ORIENTED_EDGE('',*,*,#448,.F.);
#85=ORIENTED_EDGE('',*,*,#449,.F.);
#86=ORIENTED_EDGE('',*,*,#450,.F.);
#87=ORIENTED_EDGE('',*,*,#451,.T.);
#88=ORIENTED_EDGE('',*,*,#452,.T.);
#89=ORIENTED_EDGE('',*,*,#453,.T.);
#90=ORIENTED_EDGE('',*,*,#454,.T.);
#91=ORIENTED_EDGE('',*,*,#455,.T.);
#92=ORIENTED_EDGE('',*,*,#456,.T.);
#93=ORIENTED_EDGE('',*,*,#457,.T.);
#94=ORIENTED_EDGE('',*,*,#458,.T.);
#95=ORIENTED_EDGE('',*,*,#459,.T.);
#96=ORIENTED_EDGE('',*,*,#460,.F.);
#97=ORIENTED_EDGE('',*,*,#461,.T.);
#98=ORIENTED_EDGE('',*,*,#462,.F.);
#99=ORIENTED_EDGE('',*,*,#463,.F.);
#100=ORIENTED_EDGE('',*,*,#464,.F.);
#101=ORIENTED_EDGE('',*,*,#465,.T.);
#102=ORIENTED_EDGE('',*,*,#466,.F.);
#103=ORIENTED_EDGE('',*,*,#467,.F.);
#104=ORIENTED_EDGE('',*,*,#468,.F.);
#105=ORIENTED_EDGE('',*,*,#469,.T.);
#106=ORIENTED_EDGE('',*,*,#447,.T.);
#107=ORIENTED_EDGE('',*,*,#470,.F.);
#108=ORIENTED_EDGE('',*,*,#471,.F.);
#109=ORIENTED_EDGE('',*,*,#472,.T.);
#110=ORIENTED_EDGE('',*,*,#473,.F.);
#111=ORIENTED_EDGE('',*,*,#474,.F.);
#112=ORIENTED_EDGE('',*,*,#475,.F.);
#113=ORIENTED_EDGE('',*,*,#476,.T.);
#114=ORIENTED_EDGE('',*,*,#477,.F.);
#115=ORIENTED_EDGE('',*,*,#478,.F.);
#116=ORIENTED_EDGE('',*,*,#479,.F.);
#117=ORIENTED_EDGE('',*,*,#480,.F.);
#118=ORIENTED_EDGE('',*,*,#481,.T.);
#119=ORIENTED_EDGE('',*,*,#482,.T.);
#120=ORIENTED_EDGE('',*,*,#483,.T.);
#121=ORIENTED_EDGE('',*,*,#484,.T.);
#122=ORIENTED_EDGE('',*,*,#485,.T.);
#123=ORIENTED_EDGE('',*,*,#486,.T.);
#124=ORIENTED_EDGE('',*,*,#487,.T.);
#125=ORIENTED_EDGE('',*,*,#488,.T.);
#126=ORIENTED_EDGE('',*,*,#489,.T.);
#127=ORIENTED_EDGE('',*,*,#490,.T.);
#128=ORIENTED_EDGE('',*,*,#491,.T.);
#129=ORIENTED_EDGE('',*,*,#492,.T.);
#130=ORIENTED_EDGE('',*,*,#493,.F.);
#131=ORIENTED_EDGE('',*,*,#494,.F.);
#132=ORIENTED_EDGE('',*,*,#495,.T.);
#133=ORIENTED_EDGE('',*,*,#496,.T.);
#134=ORIENTED_EDGE('',*,*,#497,.F.);
#135=ORIENTED_EDGE('',*,*,#498,.F.);
#136=ORIENTED_EDGE('',*,*,#499,.F.);
#137=ORIENTED_EDGE('',*,*,#500,.T.);
#138=ORIENTED_EDGE('',*,*,#501,.T.);
#139=ORIENTED_EDGE('',*,*,#502,.F.);
#140=ORIENTED_EDGE('',*,*,#503,.F.);
#141=ORIENTED_EDGE('',*,*,#504,.T.);
#142=ORIENTED_EDGE('',*,*,#505,.F.);
#143=ORIENTED_EDGE('',*,*,#506,.T.);
#144=ORIENTED_EDGE('',*,*,#499,.T.);
#145=ORIENTED_EDGE('',*,*,#458,.F.);
#146=ORIENTED_EDGE('',*,*,#507,.F.);
#147=ORIENTED_EDGE('',*,*,#508,.T.);
#148=ORIENTED_EDGE('',*,*,#505,.T.);
#149=ORIENTED_EDGE('',*,*,#482,.F.);
#150=ORIENTED_EDGE('',*,*,#501,.F.);
#151=ORIENTED_EDGE('',*,*,#509,.T.);
#152=ORIENTED_EDGE('',*,*,#507,.T.);
#153=ORIENTED_EDGE('',*,*,#481,.F.);
#154=ORIENTED_EDGE('',*,*,#510,.T.);
#155=ORIENTED_EDGE('',*,*,#511,.T.);
#156=ORIENTED_EDGE('',*,*,#477,.T.);
#157=ORIENTED_EDGE('',*,*,#512,.F.);
#158=ORIENTED_EDGE('',*,*,#513,.T.);
#159=ORIENTED_EDGE('',*,*,#514,.F.);
#160=ORIENTED_EDGE('',*,*,#515,.F.);
#161=ORIENTED_EDGE('',*,*,#516,.F.);
#162=ORIENTED_EDGE('',*,*,#517,.F.);
#163=ORIENTED_EDGE('',*,*,#518,.F.);
#164=ORIENTED_EDGE('',*,*,#519,.F.);
#165=ORIENTED_EDGE('',*,*,#520,.T.);
#166=ORIENTED_EDGE('',*,*,#521,.F.);
#167=ORIENTED_EDGE('',*,*,#522,.T.);
#168=ORIENTED_EDGE('',*,*,#523,.F.);
#169=ORIENTED_EDGE('',*,*,#524,.T.);
#170=ORIENTED_EDGE('',*,*,#510,.F.);
#171=ORIENTED_EDGE('',*,*,#525,.F.);
#172=ORIENTED_EDGE('',*,*,#443,.T.);
#173=ORIENTED_EDGE('',*,*,#526,.F.);
#174=ORIENTED_EDGE('',*,*,#527,.F.);
#175=ORIENTED_EDGE('',*,*,#528,.F.);
#176=ORIENTED_EDGE('',*,*,#529,.T.);
#177=ORIENTED_EDGE('',*,*,#530,.F.);
#178=ORIENTED_EDGE('',*,*,#531,.F.);
#179=ORIENTED_EDGE('',*,*,#532,.T.);
#180=ORIENTED_EDGE('',*,*,#533,.T.);
#181=ORIENTED_EDGE('',*,*,#534,.F.);
#182=ORIENTED_EDGE('',*,*,#535,.F.);
#183=ORIENTED_EDGE('',*,*,#531,.T.);
#184=ORIENTED_EDGE('',*,*,#536,.T.);
#185=ORIENTED_EDGE('',*,*,#537,.F.);
#186=ORIENTED_EDGE('',*,*,#538,.F.);
#187=ORIENTED_EDGE('',*,*,#534,.T.);
#188=ORIENTED_EDGE('',*,*,#537,.T.);
#189=ORIENTED_EDGE('',*,*,#539,.F.);
#190=ORIENTED_EDGE('',*,*,#529,.F.);
#191=ORIENTED_EDGE('',*,*,#540,.T.);
#192=ORIENTED_EDGE('',*,*,#494,.T.);
#193=ORIENTED_EDGE('',*,*,#541,.F.);
#194=ORIENTED_EDGE('',*,*,#519,.T.);
#195=ORIENTED_EDGE('',*,*,#542,.T.);
#196=ORIENTED_EDGE('',*,*,#532,.F.);
#197=ORIENTED_EDGE('',*,*,#535,.T.);
#198=ORIENTED_EDGE('',*,*,#538,.T.);
#199=ORIENTED_EDGE('',*,*,#540,.F.);
#200=ORIENTED_EDGE('',*,*,#543,.F.);
#201=ORIENTED_EDGE('',*,*,#527,.T.);
#202=ORIENTED_EDGE('',*,*,#544,.T.);
#203=ORIENTED_EDGE('',*,*,#545,.T.);
#204=ORIENTED_EDGE('',*,*,#546,.T.);
#205=ORIENTED_EDGE('',*,*,#462,.T.);
#206=ORIENTED_EDGE('',*,*,#525,.T.);
#207=ORIENTED_EDGE('',*,*,#514,.T.);
#208=ORIENTED_EDGE('',*,*,#547,.T.);
#209=ORIENTED_EDGE('',*,*,#548,.T.);
#210=ORIENTED_EDGE('',*,*,#473,.T.);
#211=ORIENTED_EDGE('',*,*,#549,.F.);
#212=ORIENTED_EDGE('',*,*,#550,.T.);
#213=ORIENTED_EDGE('',*,*,#444,.F.);
#214=ORIENTED_EDGE('',*,*,#446,.F.);
#215=ORIENTED_EDGE('',*,*,#551,.F.);
#216=ORIENTED_EDGE('',*,*,#552,.T.);
#217=ORIENTED_EDGE('',*,*,#470,.T.);
#218=ORIENTED_EDGE('',*,*,#553,.F.);
#219=ORIENTED_EDGE('',*,*,#551,.T.);
#220=ORIENTED_EDGE('',*,*,#445,.T.);
#221=ORIENTED_EDGE('',*,*,#550,.F.);
#222=ORIENTED_EDGE('',*,*,#554,.F.);
#223=ORIENTED_EDGE('',*,*,#555,.T.);
#224=ORIENTED_EDGE('',*,*,#556,.T.);
#225=ORIENTED_EDGE('',*,*,#448,.T.);
#226=ORIENTED_EDGE('',*,*,#469,.F.);
#227=ORIENTED_EDGE('',*,*,#557,.F.);
#228=ORIENTED_EDGE('',*,*,#558,.F.);
#229=ORIENTED_EDGE('',*,*,#449,.T.);
#230=ORIENTED_EDGE('',*,*,#556,.F.);
#231=ORIENTED_EDGE('',*,*,#559,.T.);
#232=ORIENTED_EDGE('',*,*,#560,.T.);
#233=ORIENTED_EDGE('',*,*,#561,.F.);
#234=ORIENTED_EDGE('',*,*,#491,.F.);
#235=ORIENTED_EDGE('',*,*,#542,.F.);
#236=ORIENTED_EDGE('',*,*,#522,.F.);
#237=ORIENTED_EDGE('',*,*,#562,.T.);
#238=ORIENTED_EDGE('',*,*,#493,.T.);
#239=ORIENTED_EDGE('',*,*,#563,.F.);
#240=ORIENTED_EDGE('',*,*,#520,.F.);
#241=ORIENTED_EDGE('',*,*,#541,.T.);
#242=ORIENTED_EDGE('',*,*,#490,.F.);
#243=ORIENTED_EDGE('',*,*,#553,.T.);
#244=ORIENTED_EDGE('',*,*,#489,.F.);
#245=ORIENTED_EDGE('',*,*,#564,.T.);
#246=ORIENTED_EDGE('',*,*,#488,.F.);
#247=ORIENTED_EDGE('',*,*,#565,.T.);
#248=ORIENTED_EDGE('',*,*,#487,.F.);
#249=ORIENTED_EDGE('',*,*,#561,.T.);
#250=ORIENTED_EDGE('',*,*,#566,.F.);
#251=ORIENTED_EDGE('',*,*,#567,.T.);
#252=ORIENTED_EDGE('',*,*,#568,.F.);
#253=ORIENTED_EDGE('',*,*,#569,.F.);
#254=ORIENTED_EDGE('',*,*,#570,.F.);
#255=ORIENTED_EDGE('',*,*,#571,.F.);
#256=ORIENTED_EDGE('',*,*,#572,.F.);
#257=ORIENTED_EDGE('',*,*,#573,.F.);
#258=ORIENTED_EDGE('',*,*,#492,.F.);
#259=ORIENTED_EDGE('',*,*,#562,.F.);
#260=ORIENTED_EDGE('',*,*,#521,.T.);
#261=ORIENTED_EDGE('',*,*,#563,.T.);
#262=ORIENTED_EDGE('',*,*,#512,.T.);
#263=ORIENTED_EDGE('',*,*,#476,.F.);
#264=ORIENTED_EDGE('',*,*,#574,.F.);
#265=ORIENTED_EDGE('',*,*,#575,.T.);
#266=ORIENTED_EDGE('',*,*,#475,.T.);
#267=ORIENTED_EDGE('',*,*,#576,.F.);
#268=ORIENTED_EDGE('',*,*,#577,.F.);
#269=ORIENTED_EDGE('',*,*,#574,.T.);
#270=ORIENTED_EDGE('',*,*,#474,.T.);
#271=ORIENTED_EDGE('',*,*,#548,.F.);
#272=ORIENTED_EDGE('',*,*,#578,.F.);
#273=ORIENTED_EDGE('',*,*,#576,.T.);
#274=ORIENTED_EDGE('',*,*,#513,.F.);
#275=ORIENTED_EDGE('',*,*,#575,.F.);
#276=ORIENTED_EDGE('',*,*,#577,.T.);
#277=ORIENTED_EDGE('',*,*,#578,.T.);
#278=ORIENTED_EDGE('',*,*,#547,.F.);
#279=ORIENTED_EDGE('',*,*,#564,.F.);
#280=ORIENTED_EDGE('',*,*,#549,.T.);
#281=ORIENTED_EDGE('',*,*,#472,.F.);
#282=ORIENTED_EDGE('',*,*,#579,.F.);
#283=ORIENTED_EDGE('',*,*,#554,.T.);
#284=ORIENTED_EDGE('',*,*,#471,.T.);
#285=ORIENTED_EDGE('',*,*,#552,.F.);
#286=ORIENTED_EDGE('',*,*,#555,.F.);
#287=ORIENTED_EDGE('',*,*,#579,.T.);
#288=ORIENTED_EDGE('',*,*,#468,.T.);
#289=ORIENTED_EDGE('',*,*,#580,.F.);
#290=ORIENTED_EDGE('',*,*,#559,.F.);
#291=ORIENTED_EDGE('',*,*,#557,.T.);
#292=ORIENTED_EDGE('',*,*,#467,.T.);
#293=ORIENTED_EDGE('',*,*,#581,.F.);
#294=ORIENTED_EDGE('',*,*,#560,.F.);
#295=ORIENTED_EDGE('',*,*,#580,.T.);
#296=ORIENTED_EDGE('',*,*,#464,.T.);
#297=ORIENTED_EDGE('',*,*,#582,.F.);
#298=ORIENTED_EDGE('',*,*,#583,.F.);
#299=ORIENTED_EDGE('',*,*,#584,.T.);
#300=ORIENTED_EDGE('',*,*,#463,.T.);
#301=ORIENTED_EDGE('',*,*,#546,.F.);
#302=ORIENTED_EDGE('',*,*,#585,.F.);
#303=ORIENTED_EDGE('',*,*,#582,.T.);
#304=ORIENTED_EDGE('',*,*,#586,.T.);
#305=ORIENTED_EDGE('',*,*,#465,.F.);
#306=ORIENTED_EDGE('',*,*,#584,.F.);
#307=ORIENTED_EDGE('',*,*,#587,.T.);
#308=ORIENTED_EDGE('',*,*,#545,.F.);
#309=ORIENTED_EDGE('',*,*,#588,.F.);
#310=ORIENTED_EDGE('',*,*,#587,.F.);
#311=ORIENTED_EDGE('',*,*,#583,.T.);
#312=ORIENTED_EDGE('',*,*,#585,.T.);
#313=ORIENTED_EDGE('',*,*,#565,.F.);
#314=ORIENTED_EDGE('',*,*,#544,.F.);
#315=ORIENTED_EDGE('',*,*,#526,.T.);
#316=ORIENTED_EDGE('',*,*,#442,.T.);
#317=ORIENTED_EDGE('',*,*,#558,.T.);
#318=ORIENTED_EDGE('',*,*,#581,.T.);
#319=ORIENTED_EDGE('',*,*,#466,.T.);
#320=ORIENTED_EDGE('',*,*,#586,.F.);
#321=ORIENTED_EDGE('',*,*,#588,.T.);
#322=ORIENTED_EDGE('',*,*,#589,.T.);
#323=ORIENTED_EDGE('',*,*,#518,.T.);
#324=ORIENTED_EDGE('',*,*,#590,.T.);
#325=ORIENTED_EDGE('',*,*,#517,.T.);
#326=ORIENTED_EDGE('',*,*,#591,.T.);
#327=ORIENTED_EDGE('',*,*,#516,.T.);
#328=ORIENTED_EDGE('',*,*,#592,.T.);
#329=ORIENTED_EDGE('',*,*,#515,.T.);
#330=ORIENTED_EDGE('',*,*,#593,.F.);
#331=ORIENTED_EDGE('',*,*,#592,.F.);
#332=ORIENTED_EDGE('',*,*,#593,.T.);
#333=ORIENTED_EDGE('',*,*,#484,.F.);
#334=ORIENTED_EDGE('',*,*,#594,.F.);
#335=ORIENTED_EDGE('',*,*,#591,.F.);
#336=ORIENTED_EDGE('',*,*,#594,.T.);
#337=ORIENTED_EDGE('',*,*,#483,.F.);
#338=ORIENTED_EDGE('',*,*,#595,.F.);
#339=ORIENTED_EDGE('',*,*,#590,.F.);
#340=ORIENTED_EDGE('',*,*,#595,.T.);
#341=ORIENTED_EDGE('',*,*,#486,.F.);
#342=ORIENTED_EDGE('',*,*,#596,.F.);
#343=ORIENTED_EDGE('',*,*,#589,.F.);
#344=ORIENTED_EDGE('',*,*,#596,.T.);
#345=ORIENTED_EDGE('',*,*,#485,.F.);
#346=ORIENTED_EDGE('',*,*,#543,.T.);
#347=ORIENTED_EDGE('',*,*,#461,.F.);
#348=ORIENTED_EDGE('',*,*,#597,.F.);
#349=ORIENTED_EDGE('',*,*,#528,.T.);
#350=ORIENTED_EDGE('',*,*,#511,.F.);
#351=ORIENTED_EDGE('',*,*,#524,.F.);
#352=ORIENTED_EDGE('',*,*,#598,.T.);
#353=ORIENTED_EDGE('',*,*,#478,.T.);
#354=ORIENTED_EDGE('',*,*,#599,.F.);
#355=ORIENTED_EDGE('',*,*,#600,.T.);
#356=ORIENTED_EDGE('',*,*,#601,.T.);
#357=ORIENTED_EDGE('',*,*,#479,.T.);
#358=ORIENTED_EDGE('',*,*,#598,.F.);
#359=ORIENTED_EDGE('',*,*,#523,.T.);
#360=ORIENTED_EDGE('',*,*,#597,.T.);
#361=ORIENTED_EDGE('',*,*,#460,.T.);
#362=ORIENTED_EDGE('',*,*,#602,.F.);
#363=ORIENTED_EDGE('',*,*,#603,.F.);
#364=ORIENTED_EDGE('',*,*,#533,.F.);
#365=ORIENTED_EDGE('',*,*,#530,.T.);
#366=ORIENTED_EDGE('',*,*,#539,.T.);
#367=ORIENTED_EDGE('',*,*,#536,.F.);
#368=ORIENTED_EDGE('',*,*,#604,.F.);
#369=ORIENTED_EDGE('',*,*,#603,.T.);
#370=ORIENTED_EDGE('',*,*,#604,.T.);
#371=ORIENTED_EDGE('',*,*,#605,.F.);
#372=ORIENTED_EDGE('',*,*,#602,.T.);
#373=ORIENTED_EDGE('',*,*,#605,.T.);
#374=ORIENTED_EDGE('',*,*,#495,.F.);
#375=ORIENTED_EDGE('',*,*,#606,.F.);
#376=ORIENTED_EDGE('',*,*,#607,.T.);
#377=ORIENTED_EDGE('',*,*,#608,.T.);
#378=ORIENTED_EDGE('',*,*,#498,.T.);
#379=ORIENTED_EDGE('',*,*,#609,.F.);
#380=ORIENTED_EDGE('',*,*,#610,.F.);
#381=ORIENTED_EDGE('',*,*,#606,.T.);
#382=ORIENTED_EDGE('',*,*,#497,.T.);
#383=ORIENTED_EDGE('',*,*,#611,.F.);
#384=ORIENTED_EDGE('',*,*,#612,.F.);
#385=ORIENTED_EDGE('',*,*,#609,.T.);
#386=ORIENTED_EDGE('',*,*,#496,.F.);
#387=ORIENTED_EDGE('',*,*,#608,.F.);
#388=ORIENTED_EDGE('',*,*,#613,.T.);
#389=ORIENTED_EDGE('',*,*,#611,.T.);
#390=ORIENTED_EDGE('',*,*,#500,.F.);
#391=ORIENTED_EDGE('',*,*,#506,.F.);
#392=ORIENTED_EDGE('',*,*,#508,.F.);
#393=ORIENTED_EDGE('',*,*,#509,.F.);
#394=ORIENTED_EDGE('',*,*,#607,.F.);
#395=ORIENTED_EDGE('',*,*,#610,.T.);
#396=ORIENTED_EDGE('',*,*,#612,.T.);
#397=ORIENTED_EDGE('',*,*,#613,.F.);
#398=ORIENTED_EDGE('',*,*,#480,.T.);
#399=ORIENTED_EDGE('',*,*,#601,.F.);
#400=ORIENTED_EDGE('',*,*,#614,.F.);
#401=ORIENTED_EDGE('',*,*,#502,.T.);
#402=ORIENTED_EDGE('',*,*,#459,.F.);
#403=ORIENTED_EDGE('',*,*,#504,.F.);
#404=ORIENTED_EDGE('',*,*,#615,.T.);
#405=ORIENTED_EDGE('',*,*,#599,.T.);
#406=ORIENTED_EDGE('',*,*,#503,.T.);
#407=ORIENTED_EDGE('',*,*,#614,.T.);
#408=ORIENTED_EDGE('',*,*,#600,.F.);
#409=ORIENTED_EDGE('',*,*,#615,.F.);
#410=ORIENTED_EDGE('',*,*,#450,.T.);
#411=ORIENTED_EDGE('',*,*,#616,.T.);
#412=ORIENTED_EDGE('',*,*,#567,.F.);
#413=ORIENTED_EDGE('',*,*,#617,.F.);
#414=ORIENTED_EDGE('',*,*,#617,.T.);
#415=ORIENTED_EDGE('',*,*,#566,.T.);
#416=ORIENTED_EDGE('',*,*,#618,.F.);
#417=ORIENTED_EDGE('',*,*,#451,.F.);
#418=ORIENTED_EDGE('',*,*,#618,.T.);
#419=ORIENTED_EDGE('',*,*,#573,.T.);
#420=ORIENTED_EDGE('',*,*,#619,.F.);
#421=ORIENTED_EDGE('',*,*,#452,.F.);
#422=ORIENTED_EDGE('',*,*,#619,.T.);
#423=ORIENTED_EDGE('',*,*,#572,.T.);
#424=ORIENTED_EDGE('',*,*,#620,.F.);
#425=ORIENTED_EDGE('',*,*,#453,.F.);
#426=ORIENTED_EDGE('',*,*,#620,.T.);
#427=ORIENTED_EDGE('',*,*,#571,.T.);
#428=ORIENTED_EDGE('',*,*,#621,.F.);
#429=ORIENTED_EDGE('',*,*,#454,.F.);
#430=ORIENTED_EDGE('',*,*,#621,.T.);
#431=ORIENTED_EDGE('',*,*,#570,.T.);
#432=ORIENTED_EDGE('',*,*,#622,.F.);
#433=ORIENTED_EDGE('',*,*,#455,.F.);
#434=ORIENTED_EDGE('',*,*,#622,.T.);
#435=ORIENTED_EDGE('',*,*,#569,.T.);
#436=ORIENTED_EDGE('',*,*,#623,.F.);
#437=ORIENTED_EDGE('',*,*,#456,.F.);
#438=ORIENTED_EDGE('',*,*,#623,.T.);
#439=ORIENTED_EDGE('',*,*,#568,.T.);
#440=ORIENTED_EDGE('',*,*,#616,.F.);
#441=ORIENTED_EDGE('',*,*,#457,.F.);
#442=EDGE_CURVE('',#624,#625,#754,.T.);
#443=EDGE_CURVE('',#626,#624,#755,.T.);
#444=EDGE_CURVE('',#626,#627,#756,.T.);
#445=EDGE_CURVE('',#628,#627,#757,.T.);
#446=EDGE_CURVE('',#628,#629,#758,.T.);
#447=EDGE_CURVE('',#630,#629,#759,.T.);
#448=EDGE_CURVE('',#631,#630,#760,.T.);
#449=EDGE_CURVE('',#625,#631,#761,.T.);
#450=EDGE_CURVE('',#632,#633,#762,.T.);
#451=EDGE_CURVE('',#632,#634,#34,.T.);
#452=EDGE_CURVE('',#634,#635,#763,.T.);
#453=EDGE_CURVE('',#635,#636,#35,.T.);
#454=EDGE_CURVE('',#636,#637,#764,.T.);
#455=EDGE_CURVE('',#637,#638,#36,.T.);
#456=EDGE_CURVE('',#638,#639,#765,.T.);
#457=EDGE_CURVE('',#639,#633,#37,.T.);
#458=EDGE_CURVE('',#640,#641,#766,.T.);
#459=EDGE_CURVE('',#641,#642,#767,.T.);
#460=EDGE_CURVE('',#643,#642,#768,.T.);
#461=EDGE_CURVE('',#643,#644,#769,.T.);
#462=EDGE_CURVE('',#645,#644,#770,.T.);
#463=EDGE_CURVE('',#646,#645,#771,.T.);
#464=EDGE_CURVE('',#647,#646,#38,.T.);
#465=EDGE_CURVE('',#647,#648,#772,.T.);
#466=EDGE_CURVE('',#649,#648,#773,.T.);
#467=EDGE_CURVE('',#650,#649,#774,.T.);
#468=EDGE_CURVE('',#651,#650,#39,.T.);
#469=EDGE_CURVE('',#651,#630,#775,.T.);
#470=EDGE_CURVE('',#652,#629,#776,.T.);
#471=EDGE_CURVE('',#653,#652,#40,.T.);
#472=EDGE_CURVE('',#653,#654,#777,.T.);
#473=EDGE_CURVE('',#655,#654,#778,.T.);
#474=EDGE_CURVE('',#656,#655,#779,.T.);
#475=EDGE_CURVE('',#657,#656,#41,.T.);
#476=EDGE_CURVE('',#657,#658,#780,.T.);
#477=EDGE_CURVE('',#659,#658,#781,.T.);
#478=EDGE_CURVE('',#660,#659,#782,.T.);
#479=EDGE_CURVE('',#661,#660,#783,.T.);
#480=EDGE_CURVE('',#662,#661,#784,.T.);
#481=EDGE_CURVE('',#662,#663,#785,.T.);
#482=EDGE_CURVE('',#663,#640,#786,.T.);
#483=EDGE_CURVE('',#664,#664,#42,.T.);
#484=EDGE_CURVE('',#665,#665,#43,.T.);
#485=EDGE_CURVE('',#666,#666,#44,.T.);
#486=EDGE_CURVE('',#667,#667,#45,.T.);
#487=EDGE_CURVE('',#668,#668,#46,.T.);
#488=EDGE_CURVE('',#669,#669,#47,.T.);
#489=EDGE_CURVE('',#670,#670,#48,.T.);
#490=EDGE_CURVE('',#671,#671,#49,.T.);
#491=EDGE_CURVE('',#672,#673,#787,.T.);
#492=EDGE_CURVE('',#673,#674,#788,.T.);
#493=EDGE_CURVE('',#675,#674,#789,.T.);
#494=EDGE_CURVE('',#672,#675,#790,.T.);
#495=EDGE_CURVE('',#676,#677,#791,.T.);
#496=EDGE_CURVE('',#677,#678,#792,.T.);
#497=EDGE_CURVE('',#679,#678,#793,.T.);
#498=EDGE_CURVE('',#676,#679,#794,.T.);
#499=EDGE_CURVE('',#680,#641,#795,.T.);
#500=EDGE_CURVE('',#680,#681,#796,.T.);
#501=EDGE_CURVE('',#681,#662,#797,.T.);
#502=EDGE_CURVE('',#682,#662,#798,.T.);
#503=EDGE_CURVE('',#683,#682,#799,.T.);
#504=EDGE_CURVE('',#683,#641,#800,.T.);
#505=EDGE_CURVE('',#684,#640,#801,.T.);
#506=EDGE_CURVE('',#684,#680,#802,.T.);
#507=EDGE_CURVE('',#685,#663,#803,.T.);
#508=EDGE_CURVE('',#685,#684,#804,.T.);
#509=EDGE_CURVE('',#681,#685,#805,.T.);
#510=EDGE_CURVE('',#686,#687,#806,.T.);
#511=EDGE_CURVE('',#687,#659,#807,.T.);
#512=EDGE_CURVE('',#688,#658,#808,.T.);
#513=EDGE_CURVE('',#688,#689,#809,.T.);
#514=EDGE_CURVE('',#686,#689,#810,.T.);
#515=EDGE_CURVE('',#690,#690,#50,.T.);
#516=EDGE_CURVE('',#691,#691,#51,.T.);
#517=EDGE_CURVE('',#692,#692,#52,.T.);
#518=EDGE_CURVE('',#693,#693,#53,.T.);
#519=EDGE_CURVE('',#694,#695,#811,.T.);
#520=EDGE_CURVE('',#694,#696,#812,.T.);
#521=EDGE_CURVE('',#697,#696,#813,.T.);
#522=EDGE_CURVE('',#697,#695,#814,.T.);
#523=EDGE_CURVE('',#698,#699,#815,.T.);
#524=EDGE_CURVE('',#698,#687,#816,.T.);
#525=EDGE_CURVE('',#626,#686,#817,.T.);
#526=EDGE_CURVE('',#700,#624,#818,.T.);
#527=EDGE_CURVE('',#701,#700,#819,.T.);
#528=EDGE_CURVE('',#699,#701,#820,.T.);
#529=EDGE_CURVE('',#702,#703,#821,.T.);
#530=EDGE_CURVE('',#704,#703,#822,.T.);
#531=EDGE_CURVE('',#705,#704,#823,.T.);
#532=EDGE_CURVE('',#705,#702,#824,.T.);
#533=EDGE_CURVE('',#704,#706,#825,.T.);
#534=EDGE_CURVE('',#707,#706,#826,.T.);
#535=EDGE_CURVE('',#705,#707,#827,.T.);
#536=EDGE_CURVE('',#706,#708,#828,.T.);
#537=EDGE_CURVE('',#709,#708,#829,.T.);
#538=EDGE_CURVE('',#707,#709,#830,.T.);
#539=EDGE_CURVE('',#703,#708,#831,.T.);
#540=EDGE_CURVE('',#702,#709,#832,.T.);
#541=EDGE_CURVE('',#694,#675,#833,.T.);
#542=EDGE_CURVE('',#695,#672,#834,.T.);
#543=EDGE_CURVE('',#701,#644,#835,.T.);
#544=EDGE_CURVE('',#700,#710,#836,.T.);
#545=EDGE_CURVE('',#710,#711,#837,.T.);
#546=EDGE_CURVE('',#711,#645,#838,.T.);
#547=EDGE_CURVE('',#689,#712,#839,.T.);
#548=EDGE_CURVE('',#712,#655,#840,.T.);
#549=EDGE_CURVE('',#713,#654,#841,.T.);
#550=EDGE_CURVE('',#713,#627,#842,.T.);
#551=EDGE_CURVE('',#714,#628,#843,.T.);
#552=EDGE_CURVE('',#714,#652,#844,.T.);
#553=EDGE_CURVE('',#715,#715,#54,.T.);
#554=EDGE_CURVE('',#716,#713,#845,.T.);
#555=EDGE_CURVE('',#716,#714,#55,.T.);
#556=EDGE_CURVE('',#717,#631,#846,.T.);
#557=EDGE_CURVE('',#717,#651,#847,.T.);
#558=EDGE_CURVE('',#625,#718,#848,.T.);
#559=EDGE_CURVE('',#717,#719,#56,.T.);
#560=EDGE_CURVE('',#719,#718,#849,.T.);
#561=EDGE_CURVE('',#720,#720,#57,.T.);
#562=EDGE_CURVE('',#697,#673,#850,.T.);
#563=EDGE_CURVE('',#696,#674,#851,.T.);
#564=EDGE_CURVE('',#721,#721,#58,.T.);
#565=EDGE_CURVE('',#722,#722,#59,.T.);
#566=EDGE_CURVE('',#723,#724,#60,.T.);
#567=EDGE_CURVE('',#723,#725,#852,.T.);
#568=EDGE_CURVE('',#726,#725,#61,.T.);
#569=EDGE_CURVE('',#727,#726,#853,.T.);
#570=EDGE_CURVE('',#728,#727,#62,.T.);
#571=EDGE_CURVE('',#729,#728,#854,.T.);
#572=EDGE_CURVE('',#730,#729,#63,.T.);
#573=EDGE_CURVE('',#724,#730,#855,.T.);
#574=EDGE_CURVE('',#731,#657,#856,.T.);
#575=EDGE_CURVE('',#731,#688,#857,.T.);
#576=EDGE_CURVE('',#732,#656,#858,.T.);
#577=EDGE_CURVE('',#731,#732,#64,.T.);
#578=EDGE_CURVE('',#732,#712,#859,.T.);
#579=EDGE_CURVE('',#716,#653,#860,.T.);
#580=EDGE_CURVE('',#719,#650,#861,.T.);
#581=EDGE_CURVE('',#718,#649,#862,.T.);
#582=EDGE_CURVE('',#733,#646,#863,.T.);
#583=EDGE_CURVE('',#734,#733,#65,.T.);
#584=EDGE_CURVE('',#734,#647,#864,.T.);
#585=EDGE_CURVE('',#733,#711,#865,.T.);
#586=EDGE_CURVE('',#735,#648,#866,.T.);
#587=EDGE_CURVE('',#734,#735,#867,.T.);
#588=EDGE_CURVE('',#735,#710,#868,.T.);
#589=EDGE_CURVE('',#736,#736,#66,.F.);
#590=EDGE_CURVE('',#737,#737,#67,.F.);
#591=EDGE_CURVE('',#738,#738,#68,.F.);
#592=EDGE_CURVE('',#739,#739,#69,.F.);
#593=EDGE_CURVE('',#740,#740,#70,.T.);
#594=EDGE_CURVE('',#741,#741,#71,.T.);
#595=EDGE_CURVE('',#742,#742,#72,.T.);
#596=EDGE_CURVE('',#743,#743,#73,.T.);
#597=EDGE_CURVE('',#699,#643,#869,.T.);
#598=EDGE_CURVE('',#698,#660,#870,.T.);
#599=EDGE_CURVE('',#744,#642,#871,.T.);
#600=EDGE_CURVE('',#744,#745,#872,.T.);
#601=EDGE_CURVE('',#745,#661,#873,.T.);
#602=EDGE_CURVE('',#746,#746,#74,.T.);
#603=EDGE_CURVE('',#747,#747,#75,.T.);
#604=EDGE_CURVE('',#748,#748,#76,.T.);
#605=EDGE_CURVE('',#749,#749,#77,.T.);
#606=EDGE_CURVE('',#750,#676,#874,.T.);
#607=EDGE_CURVE('',#750,#751,#875,.T.);
#608=EDGE_CURVE('',#751,#677,#876,.T.);
#609=EDGE_CURVE('',#752,#679,#877,.T.);
#610=EDGE_CURVE('',#750,#752,#878,.T.);
#611=EDGE_CURVE('',#753,#678,#879,.T.);
#612=EDGE_CURVE('',#752,#753,#880,.T.);
#613=EDGE_CURVE('',#751,#753,#881,.T.);
#614=EDGE_CURVE('',#682,#745,#882,.T.);
#615=EDGE_CURVE('',#683,#744,#883,.T.);
#616=EDGE_CURVE('',#633,#725,#884,.T.);
#617=EDGE_CURVE('',#632,#723,#885,.T.);
#618=EDGE_CURVE('',#634,#724,#886,.T.);
#619=EDGE_CURVE('',#635,#730,#887,.T.);
#620=EDGE_CURVE('',#636,#729,#888,.T.);
#621=EDGE_CURVE('',#637,#728,#889,.T.);
#622=EDGE_CURVE('',#638,#727,#890,.T.);
#623=EDGE_CURVE('',#639,#726,#891,.T.);
#624=VERTEX_POINT('',#1907);
#625=VERTEX_POINT('',#1908);
#626=VERTEX_POINT('',#1910);
#627=VERTEX_POINT('',#1912);
#628=VERTEX_POINT('',#1914);
#629=VERTEX_POINT('',#1916);
#630=VERTEX_POINT('',#1918);
#631=VERTEX_POINT('',#1920);
#632=VERTEX_POINT('',#1923);
#633=VERTEX_POINT('',#1924);
#634=VERTEX_POINT('',#1926);
#635=VERTEX_POINT('',#1928);
#636=VERTEX_POINT('',#1930);
#637=VERTEX_POINT('',#1932);
#638=VERTEX_POINT('',#1934);
#639=VERTEX_POINT('',#1936);
#640=VERTEX_POINT('',#1940);
#641=VERTEX_POINT('',#1941);
#642=VERTEX_POINT('',#1943);
#643=VERTEX_POINT('',#1945);
#644=VERTEX_POINT('',#1947);
#645=VERTEX_POINT('',#1949);
#646=VERTEX_POINT('',#1951);
#647=VERTEX_POINT('',#1953);
#648=VERTEX_POINT('',#1955);
#649=VERTEX_POINT('',#1957);
#650=VERTEX_POINT('',#1959);
#651=VERTEX_POINT('',#1961);
#652=VERTEX_POINT('',#1964);
#653=VERTEX_POINT('',#1966);
#654=VERTEX_POINT('',#1968);
#655=VERTEX_POINT('',#1970);
#656=VERTEX_POINT('',#1972);
#657=VERTEX_POINT('',#1974);
#658=VERTEX_POINT('',#1976);
#659=VERTEX_POINT('',#1978);
#660=VERTEX_POINT('',#1980);
#661=VERTEX_POINT('',#1982);
#662=VERTEX_POINT('',#1984);
#663=VERTEX_POINT('',#1986);
#664=VERTEX_POINT('',#1990);
#665=VERTEX_POINT('',#1992);
#666=VERTEX_POINT('',#1994);
#667=VERTEX_POINT('',#1996);
#668=VERTEX_POINT('',#1998);
#669=VERTEX_POINT('',#2000);
#670=VERTEX_POINT('',#2002);
#671=VERTEX_POINT('',#2004);
#672=VERTEX_POINT('',#2006);
#673=VERTEX_POINT('',#2007);
#674=VERTEX_POINT('',#2009);
#675=VERTEX_POINT('',#2011);
#676=VERTEX_POINT('',#2014);
#677=VERTEX_POINT('',#2015);
#678=VERTEX_POINT('',#2017);
#679=VERTEX_POINT('',#2019);
#680=VERTEX_POINT('',#2023);
#681=VERTEX_POINT('',#2025);
#682=VERTEX_POINT('',#2028);
#683=VERTEX_POINT('',#2030);
#684=VERTEX_POINT('',#2034);
#685=VERTEX_POINT('',#2038);
#686=VERTEX_POINT('',#2044);
#687=VERTEX_POINT('',#2045);
#688=VERTEX_POINT('',#2048);
#689=VERTEX_POINT('',#2050);
#690=VERTEX_POINT('',#2054);
#691=VERTEX_POINT('',#2056);
#692=VERTEX_POINT('',#2058);
#693=VERTEX_POINT('',#2060);
#694=VERTEX_POINT('',#2062);
#695=VERTEX_POINT('',#2063);
#696=VERTEX_POINT('',#2065);
#697=VERTEX_POINT('',#2067);
#698=VERTEX_POINT('',#2070);
#699=VERTEX_POINT('',#2071);
#700=VERTEX_POINT('',#2075);
#701=VERTEX_POINT('',#2077);
#702=VERTEX_POINT('',#2081);
#703=VERTEX_POINT('',#2082);
#704=VERTEX_POINT('',#2084);
#705=VERTEX_POINT('',#2086);
#706=VERTEX_POINT('',#2090);
#707=VERTEX_POINT('',#2092);
#708=VERTEX_POINT('',#2096);
#709=VERTEX_POINT('',#2098);
#710=VERTEX_POINT('',#2109);
#711=VERTEX_POINT('',#2111);
#712=VERTEX_POINT('',#2115);
#713=VERTEX_POINT('',#2118);
#714=VERTEX_POINT('',#2122);
#715=VERTEX_POINT('',#2126);
#716=VERTEX_POINT('',#2128);
#717=VERTEX_POINT('',#2132);
#718=VERTEX_POINT('',#2136);
#719=VERTEX_POINT('',#2138);
#720=VERTEX_POINT('',#2141);
#721=VERTEX_POINT('',#2149);
#722=VERTEX_POINT('',#2152);
#723=VERTEX_POINT('',#2156);
#724=VERTEX_POINT('',#2157);
#725=VERTEX_POINT('',#2159);
#726=VERTEX_POINT('',#2161);
#727=VERTEX_POINT('',#2163);
#728=VERTEX_POINT('',#2165);
#729=VERTEX_POINT('',#2167);
#730=VERTEX_POINT('',#2169);
#731=VERTEX_POINT('',#2173);
#732=VERTEX_POINT('',#2177);
#733=VERTEX_POINT('',#2191);
#734=VERTEX_POINT('',#2193);
#735=VERTEX_POINT('',#2199);
#736=VERTEX_POINT('',#2206);
#737=VERTEX_POINT('',#2209);
#738=VERTEX_POINT('',#2212);
#739=VERTEX_POINT('',#2215);
#740=VERTEX_POINT('',#2218);
#741=VERTEX_POINT('',#2222);
#742=VERTEX_POINT('',#2226);
#743=VERTEX_POINT('',#2230);
#744=VERTEX_POINT('',#2238);
#745=VERTEX_POINT('',#2240);
#746=VERTEX_POINT('',#2243);
#747=VERTEX_POINT('',#2245);
#748=VERTEX_POINT('',#2248);
#749=VERTEX_POINT('',#2252);
#750=VERTEX_POINT('',#2256);
#751=VERTEX_POINT('',#2258);
#752=VERTEX_POINT('',#2262);
#753=VERTEX_POINT('',#2266);
#754=LINE('',#1906,#892);
#755=LINE('',#1909,#893);
#756=LINE('',#1911,#894);
#757=LINE('',#1913,#895);
#758=LINE('',#1915,#896);
#759=LINE('',#1917,#897);
#760=LINE('',#1919,#898);
#761=LINE('',#1921,#899);
#762=LINE('',#1922,#900);
#763=LINE('',#1927,#901);
#764=LINE('',#1931,#902);
#765=LINE('',#1935,#903);
#766=LINE('',#1939,#904);
#767=LINE('',#1942,#905);
#768=LINE('',#1944,#906);
#769=LINE('',#1946,#907);
#770=LINE('',#1948,#908);
#771=LINE('',#1950,#909);
#772=LINE('',#1954,#910);
#773=LINE('',#1956,#911);
#774=LINE('',#1958,#912);
#775=LINE('',#1962,#913);
#776=LINE('',#1963,#914);
#777=LINE('',#1967,#915);
#778=LINE('',#1969,#916);
#779=LINE('',#1971,#917);
#780=LINE('',#1975,#918);
#781=LINE('',#1977,#919);
#782=LINE('',#1979,#920);
#783=LINE('',#1981,#921);
#784=LINE('',#1983,#922);
#785=LINE('',#1985,#923);
#786=LINE('',#1987,#924);
#787=LINE('',#2005,#925);
#788=LINE('',#2008,#926);
#789=LINE('',#2010,#927);
#790=LINE('',#2012,#928);
#791=LINE('',#2013,#929);
#792=LINE('',#2016,#930);
#793=LINE('',#2018,#931);
#794=LINE('',#2020,#932);
#795=LINE('',#2022,#933);
#796=LINE('',#2024,#934);
#797=LINE('',#2026,#935);
#798=LINE('',#2027,#936);
#799=LINE('',#2029,#937);
#800=LINE('',#2031,#938);
#801=LINE('',#2033,#939);
#802=LINE('',#2035,#940);
#803=LINE('',#2037,#941);
#804=LINE('',#2039,#942);
#805=LINE('',#2041,#943);
#806=LINE('',#2043,#944);
#807=LINE('',#2046,#945);
#808=LINE('',#2047,#946);
#809=LINE('',#2049,#947);
#810=LINE('',#2051,#948);
#811=LINE('',#2061,#949);
#812=LINE('',#2064,#950);
#813=LINE('',#2066,#951);
#814=LINE('',#2068,#952);
#815=LINE('',#2069,#953);
#816=LINE('',#2072,#954);
#817=LINE('',#2073,#955);
#818=LINE('',#2074,#956);
#819=LINE('',#2076,#957);
#820=LINE('',#2078,#958);
#821=LINE('',#2080,#959);
#822=LINE('',#2083,#960);
#823=LINE('',#2085,#961);
#824=LINE('',#2087,#962);
#825=LINE('',#2089,#963);
#826=LINE('',#2091,#964);
#827=LINE('',#2093,#965);
#828=LINE('',#2095,#966);
#829=LINE('',#2097,#967);
#830=LINE('',#2099,#968);
#831=LINE('',#2101,#969);
#832=LINE('',#2102,#970);
#833=LINE('',#2104,#971);
#834=LINE('',#2105,#972);
#835=LINE('',#2107,#973);
#836=LINE('',#2108,#974);
#837=LINE('',#2110,#975);
#838=LINE('',#2112,#976);
#839=LINE('',#2114,#977);
#840=LINE('',#2116,#978);
#841=LINE('',#2117,#979);
#842=LINE('',#2119,#980);
#843=LINE('',#2121,#981);
#844=LINE('',#2123,#982);
#845=LINE('',#2127,#983);
#846=LINE('',#2131,#984);
#847=LINE('',#2133,#985);
#848=LINE('',#2135,#986);
#849=LINE('',#2139,#987);
#850=LINE('',#2143,#988);
#851=LINE('',#2145,#989);
#852=LINE('',#2158,#990);
#853=LINE('',#2162,#991);
#854=LINE('',#2166,#992);
#855=LINE('',#2170,#993);
#856=LINE('',#2172,#994);
#857=LINE('',#2174,#995);
#858=LINE('',#2176,#996);
#859=LINE('',#2180,#997);
#860=LINE('',#2183,#998);
#861=LINE('',#2186,#999);
#862=LINE('',#2188,#1000);
#863=LINE('',#2190,#1001);
#864=LINE('',#2194,#1002);
#865=LINE('',#2196,#1003);
#866=LINE('',#2198,#1004);
#867=LINE('',#2200,#1005);
#868=LINE('',#2202,#1006);
#869=LINE('',#2233,#1007);
#870=LINE('',#2235,#1008);
#871=LINE('',#2237,#1009);
#872=LINE('',#2239,#1010);
#873=LINE('',#2241,#1011);
#874=LINE('',#2255,#1012);
#875=LINE('',#2257,#1013);
#876=LINE('',#2259,#1014);
#877=LINE('',#2261,#1015);
#878=LINE('',#2263,#1016);
#879=LINE('',#2265,#1017);
#880=LINE('',#2267,#1018);
#881=LINE('',#2269,#1019);
#882=LINE('',#2272,#1020);
#883=LINE('',#2274,#1021);
#884=LINE('',#2277,#1022);
#885=LINE('',#2278,#1023);
#886=LINE('',#2280,#1024);
#887=LINE('',#2282,#1025);
#888=LINE('',#2284,#1026);
#889=LINE('',#2286,#1027);
#890=LINE('',#2288,#1028);
#891=LINE('',#2290,#1029);
#892=VECTOR('',#1530,1.);
#893=VECTOR('',#1531,1.);
#894=VECTOR('',#1532,1.);
#895=VECTOR('',#1533,1.);
#896=VECTOR('',#1534,1.);
#897=VECTOR('',#1535,1.);
#898=VECTOR('',#1536,1.);
#899=VECTOR('',#1537,1.);
#900=VECTOR('',#1538,1.);
#901=VECTOR('',#1541,1.);
#902=VECTOR('',#1544,1.);
#903=VECTOR('',#1547,1.);
#904=VECTOR('',#1552,1.);
#905=VECTOR('',#1553,1.);
#906=VECTOR('',#1554,1.);
#907=VECTOR('',#1555,1.);
#908=VECTOR('',#1556,1.);
#909=VECTOR('',#1557,1.);
#910=VECTOR('',#1560,1.);
#911=VECTOR('',#1561,1.);
#912=VECTOR('',#1562,1.);
#913=VECTOR('',#1565,1.);
#914=VECTOR('',#1566,1.);
#915=VECTOR('',#1569,1.);
#916=VECTOR('',#1570,1.);
#917=VECTOR('',#1571,1.);
#918=VECTOR('',#1574,1.);
#919=VECTOR('',#1575,1.);
#920=VECTOR('',#1576,1.);
#921=VECTOR('',#1577,1.);
#922=VECTOR('',#1578,1.);
#923=VECTOR('',#1579,1.);
#924=VECTOR('',#1580,1.);
#925=VECTOR('',#1599,1.);
#926=VECTOR('',#1600,1.);
#927=VECTOR('',#1601,1.);
#928=VECTOR('',#1602,1.);
#929=VECTOR('',#1603,1.);
#930=VECTOR('',#1604,1.);
#931=VECTOR('',#1605,1.);
#932=VECTOR('',#1606,1.);
#933=VECTOR('',#1609,1.);
#934=VECTOR('',#1610,1.);
#935=VECTOR('',#1611,1.);
#936=VECTOR('',#1612,1.);
#937=VECTOR('',#1613,1.);
#938=VECTOR('',#1614,1.);
#939=VECTOR('',#1617,1.);
#940=VECTOR('',#1618,1.);
#941=VECTOR('',#1621,1.);
#942=VECTOR('',#1622,1.);
#943=VECTOR('',#1625,1.);
#944=VECTOR('',#1628,1.);
#945=VECTOR('',#1629,1.);
#946=VECTOR('',#1630,1.);
#947=VECTOR('',#1631,1.);
#948=VECTOR('',#1632,1.);
#949=VECTOR('',#1643,1.);
#950=VECTOR('',#1644,1.);
#951=VECTOR('',#1645,1.);
#952=VECTOR('',#1646,1.);
#953=VECTOR('',#1647,1.);
#954=VECTOR('',#1648,1.);
#955=VECTOR('',#1649,1.);
#956=VECTOR('',#1650,1.);
#957=VECTOR('',#1651,1.);
#958=VECTOR('',#1652,1.);
#959=VECTOR('',#1655,1.);
#960=VECTOR('',#1656,1.);
#961=VECTOR('',#1657,1.);
#962=VECTOR('',#1658,1.);
#963=VECTOR('',#1661,1.);
#964=VECTOR('',#1662,1.);
#965=VECTOR('',#1663,1.);
#966=VECTOR('',#1666,1.);
#967=VECTOR('',#1667,1.);
#968=VECTOR('',#1668,1.);
#969=VECTOR('',#1671,1.);
#970=VECTOR('',#1672,1.);
#971=VECTOR('',#1675,1.);
#972=VECTOR('',#1676,1.);
#973=VECTOR('',#1679,1.);
#974=VECTOR('',#1680,1.);
#975=VECTOR('',#1681,1.);
#976=VECTOR('',#1682,1.);
#977=VECTOR('',#1685,1.);
#978=VECTOR('',#1686,1.);
#979=VECTOR('',#1687,1.);
#980=VECTOR('',#1688,1.);
#981=VECTOR('',#1691,1.);
#982=VECTOR('',#1692,1.);
#983=VECTOR('',#1697,1.);
#984=VECTOR('',#1702,1.);
#985=VECTOR('',#1703,1.);
#986=VECTOR('',#1706,1.);
#987=VECTOR('',#1709,1.);
#988=VECTOR('',#1714,1.);
#989=VECTOR('',#1717,1.);
#990=VECTOR('',#1734,1.);
#991=VECTOR('',#1737,1.);
#992=VECTOR('',#1740,1.);
#993=VECTOR('',#1743,1.);
#994=VECTOR('',#1746,1.);
#995=VECTOR('',#1747,1.);
#996=VECTOR('',#1750,1.);
#997=VECTOR('',#1755,1.);
#998=VECTOR('',#1760,1.);
#999=VECTOR('',#1765,1.);
#1000=VECTOR('',#1768,1.);
#1001=VECTOR('',#1771,1.);
#1002=VECTOR('',#1774,1.);
#1003=VECTOR('',#1777,1.);
#1004=VECTOR('',#1780,1.);
#1005=VECTOR('',#1781,1.);
#1006=VECTOR('',#1784,1.);
#1007=VECTOR('',#1829,1.);
#1008=VECTOR('',#1832,1.);
#1009=VECTOR('',#1835,1.);
#1010=VECTOR('',#1836,1.);
#1011=VECTOR('',#1837,1.);
#1012=VECTOR('',#1856,1.);
#1013=VECTOR('',#1857,1.);
#1014=VECTOR('',#1858,1.);
#1015=VECTOR('',#1861,1.);
#1016=VECTOR('',#1862,1.);
#1017=VECTOR('',#1865,1.);
#1018=VECTOR('',#1866,1.);
#1019=VECTOR('',#1869,1.);
#1020=VECTOR('',#1874,1.);
#1021=VECTOR('',#1877,1.);
#1022=VECTOR('',#1882,1.);
#1023=VECTOR('',#1883,1.);
#1024=VECTOR('',#1886,1.);
#1025=VECTOR('',#1889,1.);
#1026=VECTOR('',#1892,1.);
#1027=VECTOR('',#1895,1.);
#1028=VECTOR('',#1898,1.);
#1029=VECTOR('',#1901,1.);
#1030=EDGE_LOOP('',(#78,#79,#80,#81,#82,#83,#84,#85));
#1031=EDGE_LOOP('',(#86,#87,#88,#89,#90,#91,#92,#93));
#1032=EDGE_LOOP('',(#94,#95,#96,#97,#98,#99,#100,#101,#102,#103,#104,#105,
#106,#107,#108,#109,#110,#111,#112,#113,#114,#115,#116,#117,#118,#119));
#1033=EDGE_LOOP('',(#120));
#1034=EDGE_LOOP('',(#121));
#1035=EDGE_LOOP('',(#122));
#1036=EDGE_LOOP('',(#123));
#1037=EDGE_LOOP('',(#124));
#1038=EDGE_LOOP('',(#125));
#1039=EDGE_LOOP('',(#126));
#1040=EDGE_LOOP('',(#127));
#1041=EDGE_LOOP('',(#128,#129,#130,#131));
#1042=EDGE_LOOP('',(#132,#133,#134,#135));
#1043=EDGE_LOOP('',(#136,#137,#138,#139,#140,#141));
#1044=EDGE_LOOP('',(#142,#143,#144,#145));
#1045=EDGE_LOOP('',(#146,#147,#148,#149));
#1046=EDGE_LOOP('',(#150,#151,#152,#153));
#1047=EDGE_LOOP('',(#154,#155,#156,#157,#158,#159));
#1048=EDGE_LOOP('',(#160));
#1049=EDGE_LOOP('',(#161));
#1050=EDGE_LOOP('',(#162));
#1051=EDGE_LOOP('',(#163));
#1052=EDGE_LOOP('',(#164,#165,#166,#167));
#1053=EDGE_LOOP('',(#168,#169,#170,#171,#172,#173,#174,#175));
#1054=EDGE_LOOP('',(#176,#177,#178,#179));
#1055=EDGE_LOOP('',(#180,#181,#182,#183));
#1056=EDGE_LOOP('',(#184,#185,#186,#187));
#1057=EDGE_LOOP('',(#188,#189,#190,#191));
#1058=EDGE_LOOP('',(#192,#193,#194,#195));
#1059=EDGE_LOOP('',(#196,#197,#198,#199));
#1060=EDGE_LOOP('',(#200,#201,#202,#203,#204,#205));
#1061=EDGE_LOOP('',(#206,#207,#208,#209,#210,#211,#212,#213));
#1062=EDGE_LOOP('',(#214,#215,#216,#217));
#1063=EDGE_LOOP('',(#218));
#1064=EDGE_LOOP('',(#219,#220,#221,#222,#223));
#1065=EDGE_LOOP('',(#224,#225,#226,#227));
#1066=EDGE_LOOP('',(#228,#229,#230,#231,#232));
#1067=EDGE_LOOP('',(#233));
#1068=EDGE_LOOP('',(#234,#235,#236,#237));
#1069=EDGE_LOOP('',(#238,#239,#240,#241));
#1070=EDGE_LOOP('',(#242));
#1071=EDGE_LOOP('',(#243));
#1072=EDGE_LOOP('',(#244));
#1073=EDGE_LOOP('',(#245));
#1074=EDGE_LOOP('',(#246));
#1075=EDGE_LOOP('',(#247));
#1076=EDGE_LOOP('',(#248));
#1077=EDGE_LOOP('',(#249));
#1078=EDGE_LOOP('',(#250,#251,#252,#253,#254,#255,#256,#257));
#1079=EDGE_LOOP('',(#258,#259,#260,#261));
#1080=EDGE_LOOP('',(#262,#263,#264,#265));
#1081=EDGE_LOOP('',(#266,#267,#268,#269));
#1082=EDGE_LOOP('',(#270,#271,#272,#273));
#1083=EDGE_LOOP('',(#274,#275,#276,#277,#278));
#1084=EDGE_LOOP('',(#279));
#1085=EDGE_LOOP('',(#280,#281,#282,#283));
#1086=EDGE_LOOP('',(#284,#285,#286,#287));
#1087=EDGE_LOOP('',(#288,#289,#290,#291));
#1088=EDGE_LOOP('',(#292,#293,#294,#295));
#1089=EDGE_LOOP('',(#296,#297,#298,#299));
#1090=EDGE_LOOP('',(#300,#301,#302,#303));
#1091=EDGE_LOOP('',(#304,#305,#306,#307));
#1092=EDGE_LOOP('',(#308,#309,#310,#311,#312));
#1093=EDGE_LOOP('',(#313));
#1094=EDGE_LOOP('',(#314,#315,#316,#317,#318,#319,#320,#321));
#1095=EDGE_LOOP('',(#322));
#1096=EDGE_LOOP('',(#323));
#1097=EDGE_LOOP('',(#324));
#1098=EDGE_LOOP('',(#325));
#1099=EDGE_LOOP('',(#326));
#1100=EDGE_LOOP('',(#327));
#1101=EDGE_LOOP('',(#328));
#1102=EDGE_LOOP('',(#329));
#1103=EDGE_LOOP('',(#330));
#1104=EDGE_LOOP('',(#331));
#1105=EDGE_LOOP('',(#332));
#1106=EDGE_LOOP('',(#333));
#1107=EDGE_LOOP('',(#334));
#1108=EDGE_LOOP('',(#335));
#1109=EDGE_LOOP('',(#336));
#1110=EDGE_LOOP('',(#337));
#1111=EDGE_LOOP('',(#338));
#1112=EDGE_LOOP('',(#339));
#1113=EDGE_LOOP('',(#340));
#1114=EDGE_LOOP('',(#341));
#1115=EDGE_LOOP('',(#342));
#1116=EDGE_LOOP('',(#343));
#1117=EDGE_LOOP('',(#344));
#1118=EDGE_LOOP('',(#345));
#1119=EDGE_LOOP('',(#346,#347,#348,#349));
#1120=EDGE_LOOP('',(#350,#351,#352,#353));
#1121=EDGE_LOOP('',(#354,#355,#356,#357,#358,#359,#360,#361));
#1122=EDGE_LOOP('',(#362));
#1123=EDGE_LOOP('',(#363));
#1124=EDGE_LOOP('',(#364,#365,#366,#367));
#1125=EDGE_LOOP('',(#368));
#1126=EDGE_LOOP('',(#369));
#1127=EDGE_LOOP('',(#370));
#1128=EDGE_LOOP('',(#371));
#1129=EDGE_LOOP('',(#372));
#1130=EDGE_LOOP('',(#373));
#1131=EDGE_LOOP('',(#374,#375,#376,#377));
#1132=EDGE_LOOP('',(#378,#379,#380,#381));
#1133=EDGE_LOOP('',(#382,#383,#384,#385));
#1134=EDGE_LOOP('',(#386,#387,#388,#389));
#1135=EDGE_LOOP('',(#390,#391,#392,#393));
#1136=EDGE_LOOP('',(#394,#395,#396,#397));
#1137=EDGE_LOOP('',(#398,#399,#400,#401));
#1138=EDGE_LOOP('',(#402,#403,#404,#405));
#1139=EDGE_LOOP('',(#406,#407,#408,#409));
#1140=EDGE_LOOP('',(#410,#411,#412,#413));
#1141=EDGE_LOOP('',(#414,#415,#416,#417));
#1142=EDGE_LOOP('',(#418,#419,#420,#421));
#1143=EDGE_LOOP('',(#422,#423,#424,#425));
#1144=EDGE_LOOP('',(#426,#427,#428,#429));
#1145=EDGE_LOOP('',(#430,#431,#432,#433));
#1146=EDGE_LOOP('',(#434,#435,#436,#437));
#1147=EDGE_LOOP('',(#438,#439,#440,#441));
#1148=FACE_BOUND('',#1030,.T.);
#1149=FACE_BOUND('',#1031,.T.);
#1150=FACE_BOUND('',#1032,.T.);
#1151=FACE_BOUND('',#1033,.T.);
#1152=FACE_BOUND('',#1034,.T.);
#1153=FACE_BOUND('',#1035,.T.);
#1154=FACE_BOUND('',#1036,.T.);
#1155=FACE_BOUND('',#1037,.T.);
#1156=FACE_BOUND('',#1038,.T.);
#1157=FACE_BOUND('',#1039,.T.);
#1158=FACE_BOUND('',#1040,.T.);
#1159=FACE_BOUND('',#1041,.T.);
#1160=FACE_BOUND('',#1042,.T.);
#1161=FACE_BOUND('',#1043,.T.);
#1162=FACE_BOUND('',#1044,.T.);
#1163=FACE_BOUND('',#1045,.T.);
#1164=FACE_BOUND('',#1046,.T.);
#1165=FACE_BOUND('',#1047,.T.);
#1166=FACE_BOUND('',#1048,.T.);
#1167=FACE_BOUND('',#1049,.T.);
#1168=FACE_BOUND('',#1050,.T.);
#1169=FACE_BOUND('',#1051,.T.);
#1170=FACE_BOUND('',#1052,.T.);
#1171=FACE_BOUND('',#1053,.T.);
#1172=FACE_BOUND('',#1054,.T.);
#1173=FACE_BOUND('',#1055,.T.);
#1174=FACE_BOUND('',#1056,.T.);
#1175=FACE_BOUND('',#1057,.T.);
#1176=FACE_BOUND('',#1058,.T.);
#1177=FACE_BOUND('',#1059,.T.);
#1178=FACE_BOUND('',#1060,.T.);
#1179=FACE_BOUND('',#1061,.T.);
#1180=FACE_BOUND('',#1062,.T.);
#1181=FACE_BOUND('',#1063,.T.);
#1182=FACE_BOUND('',#1064,.T.);
#1183=FACE_BOUND('',#1065,.T.);
#1184=FACE_BOUND('',#1066,.T.);
#1185=FACE_BOUND('',#1067,.T.);
#1186=FACE_BOUND('',#1068,.T.);
#1187=FACE_BOUND('',#1069,.T.);
#1188=FACE_BOUND('',#1070,.T.);
#1189=FACE_BOUND('',#1071,.T.);
#1190=FACE_BOUND('',#1072,.T.);
#1191=FACE_BOUND('',#1073,.T.);
#1192=FACE_BOUND('',#1074,.T.);
#1193=FACE_BOUND('',#1075,.T.);
#1194=FACE_BOUND('',#1076,.T.);
#1195=FACE_BOUND('',#1077,.T.);
#1196=FACE_BOUND('',#1078,.T.);
#1197=FACE_BOUND('',#1079,.T.);
#1198=FACE_BOUND('',#1080,.T.);
#1199=FACE_BOUND('',#1081,.T.);
#1200=FACE_BOUND('',#1082,.T.);
#1201=FACE_BOUND('',#1083,.T.);
#1202=FACE_BOUND('',#1084,.T.);
#1203=FACE_BOUND('',#1085,.T.);
#1204=FACE_BOUND('',#1086,.T.);
#1205=FACE_BOUND('',#1087,.T.);
#1206=FACE_BOUND('',#1088,.T.);
#1207=FACE_BOUND('',#1089,.T.);
#1208=FACE_BOUND('',#1090,.T.);
#1209=FACE_BOUND('',#1091,.T.);
#1210=FACE_BOUND('',#1092,.T.);
#1211=FACE_BOUND('',#1093,.T.);
#1212=FACE_BOUND('',#1094,.T.);
#1213=FACE_BOUND('',#1095,.T.);
#1214=FACE_BOUND('',#1096,.T.);
#1215=FACE_BOUND('',#1097,.T.);
#1216=FACE_BOUND('',#1098,.T.);
#1217=FACE_BOUND('',#1099,.T.);
#1218=FACE_BOUND('',#1100,.T.);
#1219=FACE_BOUND('',#1101,.T.);
#1220=FACE_BOUND('',#1102,.T.);
#1221=FACE_BOUND('',#1103,.T.);
#1222=FACE_BOUND('',#1104,.T.);
#1223=FACE_BOUND('',#1105,.T.);
#1224=FACE_BOUND('',#1106,.T.);
#1225=FACE_BOUND('',#1107,.T.);
#1226=FACE_BOUND('',#1108,.T.);
#1227=FACE_BOUND('',#1109,.T.);
#1228=FACE_BOUND('',#1110,.T.);
#1229=FACE_BOUND('',#1111,.T.);
#1230=FACE_BOUND('',#1112,.T.);
#1231=FACE_BOUND('',#1113,.T.);
#1232=FACE_BOUND('',#1114,.T.);
#1233=FACE_BOUND('',#1115,.T.);
#1234=FACE_BOUND('',#1116,.T.);
#1235=FACE_BOUND('',#1117,.T.);
#1236=FACE_BOUND('',#1118,.T.);
#1237=FACE_BOUND('',#1119,.T.);
#1238=FACE_BOUND('',#1120,.T.);
#1239=FACE_BOUND('',#1121,.T.);
#1240=FACE_BOUND('',#1122,.T.);
#1241=FACE_BOUND('',#1123,.T.);
#1242=FACE_BOUND('',#1124,.T.);
#1243=FACE_BOUND('',#1125,.T.);
#1244=FACE_BOUND('',#1126,.T.);
#1245=FACE_BOUND('',#1127,.T.);
#1246=FACE_BOUND('',#1128,.T.);
#1247=FACE_BOUND('',#1129,.T.);
#1248=FACE_BOUND('',#1130,.T.);
#1249=FACE_BOUND('',#1131,.T.);
#1250=FACE_BOUND('',#1132,.T.);
#1251=FACE_BOUND('',#1133,.T.);
#1252=FACE_BOUND('',#1134,.T.);
#1253=FACE_BOUND('',#1135,.T.);
#1254=FACE_BOUND('',#1136,.T.);
#1255=FACE_BOUND('',#1137,.T.);
#1256=FACE_BOUND('',#1138,.T.);
#1257=FACE_BOUND('',#1139,.T.);
#1258=FACE_BOUND('',#1140,.T.);
#1259=FACE_BOUND('',#1141,.T.);
#1260=FACE_BOUND('',#1142,.T.);
#1261=FACE_BOUND('',#1143,.T.);
#1262=FACE_BOUND('',#1144,.T.);
#1263=FACE_BOUND('',#1145,.T.);
#1264=FACE_BOUND('',#1146,.T.);
#1265=FACE_BOUND('',#1147,.T.);
#1266=PLANE('',#1407);
#1267=PLANE('',#1412);
#1268=PLANE('',#1417);
#1269=PLANE('',#1426);
#1270=PLANE('',#1427);
#1271=PLANE('',#1428);
#1272=PLANE('',#1429);
#1273=PLANE('',#1430);
#1274=PLANE('',#1431);
#1275=PLANE('',#1436);
#1276=PLANE('',#1437);
#1277=PLANE('',#1438);
#1278=PLANE('',#1439);
#1279=PLANE('',#1440);
#1280=PLANE('',#1441);
#1281=PLANE('',#1442);
#1282=PLANE('',#1443);
#1283=PLANE('',#1444);
#1284=PLANE('',#1447);
#1285=PLANE('',#1448);
#1286=PLANE('',#1451);
#1287=PLANE('',#1452);
#1288=PLANE('',#1459);
#1289=PLANE('',#1464);
#1290=PLANE('',#1467);
#1291=PLANE('',#1468);
#1292=PLANE('',#1469);
#1293=PLANE('',#1472);
#1294=PLANE('',#1475);
#1295=PLANE('',#1476);
#1296=PLANE('',#1477);
#1297=PLANE('',#1478);
#1298=PLANE('',#1487);
#1299=PLANE('',#1490);
#1300=PLANE('',#1493);
#1301=PLANE('',#1496);
#1302=PLANE('',#1499);
#1303=PLANE('',#1500);
#1304=PLANE('',#1501);
#1305=PLANE('',#1506);
#1306=PLANE('',#1509);
#1307=PLANE('',#1510);
#1308=PLANE('',#1511);
#1309=PLANE('',#1512);
#1310=PLANE('',#1513);
#1311=PLANE('',#1514);
#1312=PLANE('',#1515);
#1313=PLANE('',#1516);
#1314=PLANE('',#1517);
#1315=PLANE('',#1518);
#1316=PLANE('',#1520);
#1317=PLANE('',#1522);
#1318=PLANE('',#1524);
#1319=ADVANCED_FACE('',(#1148,#1149),#1266,.F.);
#1320=ADVANCED_FACE('',(#1150),#1267,.T.);
#1321=ADVANCED_FACE('',(#1151,#1152,#1153,#1154,#1155,#1156,#1157,#1158,
#1159,#1160),#1268,.F.);
#1322=ADVANCED_FACE('',(#1161),#1269,.T.);
#1323=ADVANCED_FACE('',(#1162),#1270,.T.);
#1324=ADVANCED_FACE('',(#1163),#1271,.T.);
#1325=ADVANCED_FACE('',(#1164),#1272,.T.);
#1326=ADVANCED_FACE('',(#1165),#1273,.T.);
#1327=ADVANCED_FACE('',(#1166,#1167,#1168,#1169,#1170,#1171),#1274,.T.);
#1328=ADVANCED_FACE('',(#1172),#1275,.T.);
#1329=ADVANCED_FACE('',(#1173),#1276,.F.);
#1330=ADVANCED_FACE('',(#1174),#1277,.F.);
#1331=ADVANCED_FACE('',(#1175),#1278,.T.);
#1332=ADVANCED_FACE('',(#1176,#1177),#1279,.F.);
#1333=ADVANCED_FACE('',(#1178),#1280,.T.);
#1334=ADVANCED_FACE('',(#1179),#1281,.T.);
#1335=ADVANCED_FACE('',(#1180),#1282,.F.);
#1336=ADVANCED_FACE('',(#1181,#1182),#1283,.T.);
#1337=ADVANCED_FACE('',(#1183),#1284,.T.);
#1338=ADVANCED_FACE('',(#1184,#1185),#1285,.T.);
#1339=ADVANCED_FACE('',(#1186),#1286,.T.);
#1340=ADVANCED_FACE('',(#1187),#1287,.F.);
#1341=ADVANCED_FACE('',(#1188,#1189),#12,.F.);
#1342=ADVANCED_FACE('',(#1190,#1191),#13,.F.);
#1343=ADVANCED_FACE('',(#1192,#1193),#14,.F.);
#1344=ADVANCED_FACE('',(#1194,#1195),#15,.F.);
#1345=ADVANCED_FACE('',(#1196,#1197),#1288,.T.);
#1346=ADVANCED_FACE('',(#1198),#1289,.T.);
#1347=ADVANCED_FACE('',(#1199),#16,.T.);
#1348=ADVANCED_FACE('',(#1200),#1290,.F.);
#1349=ADVANCED_FACE('',(#1201,#1202),#1291,.T.);
#1350=ADVANCED_FACE('',(#1203),#1292,.T.);
#1351=ADVANCED_FACE('',(#1204),#17,.T.);
#1352=ADVANCED_FACE('',(#1205),#18,.T.);
#1353=ADVANCED_FACE('',(#1206),#1293,.F.);
#1354=ADVANCED_FACE('',(#1207),#19,.T.);
#1355=ADVANCED_FACE('',(#1208),#1294,.F.);
#1356=ADVANCED_FACE('',(#1209),#1295,.T.);
#1357=ADVANCED_FACE('',(#1210,#1211),#1296,.T.);
#1358=ADVANCED_FACE('',(#1212),#1297,.T.);
#1359=ADVANCED_FACE('',(#1213,#1214),#20,.F.);
#1360=ADVANCED_FACE('',(#1215,#1216),#21,.F.);
#1361=ADVANCED_FACE('',(#1217,#1218),#22,.F.);
#1362=ADVANCED_FACE('',(#1219,#1220),#23,.F.);
#1363=ADVANCED_FACE('',(#1221,#1222),#1298,.F.);
#1364=ADVANCED_FACE('',(#1223,#1224),#24,.F.);
#1365=ADVANCED_FACE('',(#1225,#1226),#1299,.F.);
#1366=ADVANCED_FACE('',(#1227,#1228),#25,.F.);
#1367=ADVANCED_FACE('',(#1229,#1230),#1300,.F.);
#1368=ADVANCED_FACE('',(#1231,#1232),#26,.F.);
#1369=ADVANCED_FACE('',(#1233,#1234),#1301,.F.);
#1370=ADVANCED_FACE('',(#1235,#1236),#27,.F.);
#1371=ADVANCED_FACE('',(#1237),#1302,.F.);
#1372=ADVANCED_FACE('',(#1238),#1303,.T.);
#1373=ADVANCED_FACE('',(#1239,#1240,#1241,#1242),#1304,.T.);
#1374=ADVANCED_FACE('',(#1243,#1244),#28,.T.);
#1375=ADVANCED_FACE('',(#1245),#1305,.T.);
#1376=ADVANCED_FACE('',(#1246,#1247),#29,.T.);
#1377=ADVANCED_FACE('',(#1248),#1306,.T.);
#1378=ADVANCED_FACE('',(#1249),#1307,.T.);
#1379=ADVANCED_FACE('',(#1250),#1308,.F.);
#1380=ADVANCED_FACE('',(#1251),#1309,.F.);
#1381=ADVANCED_FACE('',(#1252),#1310,.T.);
#1382=ADVANCED_FACE('',(#1253,#1254),#1311,.T.);
#1383=ADVANCED_FACE('',(#1255),#1312,.F.);
#1384=ADVANCED_FACE('',(#1256),#1313,.T.);
#1385=ADVANCED_FACE('',(#1257),#1314,.T.);
#1386=ADVANCED_FACE('',(#1258),#1315,.T.);
#1387=ADVANCED_FACE('',(#1259),#30,.F.);
#1388=ADVANCED_FACE('',(#1260),#1316,.F.);
#1389=ADVANCED_FACE('',(#1261),#31,.F.);
#1390=ADVANCED_FACE('',(#1262),#1317,.F.);
#1391=ADVANCED_FACE('',(#1263),#32,.F.);
#1392=ADVANCED_FACE('',(#1264),#1318,.F.);
#1393=ADVANCED_FACE('',(#1265),#33,.F.);
#1394=CLOSED_SHELL('',(#1319,#1320,#1321,#1322,#1323,#1324,#1325,#1326,
#1327,#1328,#1329,#1330,#1331,#1332,#1333,#1334,#1335,#1336,#1337,#1338,
#1339,#1340,#1341,#1342,#1343,#1344,#1345,#1346,#1347,#1348,#1349,#1350,
#1351,#1352,#1353,#1354,#1355,#1356,#1357,#1358,#1359,#1360,#1361,#1362,
#1363,#1364,#1365,#1366,#1367,#1368,#1369,#1370,#1371,#1372,#1373,#1374,
#1375,#1376,#1377,#1378,#1379,#1380,#1381,#1382,#1383,#1384,#1385,#1386,
#1387,#1388,#1389,#1390,#1391,#1392,#1393));
#1395=STYLED_ITEM('',(#1396),#1403);
#1396=PRESENTATION_STYLE_ASSIGNMENT((#1397));
#1397=SURFACE_STYLE_USAGE(.BOTH.,#1398);
#1398=SURFACE_SIDE_STYLE('',(#1399));
#1399=SURFACE_STYLE_FILL_AREA(#1400);
#1400=FILL_AREA_STYLE('',(#1401));
#1401=FILL_AREA_STYLE_COLOUR('',#1402);
#1402=COLOUR_RGB('',0.615686274509804,0.811764705882353,0.929411764705882);
#1403=MANIFOLD_SOLID_BREP('Part 1',#1394);
#1404=SHAPE_DEFINITION_REPRESENTATION(#2298,#1405);
#1405=SHAPE_REPRESENTATION('Part 1',(#1406),#2293);
#1406=AXIS2_PLACEMENT_3D('',#1904,#1526,#1527);
#1407=AXIS2_PLACEMENT_3D('',#1905,#1528,#1529);
#1408=AXIS2_PLACEMENT_3D('',#1925,#1539,#1540);
#1409=AXIS2_PLACEMENT_3D('',#1929,#1542,#1543);
#1410=AXIS2_PLACEMENT_3D('',#1933,#1545,#1546);
#1411=AXIS2_PLACEMENT_3D('',#1937,#1548,#1549);
#1412=AXIS2_PLACEMENT_3D('',#1938,#1550,#1551);
#1413=AXIS2_PLACEMENT_3D('',#1952,#1558,#1559);
#1414=AXIS2_PLACEMENT_3D('',#1960,#1563,#1564);
#1415=AXIS2_PLACEMENT_3D('',#1965,#1567,#1568);
#1416=AXIS2_PLACEMENT_3D('',#1973,#1572,#1573);
#1417=AXIS2_PLACEMENT_3D('',#1988,#1581,#1582);
#1418=AXIS2_PLACEMENT_3D('',#1989,#1583,#1584);
#1419=AXIS2_PLACEMENT_3D('',#1991,#1585,#1586);
#1420=AXIS2_PLACEMENT_3D('',#1993,#1587,#1588);
#1421=AXIS2_PLACEMENT_3D('',#1995,#1589,#1590);
#1422=AXIS2_PLACEMENT_3D('',#1997,#1591,#1592);
#1423=AXIS2_PLACEMENT_3D('',#1999,#1593,#1594);
#1424=AXIS2_PLACEMENT_3D('',#2001,#1595,#1596);
#1425=AXIS2_PLACEMENT_3D('',#2003,#1597,#1598);
#1426=AXIS2_PLACEMENT_3D('',#2021,#1607,#1608);
#1427=AXIS2_PLACEMENT_3D('',#2032,#1615,#1616);
#1428=AXIS2_PLACEMENT_3D('',#2036,#1619,#1620);
#1429=AXIS2_PLACEMENT_3D('',#2040,#1623,#1624);
#1430=AXIS2_PLACEMENT_3D('',#2042,#1626,#1627);
#1431=AXIS2_PLACEMENT_3D('',#2052,#1633,#1634);
#1432=AXIS2_PLACEMENT_3D('',#2053,#1635,#1636);
#1433=AXIS2_PLACEMENT_3D('',#2055,#1637,#1638);
#1434=AXIS2_PLACEMENT_3D('',#2057,#1639,#1640);
#1435=AXIS2_PLACEMENT_3D('',#2059,#1641,#1642);
#1436=AXIS2_PLACEMENT_3D('',#2079,#1653,#1654);
#1437=AXIS2_PLACEMENT_3D('',#2088,#1659,#1660);
#1438=AXIS2_PLACEMENT_3D('',#2094,#1664,#1665);
#1439=AXIS2_PLACEMENT_3D('',#2100,#1669,#1670);
#1440=AXIS2_PLACEMENT_3D('',#2103,#1673,#1674);
#1441=AXIS2_PLACEMENT_3D('',#2106,#1677,#1678);
#1442=AXIS2_PLACEMENT_3D('',#2113,#1683,#1684);
#1443=AXIS2_PLACEMENT_3D('',#2120,#1689,#1690);
#1444=AXIS2_PLACEMENT_3D('',#2124,#1693,#1694);
#1445=AXIS2_PLACEMENT_3D('',#2125,#1695,#1696);
#1446=AXIS2_PLACEMENT_3D('',#2129,#1698,#1699);
#1447=AXIS2_PLACEMENT_3D('',#2130,#1700,#1701);
#1448=AXIS2_PLACEMENT_3D('',#2134,#1704,#1705);
#1449=AXIS2_PLACEMENT_3D('',#2137,#1707,#1708);
#1450=AXIS2_PLACEMENT_3D('',#2140,#1710,#1711);
#1451=AXIS2_PLACEMENT_3D('',#2142,#1712,#1713);
#1452=AXIS2_PLACEMENT_3D('',#2144,#1715,#1716);
#1453=AXIS2_PLACEMENT_3D('',#2146,#1718,#1719);
#1454=AXIS2_PLACEMENT_3D('',#2147,#1720,#1721);
#1455=AXIS2_PLACEMENT_3D('',#2148,#1722,#1723);
#1456=AXIS2_PLACEMENT_3D('',#2150,#1724,#1725);
#1457=AXIS2_PLACEMENT_3D('',#2151,#1726,#1727);
#1458=AXIS2_PLACEMENT_3D('',#2153,#1728,#1729);
#1459=AXIS2_PLACEMENT_3D('',#2154,#1730,#1731);
#1460=AXIS2_PLACEMENT_3D('',#2155,#1732,#1733);
#1461=AXIS2_PLACEMENT_3D('',#2160,#1735,#1736);
#1462=AXIS2_PLACEMENT_3D('',#2164,#1738,#1739);
#1463=AXIS2_PLACEMENT_3D('',#2168,#1741,#1742);
#1464=AXIS2_PLACEMENT_3D('',#2171,#1744,#1745);
#1465=AXIS2_PLACEMENT_3D('',#2175,#1748,#1749);
#1466=AXIS2_PLACEMENT_3D('',#2178,#1751,#1752);
#1467=AXIS2_PLACEMENT_3D('',#2179,#1753,#1754);
#1468=AXIS2_PLACEMENT_3D('',#2181,#1756,#1757);
#1469=AXIS2_PLACEMENT_3D('',#2182,#1758,#1759);
#1470=AXIS2_PLACEMENT_3D('',#2184,#1761,#1762);
#1471=AXIS2_PLACEMENT_3D('',#2185,#1763,#1764);
#1472=AXIS2_PLACEMENT_3D('',#2187,#1766,#1767);
#1473=AXIS2_PLACEMENT_3D('',#2189,#1769,#1770);
#1474=AXIS2_PLACEMENT_3D('',#2192,#1772,#1773);
#1475=AXIS2_PLACEMENT_3D('',#2195,#1775,#1776);
#1476=AXIS2_PLACEMENT_3D('',#2197,#1778,#1779);
#1477=AXIS2_PLACEMENT_3D('',#2201,#1782,#1783);
#1478=AXIS2_PLACEMENT_3D('',#2203,#1785,#1786);
#1479=AXIS2_PLACEMENT_3D('',#2204,#1787,#1788);
#1480=AXIS2_PLACEMENT_3D('',#2205,#1789,#1790);
#1481=AXIS2_PLACEMENT_3D('',#2207,#1791,#1792);
#1482=AXIS2_PLACEMENT_3D('',#2208,#1793,#1794);
#1483=AXIS2_PLACEMENT_3D('',#2210,#1795,#1796);
#1484=AXIS2_PLACEMENT_3D('',#2211,#1797,#1798);
#1485=AXIS2_PLACEMENT_3D('',#2213,#1799,#1800);
#1486=AXIS2_PLACEMENT_3D('',#2214,#1801,#1802);
#1487=AXIS2_PLACEMENT_3D('',#2216,#1803,#1804);
#1488=AXIS2_PLACEMENT_3D('',#2217,#1805,#1806);
#1489=AXIS2_PLACEMENT_3D('',#2219,#1807,#1808);
#1490=AXIS2_PLACEMENT_3D('',#2220,#1809,#1810);
#1491=AXIS2_PLACEMENT_3D('',#2221,#1811,#1812);
#1492=AXIS2_PLACEMENT_3D('',#2223,#1813,#1814);
#1493=AXIS2_PLACEMENT_3D('',#2224,#1815,#1816);
#1494=AXIS2_PLACEMENT_3D('',#2225,#1817,#1818);
#1495=AXIS2_PLACEMENT_3D('',#2227,#1819,#1820);
#1496=AXIS2_PLACEMENT_3D('',#2228,#1821,#1822);
#1497=AXIS2_PLACEMENT_3D('',#2229,#1823,#1824);
#1498=AXIS2_PLACEMENT_3D('',#2231,#1825,#1826);
#1499=AXIS2_PLACEMENT_3D('',#2232,#1827,#1828);
#1500=AXIS2_PLACEMENT_3D('',#2234,#1830,#1831);
#1501=AXIS2_PLACEMENT_3D('',#2236,#1833,#1834);
#1502=AXIS2_PLACEMENT_3D('',#2242,#1838,#1839);
#1503=AXIS2_PLACEMENT_3D('',#2244,#1840,#1841);
#1504=AXIS2_PLACEMENT_3D('',#2246,#1842,#1843);
#1505=AXIS2_PLACEMENT_3D('',#2247,#1844,#1845);
#1506=AXIS2_PLACEMENT_3D('',#2249,#1846,#1847);
#1507=AXIS2_PLACEMENT_3D('',#2250,#1848,#1849);
#1508=AXIS2_PLACEMENT_3D('',#2251,#1850,#1851);
#1509=AXIS2_PLACEMENT_3D('',#2253,#1852,#1853);
#1510=AXIS2_PLACEMENT_3D('',#2254,#1854,#1855);
#1511=AXIS2_PLACEMENT_3D('',#2260,#1859,#1860);
#1512=AXIS2_PLACEMENT_3D('',#2264,#1863,#1864);
#1513=AXIS2_PLACEMENT_3D('',#2268,#1867,#1868);
#1514=AXIS2_PLACEMENT_3D('',#2270,#1870,#1871);
#1515=AXIS2_PLACEMENT_3D('',#2271,#1872,#1873);
#1516=AXIS2_PLACEMENT_3D('',#2273,#1875,#1876);
#1517=AXIS2_PLACEMENT_3D('',#2275,#1878,#1879);
#1518=AXIS2_PLACEMENT_3D('',#2276,#1880,#1881);
#1519=AXIS2_PLACEMENT_3D('',#2279,#1884,#1885);
#1520=AXIS2_PLACEMENT_3D('',#2281,#1887,#1888);
#1521=AXIS2_PLACEMENT_3D('',#2283,#1890,#1891);
#1522=AXIS2_PLACEMENT_3D('',#2285,#1893,#1894);
#1523=AXIS2_PLACEMENT_3D('',#2287,#1896,#1897);
#1524=AXIS2_PLACEMENT_3D('',#2289,#1899,#1900);
#1525=AXIS2_PLACEMENT_3D('',#2291,#1902,#1903);
#1526=DIRECTION('',(0.,0.,1.));
#1527=DIRECTION('',(1.,0.,0.));
#1528=DIRECTION('',(0.,1.,0.));
#1529=DIRECTION('',(0.,0.,1.));
#1530=DIRECTION('',(0.,0.,-1.));
#1531=DIRECTION('',(1.,0.,0.));
#1532=DIRECTION('',(0.,0.,-1.));
#1533=DIRECTION('',(-1.,0.,0.));
#1534=DIRECTION('',(0.,0.,-1.));
#1535=DIRECTION('',(-1.,0.,0.));
#1536=DIRECTION('',(0.,0.,-1.));
#1537=DIRECTION('',(-1.,0.,0.));
#1538=DIRECTION('',(-1.,0.,0.));
#1539=DIRECTION('',(0.,1.,0.));
#1540=DIRECTION('',(0.,0.,1.));
#1541=DIRECTION('',(0.,0.,-1.));
#1542=DIRECTION('',(0.,1.,0.));
#1543=DIRECTION('',(0.,0.,1.));
#1544=DIRECTION('',(-1.,0.,0.));
#1545=DIRECTION('',(0.,1.,0.));
#1546=DIRECTION('',(0.,0.,1.));
#1547=DIRECTION('',(0.,0.,1.));
#1548=DIRECTION('',(0.,1.,0.));
#1549=DIRECTION('',(0.,0.,1.));
#1550=DIRECTION('',(0.,0.,1.));
#1551=DIRECTION('',(1.,0.,0.));
#1552=DIRECTION('',(0.,-1.,0.));
#1553=DIRECTION('',(0.,-1.,0.));
#1554=DIRECTION('',(-1.,0.,0.));
#1555=DIRECTION('',(0.,1.,0.));
#1556=DIRECTION('',(-1.,0.,0.));
#1557=DIRECTION('',(0.,-1.,0.));
#1558=DIRECTION('',(0.,0.,1.));
#1559=DIRECTION('',(0.,1.,0.));
#1560=DIRECTION('',(1.,0.,0.));
#1561=DIRECTION('',(0.,-1.,0.));
#1562=DIRECTION('',(1.,0.,0.));
#1563=DIRECTION('',(0.,0.,1.));
#1564=DIRECTION('',(-1.,0.,0.));
#1565=DIRECTION('',(0.,1.,0.));
#1566=DIRECTION('',(0.,1.,0.));
#1567=DIRECTION('',(0.,0.,1.));
#1568=DIRECTION('',(-2.42861286636753E-15,-1.,0.));
#1569=DIRECTION('',(-1.,0.,0.));
#1570=DIRECTION('',(-3.46944695195362E-16,1.,0.));
#1571=DIRECTION('',(-1.,0.,0.));
#1572=DIRECTION('',(0.,0.,1.));
#1573=DIRECTION('',(1.,0.,0.));
#1574=DIRECTION('',(3.65204942310906E-16,-1.,0.));
#1575=DIRECTION('',(-1.,0.,0.));
#1576=DIRECTION('',(0.,1.,0.));
#1577=DIRECTION('',(-1.,0.,0.));
#1578=DIRECTION('',(0.,-1.,0.));
#1579=DIRECTION('',(0.,1.,0.));
#1580=DIRECTION('',(1.,2.45029690981724E-16,0.));
#1581=DIRECTION('',(0.,0.,1.));
#1582=DIRECTION('',(1.,0.,0.));
#1583=DIRECTION('',(0.,0.,1.));
#1584=DIRECTION('',(1.,0.,0.));
#1585=DIRECTION('',(0.,0.,1.));
#1586=DIRECTION('',(1.,0.,0.));
#1587=DIRECTION('',(0.,0.,1.));
#1588=DIRECTION('',(1.,0.,0.));
#1589=DIRECTION('',(0.,0.,1.));
#1590=DIRECTION('',(1.,0.,0.));
#1591=DIRECTION('',(0.,0.,1.));
#1592=DIRECTION('',(1.,0.,0.));
#1593=DIRECTION('',(0.,0.,1.));
#1594=DIRECTION('',(1.,0.,0.));
#1595=DIRECTION('',(0.,0.,1.));
#1596=DIRECTION('',(1.,0.,0.));
#1597=DIRECTION('',(0.,0.,1.));
#1598=DIRECTION('',(1.,0.,0.));
#1599=DIRECTION('',(0.,1.,0.));
#1600=DIRECTION('',(1.,0.,0.));
#1601=DIRECTION('',(0.,1.,0.));
#1602=DIRECTION('',(1.,0.,0.));
#1603=DIRECTION('',(1.,0.,0.));
#1604=DIRECTION('',(0.,1.,0.));
#1605=DIRECTION('',(1.,0.,0.));
#1606=DIRECTION('',(0.,1.,0.));
#1607=DIRECTION('',(-1.21430643318376E-16,1.,0.));
#1608=DIRECTION('',(-1.,-1.21430643318376E-16,0.));
#1609=DIRECTION('',(0.,0.,1.));
#1610=DIRECTION('',(-1.,-1.21430643318376E-16,0.));
#1611=DIRECTION('',(0.,0.,1.));
#1612=DIRECTION('',(0.,0.,-1.));
#1613=DIRECTION('',(-1.,-1.21430643318376E-16,0.));
#1614=DIRECTION('',(0.,0.,-1.));
#1615=DIRECTION('',(-1.,0.,0.));
#1616=DIRECTION('',(0.,0.,1.));
#1617=DIRECTION('',(0.,0.,1.));
#1618=DIRECTION('',(0.,-1.,0.));
#1619=DIRECTION('',(2.45029690981724E-16,-1.,0.));
#1620=DIRECTION('',(1.,2.45029690981724E-16,0.));
#1621=DIRECTION('',(0.,0.,1.));
#1622=DIRECTION('',(1.,2.45029690981724E-16,0.));
#1623=DIRECTION('',(1.,0.,0.));
#1624=DIRECTION('',(0.,0.,-1.));
#1625=DIRECTION('',(0.,1.,0.));
#1626=DIRECTION('',(0.,1.,0.));
#1627=DIRECTION('',(0.,0.,1.));
#1628=DIRECTION('',(1.,0.,0.));
#1629=DIRECTION('',(0.,0.,-1.));
#1630=DIRECTION('',(0.,0.,-1.));
#1631=DIRECTION('',(-1.,0.,0.));
#1632=DIRECTION('',(0.,0.,-1.));
#1633=DIRECTION('',(0.,0.,1.));
#1634=DIRECTION('',(1.,0.,0.));
#1635=DIRECTION('',(0.,0.,1.));
#1636=DIRECTION('',(0.,-1.,0.));
#1637=DIRECTION('',(0.,0.,1.));
#1638=DIRECTION('',(-1.,-1.78893358460116E-14,0.));
#1639=DIRECTION('',(0.,0.,1.));
#1640=DIRECTION('',(-1.0842021724855E-15,1.,0.));
#1641=DIRECTION('',(0.,0.,1.));
#1642=DIRECTION('',(1.,0.,0.));
#1643=DIRECTION('',(-1.,0.,0.));
#1644=DIRECTION('',(0.,1.,0.));
#1645=DIRECTION('',(1.,0.,0.));
#1646=DIRECTION('',(3.46944695195362E-16,-1.,0.));
#1647=DIRECTION('',(1.,0.,0.));
#1648=DIRECTION('',(0.,1.,0.));
#1649=DIRECTION('',(3.46944695195362E-16,-1.,0.));
#1650=DIRECTION('',(0.,1.,0.));
#1651=DIRECTION('',(1.,0.,0.));
#1652=DIRECTION('',(0.,1.,0.));
#1653=DIRECTION('',(1.,0.,0.));
#1654=DIRECTION('',(0.,0.,-1.));
#1655=DIRECTION('',(0.,1.,0.));
#1656=DIRECTION('',(0.,0.,-1.));
#1657=DIRECTION('',(0.,1.,0.));
#1658=DIRECTION('',(0.,0.,-1.));
#1659=DIRECTION('',(-1.13752359080446E-16,0.,1.));
#1660=DIRECTION('',(1.,0.,1.13752359080446E-16));
#1661=DIRECTION('',(1.,0.,1.13752359080446E-16));
#1662=DIRECTION('',(0.,1.,0.));
#1663=DIRECTION('',(1.,0.,1.13752359080446E-16));
#1664=DIRECTION('',(1.,0.,0.));
#1665=DIRECTION('',(0.,0.,-1.));
#1666=DIRECTION('',(0.,0.,-1.));
#1667=DIRECTION('',(0.,1.,0.));
#1668=DIRECTION('',(0.,0.,-1.));
#1669=DIRECTION('',(-1.13752359080446E-16,0.,1.));
#1670=DIRECTION('',(1.,0.,1.13752359080446E-16));
#1671=DIRECTION('',(1.,0.,1.13752359080446E-16));
#1672=DIRECTION('',(1.,0.,1.13752359080446E-16));
#1673=DIRECTION('',(0.,1.,0.));
#1674=DIRECTION('',(0.,0.,1.));
#1675=DIRECTION('',(0.,0.,-1.));
#1676=DIRECTION('',(0.,0.,-1.));
#1677=DIRECTION('',(0.,1.,0.));
#1678=DIRECTION('',(0.,0.,1.));
#1679=DIRECTION('',(0.,0.,-1.));
#1680=DIRECTION('',(0.,0.,-1.));
#1681=DIRECTION('',(-1.,0.,0.));
#1682=DIRECTION('',(0.,0.,-1.));
#1683=DIRECTION('',(1.,3.46944695195362E-16,0.));
#1684=DIRECTION('',(-3.46944695195362E-16,1.,0.));
#1685=DIRECTION('',(-3.46944695195362E-16,1.,0.));
#1686=DIRECTION('',(0.,0.,-1.));
#1687=DIRECTION('',(0.,0.,-1.));
#1688=DIRECTION('',(-3.46944695195362E-16,1.,0.));
#1689=DIRECTION('',(-1.,0.,0.));
#1690=DIRECTION('',(0.,0.,1.));
#1691=DIRECTION('',(0.,1.,0.));
#1692=DIRECTION('',(0.,0.,-1.));
#1693=DIRECTION('',(0.,0.,1.));
#1694=DIRECTION('',(1.,0.,0.));
#1695=DIRECTION('',(0.,0.,1.));
#1696=DIRECTION('',(1.,0.,0.));
#1697=DIRECTION('',(-1.,0.,0.));
#1698=DIRECTION('',(0.,0.,1.));
#1699=DIRECTION('',(-2.42861286636753E-15,-1.,0.));
#1700=DIRECTION('',(-1.,0.,0.));
#1701=DIRECTION('',(0.,0.,1.));
#1702=DIRECTION('',(0.,1.,0.));
#1703=DIRECTION('',(0.,0.,-1.));
#1704=DIRECTION('',(0.,0.,1.));
#1705=DIRECTION('',(1.,0.,0.));
#1706=DIRECTION('',(0.,-1.,0.));
#1707=DIRECTION('',(0.,0.,1.));
#1708=DIRECTION('',(-1.,0.,0.));
#1709=DIRECTION('',(1.,0.,0.));
#1710=DIRECTION('',(0.,0.,1.));
#1711=DIRECTION('',(1.,0.,0.));
#1712=DIRECTION('',(-1.,0.,0.));
#1713=DIRECTION('',(0.,0.,1.));
#1714=DIRECTION('',(0.,0.,-1.));
#1715=DIRECTION('',(-1.,0.,0.));
#1716=DIRECTION('',(0.,0.,1.));
#1717=DIRECTION('',(0.,0.,-1.));
#1718=DIRECTION('',(0.,0.,-1.));
#1719=DIRECTION('',(-1.,0.,0.));
#1720=DIRECTION('',(0.,0.,-1.));
#1721=DIRECTION('',(-1.,0.,0.));
#1722=DIRECTION('',(0.,0.,1.));
#1723=DIRECTION('',(1.,0.,0.));
#1724=DIRECTION('',(0.,0.,-1.));
#1725=DIRECTION('',(-1.,0.,0.));
#1726=DIRECTION('',(0.,0.,1.));
#1727=DIRECTION('',(1.,0.,0.));
#1728=DIRECTION('',(0.,0.,-1.));
#1729=DIRECTION('',(-1.,0.,0.));
#1730=DIRECTION('',(0.,1.,0.));
#1731=DIRECTION('',(0.,0.,1.));
#1732=DIRECTION('',(0.,1.,0.));
#1733=DIRECTION('',(-5.5511151231258E-15,0.,1.));
#1734=DIRECTION('',(-1.,0.,0.));
#1735=DIRECTION('',(0.,1.,0.));
#1736=DIRECTION('',(-1.,0.,9.71445146547E-15));
#1737=DIRECTION('',(0.,0.,1.));
#1738=DIRECTION('',(0.,1.,0.));
#1739=DIRECTION('',(5.55111512312584E-15,0.,-1.));
#1740=DIRECTION('',(-1.,0.,0.));
#1741=DIRECTION('',(0.,1.,0.));
#1742=DIRECTION('',(1.,0.,0.));
#1743=DIRECTION('',(0.,0.,-1.));
#1744=DIRECTION('',(1.,3.65204942310906E-16,0.));
#1745=DIRECTION('',(-3.65204942310906E-16,1.,0.));
#1746=DIRECTION('',(0.,0.,-1.));
#1747=DIRECTION('',(3.65204942310906E-16,-1.,0.));
#1748=DIRECTION('',(0.,0.,-1.));
#1749=DIRECTION('',(-1.,0.,0.));
#1750=DIRECTION('',(0.,0.,-1.));
#1751=DIRECTION('',(0.,0.,1.));
#1752=DIRECTION('',(1.,0.,0.));
#1753=DIRECTION('',(0.,-1.,0.));
#1754=DIRECTION('',(0.,0.,-1.));
#1755=DIRECTION('',(-1.,0.,0.));
#1756=DIRECTION('',(0.,0.,1.));
#1757=DIRECTION('',(1.,0.,0.));
#1758=DIRECTION('',(0.,-1.,0.));
#1759=DIRECTION('',(0.,0.,-1.));
#1760=DIRECTION('',(0.,0.,-1.));
#1761=DIRECTION('',(0.,0.,-1.));
#1762=DIRECTION('',(-1.,0.,0.));
#1763=DIRECTION('',(0.,0.,-1.));
#1764=DIRECTION('',(-1.,0.,0.));
#1765=DIRECTION('',(0.,0.,-1.));
#1766=DIRECTION('',(0.,1.,0.));
#1767=DIRECTION('',(0.,0.,1.));
#1768=DIRECTION('',(0.,0.,-1.));
#1769=DIRECTION('',(0.,0.,-1.));
#1770=DIRECTION('',(-1.,0.,0.));
#1771=DIRECTION('',(0.,0.,-1.));
#1772=DIRECTION('',(0.,0.,1.));
#1773=DIRECTION('',(0.,1.,0.));
#1774=DIRECTION('',(0.,0.,-1.));
#1775=DIRECTION('',(1.,0.,0.));
#1776=DIRECTION('',(0.,0.,-1.));
#1777=DIRECTION('',(0.,-1.,0.));
#1778=DIRECTION('',(0.,1.,0.));
#1779=DIRECTION('',(0.,0.,1.));
#1780=DIRECTION('',(0.,0.,-1.));
#1781=DIRECTION('',(1.,0.,0.));
#1782=DIRECTION('',(0.,0.,1.));
#1783=DIRECTION('',(1.,0.,0.));
#1784=DIRECTION('',(0.,-1.,0.));
#1785=DIRECTION('',(-1.,0.,0.));
#1786=DIRECTION('',(0.,0.,1.));
#1787=DIRECTION('',(0.,0.,1.));
#1788=DIRECTION('',(1.,0.,0.));
#1789=DIRECTION('',(0.,0.,1.));
#1790=DIRECTION('',(1.,0.,0.));
#1791=DIRECTION('',(0.,0.,1.));
#1792=DIRECTION('',(1.,0.,0.));
#1793=DIRECTION('',(0.,0.,1.));
#1794=DIRECTION('',(1.,0.,0.));
#1795=DIRECTION('',(0.,0.,1.));
#1796=DIRECTION('',(1.,0.,0.));
#1797=DIRECTION('',(0.,0.,1.));
#1798=DIRECTION('',(1.,0.,0.));
#1799=DIRECTION('',(0.,0.,1.));
#1800=DIRECTION('',(1.,0.,0.));
#1801=DIRECTION('',(0.,0.,1.));
#1802=DIRECTION('',(1.,0.,0.));
#1803=DIRECTION('',(0.,0.,1.));
#1804=DIRECTION('',(1.,0.,0.));
#1805=DIRECTION('',(0.,0.,1.));
#1806=DIRECTION('',(1.,0.,0.));
#1807=DIRECTION('',(0.,0.,-1.));
#1808=DIRECTION('',(-1.,0.,0.));
#1809=DIRECTION('',(0.,0.,1.));
#1810=DIRECTION('',(1.,0.,0.));
#1811=DIRECTION('',(0.,0.,1.));
#1812=DIRECTION('',(1.,0.,0.));
#1813=DIRECTION('',(0.,0.,-1.));
#1814=DIRECTION('',(-1.,0.,0.));
#1815=DIRECTION('',(0.,0.,1.));
#1816=DIRECTION('',(1.,0.,0.));
#1817=DIRECTION('',(0.,0.,1.));
#1818=DIRECTION('',(1.,0.,0.));
#1819=DIRECTION('',(0.,0.,-1.));
#1820=DIRECTION('',(-1.,0.,0.));
#1821=DIRECTION('',(0.,0.,1.));
#1822=DIRECTION('',(1.,0.,0.));
#1823=DIRECTION('',(0.,0.,1.));
#1824=DIRECTION('',(1.,0.,0.));
#1825=DIRECTION('',(0.,0.,-1.));
#1826=DIRECTION('',(-1.,0.,0.));
#1827=DIRECTION('',(1.,0.,0.));
#1828=DIRECTION('',(0.,0.,-1.));
#1829=DIRECTION('',(0.,0.,-1.));
#1830=DIRECTION('',(1.,0.,0.));
#1831=DIRECTION('',(0.,0.,-1.));
#1832=DIRECTION('',(0.,0.,-1.));
#1833=DIRECTION('',(0.,1.,0.));
#1834=DIRECTION('',(-1.,0.,0.));
#1835=DIRECTION('',(0.,0.,-1.));
#1836=DIRECTION('',(-1.,0.,0.));
#1837=DIRECTION('',(0.,0.,-1.));
#1838=DIRECTION('',(0.,1.,0.));
#1839=DIRECTION('',(0.,0.,1.));
#1840=DIRECTION('',(0.,1.,0.));
#1841=DIRECTION('',(0.,0.,1.));
#1842=DIRECTION('',(0.,-1.,0.));
#1843=DIRECTION('',(0.,0.,-1.));
#1844=DIRECTION('',(0.,1.,0.));
#1845=DIRECTION('',(0.,0.,1.));
#1846=DIRECTION('',(0.,1.,0.));
#1847=DIRECTION('',(-1.,0.,0.));
#1848=DIRECTION('',(0.,-1.,0.));
#1849=DIRECTION('',(0.,0.,-1.));
#1850=DIRECTION('',(0.,1.,0.));
#1851=DIRECTION('',(0.,0.,1.));
#1852=DIRECTION('',(0.,1.,0.));
#1853=DIRECTION('',(-1.,0.,0.));
#1854=DIRECTION('',(0.,1.,0.));
#1855=DIRECTION('',(0.,0.,1.));
#1856=DIRECTION('',(0.,0.,-1.));
#1857=DIRECTION('',(1.,0.,0.));
#1858=DIRECTION('',(0.,0.,-1.));
#1859=DIRECTION('',(-1.,0.,0.));
#1860=DIRECTION('',(0.,0.,1.));
#1861=DIRECTION('',(0.,0.,-1.));
#1862=DIRECTION('',(0.,1.,0.));
#1863=DIRECTION('',(0.,1.,0.));
#1864=DIRECTION('',(0.,0.,1.));
#1865=DIRECTION('',(0.,0.,-1.));
#1866=DIRECTION('',(1.,0.,0.));
#1867=DIRECTION('',(-1.,0.,0.));
#1868=DIRECTION('',(0.,0.,1.));
#1869=DIRECTION('',(0.,1.,0.));
#1870=DIRECTION('',(0.,0.,-1.));
#1871=DIRECTION('',(1.,0.,0.));
#1872=DIRECTION('',(1.,0.,0.));
#1873=DIRECTION('',(0.,0.,-1.));
#1874=DIRECTION('',(0.,-1.,0.));
#1875=DIRECTION('',(1.,0.,0.));
#1876=DIRECTION('',(0.,0.,-1.));
#1877=DIRECTION('',(0.,-1.,0.));
#1878=DIRECTION('',(0.,0.,1.));
#1879=DIRECTION('',(1.,0.,0.));
#1880=DIRECTION('',(0.,0.,-1.));
#1881=DIRECTION('',(-1.,0.,0.));
#1882=DIRECTION('',(0.,1.,0.));
#1883=DIRECTION('',(0.,1.,0.));
#1884=DIRECTION('',(0.,1.,0.));
#1885=DIRECTION('',(0.,0.,1.));
#1886=DIRECTION('',(0.,1.,0.));
#1887=DIRECTION('',(1.,0.,0.));
#1888=DIRECTION('',(0.,0.,-1.));
#1889=DIRECTION('',(0.,1.,0.));
#1890=DIRECTION('',(0.,1.,0.));
#1891=DIRECTION('',(0.,0.,1.));
#1892=DIRECTION('',(0.,1.,0.));
#1893=DIRECTION('',(0.,0.,-1.));
#1894=DIRECTION('',(-1.,0.,0.));
#1895=DIRECTION('',(0.,1.,0.));
#1896=DIRECTION('',(0.,1.,0.));
#1897=DIRECTION('',(0.,0.,1.));
#1898=DIRECTION('',(0.,1.,0.));
#1899=DIRECTION('',(-1.,0.,0.));
#1900=DIRECTION('',(0.,0.,1.));
#1901=DIRECTION('',(0.,1.,0.));
#1902=DIRECTION('',(0.,1.,0.));
#1903=DIRECTION('',(0.,0.,1.));
#1904=CARTESIAN_POINT('',(0.,0.,0.));
#1905=CARTESIAN_POINT('',(0.0925,0.059,0.03));
#1906=CARTESIAN_POINT('',(0.185,0.059,0.03));
#1907=CARTESIAN_POINT('',(0.185,0.059,0.032));
#1908=CARTESIAN_POINT('',(0.185,0.059,0.0284));
#1909=CARTESIAN_POINT('',(0.0925,0.059,0.032));
#1910=CARTESIAN_POINT('',(-1.38777878078145E-17,0.059,0.032));
#1911=CARTESIAN_POINT('',(-4.33680868994202E-18,0.059,0.03));
#1912=CARTESIAN_POINT('',(-4.33680868994202E-18,0.059,0.0284));
#1913=CARTESIAN_POINT('',(0.0925,0.059,0.0284));
#1914=CARTESIAN_POINT('',(0.0095,0.059,0.0284));
#1915=CARTESIAN_POINT('',(0.0095,0.059,0.0284));
#1916=CARTESIAN_POINT('',(0.0095,0.059,0.005));
#1917=CARTESIAN_POINT('',(0.0925,0.059,0.005));
#1918=CARTESIAN_POINT('',(0.1755,0.059,0.005));
#1919=CARTESIAN_POINT('',(0.1755,0.059,0.0284));
#1920=CARTESIAN_POINT('',(0.1755,0.059,0.0284));
#1921=CARTESIAN_POINT('',(0.0925,0.059,0.0284));
#1922=CARTESIAN_POINT('',(0.0925,0.059,0.03035));
#1923=CARTESIAN_POINT('',(0.118225,0.059,0.03035));
#1924=CARTESIAN_POINT('',(0.10428,0.059,0.03035));
#1925=CARTESIAN_POINT('',(0.118225,0.059,0.02785));
#1926=CARTESIAN_POINT('',(0.120725,0.059,0.02785));
#1927=CARTESIAN_POINT('',(0.120725,0.059,0.03));
#1928=CARTESIAN_POINT('',(0.120725,0.059,0.02485));
#1929=CARTESIAN_POINT('',(0.118225,0.059,0.02485));
#1930=CARTESIAN_POINT('',(0.118225,0.059,0.02235));
#1931=CARTESIAN_POINT('',(0.0925,0.059,0.02235));
#1932=CARTESIAN_POINT('',(0.10428,0.059,0.02235));
#1933=CARTESIAN_POINT('',(0.10428,0.059,0.02485));
#1934=CARTESIAN_POINT('',(0.10178,0.059,0.02485));
#1935=CARTESIAN_POINT('',(0.10178,0.059,0.03));
#1936=CARTESIAN_POINT('',(0.10178,0.059,0.02785));
#1937=CARTESIAN_POINT('',(0.10428,0.059,0.02785));
#1938=CARTESIAN_POINT('',(0.0925,0.0295,0.005));
#1939=CARTESIAN_POINT('',(0.117869260818769,-0.00194,0.005));
#1940=CARTESIAN_POINT('',(0.117869260818769,-0.00069,0.005));
#1941=CARTESIAN_POINT('',(0.117869260818769,-0.00319,0.005));
#1942=CARTESIAN_POINT('',(0.117869260818769,-0.005095,0.005));
#1943=CARTESIAN_POINT('',(0.117869260818769,-0.007,0.005));
#1944=CARTESIAN_POINT('',(0.0925,-0.007,0.005));
#1945=CARTESIAN_POINT('',(0.132869260818769,-0.007,0.005));
#1946=CARTESIAN_POINT('',(0.132869260818769,-0.007,0.005));
#1947=CARTESIAN_POINT('',(0.132869260818769,-2.60208521396521E-18,0.005));
#1948=CARTESIAN_POINT('',(0.0925,-4.33680868994202E-18,0.005));
#1949=CARTESIAN_POINT('',(0.1755,-8.67361737988404E-19,0.005));
#1950=CARTESIAN_POINT('',(0.1755,-0.00025,0.005));
#1951=CARTESIAN_POINT('',(0.1755,0.0045,0.005));
#1952=CARTESIAN_POINT('',(0.1805,0.0045,0.005));
#1953=CARTESIAN_POINT('',(0.1805,0.0095,0.005));
#1954=CARTESIAN_POINT('',(0.18525,0.0095,0.005));
#1955=CARTESIAN_POINT('',(0.185,0.0095,0.005));
#1956=CARTESIAN_POINT('',(0.185,0.0295,0.005));
#1957=CARTESIAN_POINT('',(0.185,0.0495,0.005));
#1958=CARTESIAN_POINT('',(0.18525,0.0495,0.005));
#1959=CARTESIAN_POINT('',(0.1805,0.0495,0.005));
#1960=CARTESIAN_POINT('',(0.1805,0.0545,0.005));
#1961=CARTESIAN_POINT('',(0.1755,0.0545,0.005));
#1962=CARTESIAN_POINT('',(0.1755,0.05925,0.005));
#1963=CARTESIAN_POINT('',(0.0095,0.05925,0.005));
#1964=CARTESIAN_POINT('',(0.0095,0.0545,0.005));
#1965=CARTESIAN_POINT('',(0.0045,0.0545,0.005));
#1966=CARTESIAN_POINT('',(0.0045,0.0495,0.005));
#1967=CARTESIAN_POINT('',(-0.000250000000000018,0.0495,0.005));
#1968=CARTESIAN_POINT('',(-1.80519661718836E-17,0.0495,0.005));
#1969=CARTESIAN_POINT('',(-1.82145964977565E-17,0.0295,0.005));
#1970=CARTESIAN_POINT('',(-4.17417836406919E-18,0.0095,0.005));
#1971=CARTESIAN_POINT('',(-0.000250000000000005,0.0095,0.005));
#1972=CARTESIAN_POINT('',(0.0045,0.0095,0.005));
#1973=CARTESIAN_POINT('',(0.0045,0.0045,0.005));
#1974=CARTESIAN_POINT('',(0.0095,0.0045,0.005));
#1975=CARTESIAN_POINT('',(0.0095,-0.00025,0.005));
#1976=CARTESIAN_POINT('',(0.0095,-8.67361737988404E-19,0.005));
#1977=CARTESIAN_POINT('',(0.0925,-4.33680868994202E-18,0.005));
#1978=CARTESIAN_POINT('',(0.0528692608187691,-2.60208521396521E-18,0.005));
#1979=CARTESIAN_POINT('',(0.0528692608187691,-0.007,0.005));
#1980=CARTESIAN_POINT('',(0.0528692608187691,-0.007,0.005));
#1981=CARTESIAN_POINT('',(0.0925,-0.007,0.005));
#1982=CARTESIAN_POINT('',(0.0678692608187691,-0.007,0.005));
#1983=CARTESIAN_POINT('',(0.0678692608187691,-0.005095,0.005));
#1984=CARTESIAN_POINT('',(0.0678692608187691,-0.00319,0.005));
#1985=CARTESIAN_POINT('',(0.0678692608187691,-0.00194,0.005));
#1986=CARTESIAN_POINT('',(0.0678692608187691,-0.000690000000000008,0.005));
#1987=CARTESIAN_POINT('',(0.0928692608187691,-0.00069,0.005));
#1988=CARTESIAN_POINT('',(0.0925,0.0295,0.));
#1989=CARTESIAN_POINT('',(0.19,-0.005,0.));
#1990=CARTESIAN_POINT('',(0.1935,-0.005,0.));
#1991=CARTESIAN_POINT('',(0.19,0.064,0.));
#1992=CARTESIAN_POINT('',(0.1935,0.064,0.));
#1993=CARTESIAN_POINT('',(-0.005,0.064,0.));
#1994=CARTESIAN_POINT('',(-0.0015,0.064,0.));
#1995=CARTESIAN_POINT('',(-0.005,-0.005,0.));
#1996=CARTESIAN_POINT('',(-0.0015,-0.005,0.));
#1997=CARTESIAN_POINT('',(0.1805,0.0545,0.));
#1998=CARTESIAN_POINT('',(0.1821,0.0545,0.));
#1999=CARTESIAN_POINT('',(0.1805,0.0045,0.));
#2000=CARTESIAN_POINT('',(0.1821,0.0045,0.));
#2001=CARTESIAN_POINT('',(0.0045,0.0045,0.));
#2002=CARTESIAN_POINT('',(0.0061,0.0045,0.));
#2003=CARTESIAN_POINT('',(0.0045,0.0545,0.));
#2004=CARTESIAN_POINT('',(0.0061,0.0545,0.));
#2005=CARTESIAN_POINT('',(-0.01,0.032,0.));
#2006=CARTESIAN_POINT('',(-0.01,-0.01,0.));
#2007=CARTESIAN_POINT('',(-0.01,0.069,0.));
#2008=CARTESIAN_POINT('',(0.0925,0.069,0.));
#2009=CARTESIAN_POINT('',(0.195,0.069,0.));
#2010=CARTESIAN_POINT('',(0.195,0.0295,0.));
#2011=CARTESIAN_POINT('',(0.195,-0.01,0.));
#2012=CARTESIAN_POINT('',(0.095,-0.01,0.));
#2013=CARTESIAN_POINT('',(0.0928692608187691,-0.00569,0.));
#2014=CARTESIAN_POINT('',(0.0528692608187691,-0.00569,0.));
#2015=CARTESIAN_POINT('',(0.132869260818769,-0.00569,0.));
#2016=CARTESIAN_POINT('',(0.132869260818769,-0.00194000000000007,0.));
#2017=CARTESIAN_POINT('',(0.132869260818769,0.00180999999999993,0.));
#2018=CARTESIAN_POINT('',(0.0928692608187691,0.00180999999999993,0.));
#2019=CARTESIAN_POINT('',(0.0528692608187691,0.00180999999999993,0.));
#2020=CARTESIAN_POINT('',(0.0528692608187691,-0.00194000000000007,0.));
#2021=CARTESIAN_POINT('',(0.0803692608187691,-0.00319,-0.02));
#2022=CARTESIAN_POINT('',(0.117869260818769,-0.00319,-0.02));
#2023=CARTESIAN_POINT('',(0.117869260818769,-0.00319,0.002));
#2024=CARTESIAN_POINT('',(0.0925,-0.00319,0.002));
#2025=CARTESIAN_POINT('',(0.0678692608187691,-0.00319,0.002));
#2026=CARTESIAN_POINT('',(0.0678692608187691,-0.00319,-0.02));
#2027=CARTESIAN_POINT('',(0.0678692608187691,-0.00319,0.008));
#2028=CARTESIAN_POINT('',(0.0678692608187691,-0.00319,0.008));
#2029=CARTESIAN_POINT('',(0.0803692608187691,-0.00319,0.008));
#2030=CARTESIAN_POINT('',(0.117869260818769,-0.00319,0.008));
#2031=CARTESIAN_POINT('',(0.117869260818769,-0.00319,0.008));
#2032=CARTESIAN_POINT('',(0.117869260818769,-0.00194,-0.02));
#2033=CARTESIAN_POINT('',(0.117869260818769,-0.00069,-0.02));
#2034=CARTESIAN_POINT('',(0.117869260818769,-0.00069,0.002));
#2035=CARTESIAN_POINT('',(0.117869260818769,0.0295,0.002));
#2036=CARTESIAN_POINT('',(0.0928692608187691,-0.00069,-0.02));
#2037=CARTESIAN_POINT('',(0.0678692608187691,-0.000690000000000008,-0.02));
#2038=CARTESIAN_POINT('',(0.0678692608187691,-0.000690000000000008,0.002));
#2039=CARTESIAN_POINT('',(0.0925,-0.00069,0.002));
#2040=CARTESIAN_POINT('',(0.0678692608187691,-0.00194,-0.02));
#2041=CARTESIAN_POINT('',(0.0678692608187691,0.0295,0.002));
#2042=CARTESIAN_POINT('',(0.095,-8.67361737988404E-19,0.03));
#2043=CARTESIAN_POINT('',(0.095,-8.67361737988404E-19,0.032));
#2044=CARTESIAN_POINT('',(-8.67361737988403E-19,0.,0.032));
#2045=CARTESIAN_POINT('',(0.0528692608187691,-8.67361737988404E-19,0.032));
#2046=CARTESIAN_POINT('',(0.0528692608187691,-8.67361737988404E-19,0.0185));
#2047=CARTESIAN_POINT('',(0.0095,-4.33680868994202E-18,0.0284));
#2048=CARTESIAN_POINT('',(0.0095,0.,0.0284));
#2049=CARTESIAN_POINT('',(0.0925,-4.33680868994202E-18,0.0284));
#2050=CARTESIAN_POINT('',(-7.97972798949333E-18,0.,0.0284));
#2051=CARTESIAN_POINT('',(8.67361737988404E-19,8.67361737988404E-19,0.03));
#2052=CARTESIAN_POINT('',(0.0925,0.0295,0.032));
#2053=CARTESIAN_POINT('',(0.19,0.064,0.032));
#2054=CARTESIAN_POINT('',(0.19,0.0624,0.032));
#2055=CARTESIAN_POINT('',(0.19,-0.005,0.032));
#2056=CARTESIAN_POINT('',(0.1884,-0.00500000000000003,0.032));
#2057=CARTESIAN_POINT('',(-0.005,-0.005,0.032));
#2058=CARTESIAN_POINT('',(-0.005,-0.0034,0.032));
#2059=CARTESIAN_POINT('',(-0.005,0.064,0.032));
#2060=CARTESIAN_POINT('',(-0.0034,0.064,0.032));
#2061=CARTESIAN_POINT('',(-0.0075,-0.01,0.032));
#2062=CARTESIAN_POINT('',(0.195,-0.01,0.032));
#2063=CARTESIAN_POINT('',(-0.01,-0.01,0.032));
#2064=CARTESIAN_POINT('',(0.195,0.0295,0.032));
#2065=CARTESIAN_POINT('',(0.195,0.069,0.032));
#2066=CARTESIAN_POINT('',(0.0925,0.069,0.032));
#2067=CARTESIAN_POINT('',(-0.01,0.069,0.032));
#2068=CARTESIAN_POINT('',(-0.01,-0.0075,0.032));
#2069=CARTESIAN_POINT('',(0.095,-0.007,0.032));
#2070=CARTESIAN_POINT('',(0.0528692608187691,-0.007,0.032));
#2071=CARTESIAN_POINT('',(0.132869260818769,-0.007,0.032));
#2072=CARTESIAN_POINT('',(0.0528692608187691,-0.007,0.032));
#2073=CARTESIAN_POINT('',(0.,-0.0025,0.032));
#2074=CARTESIAN_POINT('',(0.185,0.0295,0.032));
#2075=CARTESIAN_POINT('',(0.185,0.,0.032));
#2076=CARTESIAN_POINT('',(0.095,-8.67361737988404E-19,0.032));
#2077=CARTESIAN_POINT('',(0.132869260818769,-8.67361737988404E-19,0.032));
#2078=CARTESIAN_POINT('',(0.132869260818769,-0.007,0.032));
#2079=CARTESIAN_POINT('',(0.0623692608187691,-0.025,0.0185));
#2080=CARTESIAN_POINT('',(0.0623692608187691,-0.025,0.0105));
#2081=CARTESIAN_POINT('',(0.0623692608187691,-0.01,0.0105));
#2082=CARTESIAN_POINT('',(0.0623692608187691,-0.007,0.0105));
#2083=CARTESIAN_POINT('',(0.0623692608187691,-0.007,0.0185));
#2084=CARTESIAN_POINT('',(0.0623692608187691,-0.007,0.0265));
#2085=CARTESIAN_POINT('',(0.0623692608187691,-0.025,0.0265));
#2086=CARTESIAN_POINT('',(0.0623692608187691,-0.01,0.0265));
#2087=CARTESIAN_POINT('',(0.0623692608187691,-0.01,0.005));
#2088=CARTESIAN_POINT('',(0.0928692608187691,-0.025,0.0265));
#2089=CARTESIAN_POINT('',(0.0928692608187691,-0.007,0.0265));
#2090=CARTESIAN_POINT('',(0.123369260818769,-0.007,0.0265));
#2091=CARTESIAN_POINT('',(0.123369260818769,-0.025,0.0265));
#2092=CARTESIAN_POINT('',(0.123369260818769,-0.01,0.0265));
#2093=CARTESIAN_POINT('',(0.095,-0.01,0.0265));
#2094=CARTESIAN_POINT('',(0.123369260818769,-0.025,0.0185));
#2095=CARTESIAN_POINT('',(0.123369260818769,-0.007,0.0185));
#2096=CARTESIAN_POINT('',(0.123369260818769,-0.007,0.0105));
#2097=CARTESIAN_POINT('',(0.123369260818769,-0.025,0.0105));
#2098=CARTESIAN_POINT('',(0.123369260818769,-0.01,0.0105));
#2099=CARTESIAN_POINT('',(0.123369260818769,-0.01,0.005));
#2100=CARTESIAN_POINT('',(0.0928692608187691,-0.025,0.0105));
#2101=CARTESIAN_POINT('',(0.0928692608187691,-0.007,0.0105));
#2102=CARTESIAN_POINT('',(0.095,-0.01,0.0105));
#2103=CARTESIAN_POINT('',(0.095,-0.01,0.005));
#2104=CARTESIAN_POINT('',(0.195,-0.01,0.005));
#2105=CARTESIAN_POINT('',(-0.01,-0.01,0.005));
#2106=CARTESIAN_POINT('',(0.095,-8.67361737988404E-19,0.03));
#2107=CARTESIAN_POINT('',(0.132869260818769,-8.67361737988404E-19,0.0185));
#2108=CARTESIAN_POINT('',(0.185,6.07153216591882E-18,0.03));
#2109=CARTESIAN_POINT('',(0.185,0.,0.0284));
#2110=CARTESIAN_POINT('',(0.0925,-4.33680868994202E-18,0.0284));
#2111=CARTESIAN_POINT('',(0.1755,-4.33680868994202E-18,0.0284));
#2112=CARTESIAN_POINT('',(0.1755,-4.33680868994202E-18,0.0284));
#2113=CARTESIAN_POINT('',(0.,-0.0025,0.03));
#2114=CARTESIAN_POINT('',(-1.82145964977565E-17,0.0295,0.0284));
#2115=CARTESIAN_POINT('',(-4.44522890719057E-18,0.0095,0.0284));
#2116=CARTESIAN_POINT('',(-1.12757025938492E-17,0.0095,0.0284));
#2117=CARTESIAN_POINT('',(-2.51534904016637E-17,0.0495,0.0284));
#2118=CARTESIAN_POINT('',(-2.33103467084383E-17,0.0495,0.0284));
#2119=CARTESIAN_POINT('',(-1.82145964977565E-17,0.0295,0.0284));
#2120=CARTESIAN_POINT('',(0.0095,0.05925,0.0284));
#2121=CARTESIAN_POINT('',(0.0095,0.05925,0.0284));
#2122=CARTESIAN_POINT('',(0.0095,0.0545,0.0284));
#2123=CARTESIAN_POINT('',(0.0095,0.0545,0.0284));
#2124=CARTESIAN_POINT('',(0.0925,0.0295,0.0284));
#2125=CARTESIAN_POINT('',(0.0045,0.0545,0.0284));
#2126=CARTESIAN_POINT('',(0.0061,0.0545,0.0284));
#2127=CARTESIAN_POINT('',(-0.000250000000000018,0.0495,0.0284));
#2128=CARTESIAN_POINT('',(0.0045,0.0495,0.0284));
#2129=CARTESIAN_POINT('',(0.0045,0.0545,0.0284));
#2130=CARTESIAN_POINT('',(0.1755,0.05925,0.0284));
#2131=CARTESIAN_POINT('',(0.1755,0.05925,0.0284));
#2132=CARTESIAN_POINT('',(0.1755,0.0545,0.0284));
#2133=CARTESIAN_POINT('',(0.1755,0.0545,0.0284));
#2134=CARTESIAN_POINT('',(0.0925,0.0295,0.0284));
#2135=CARTESIAN_POINT('',(0.185,0.0295,0.0284));
#2136=CARTESIAN_POINT('',(0.185,0.0495,0.0284));
#2137=CARTESIAN_POINT('',(0.1805,0.0545,0.0284));
#2138=CARTESIAN_POINT('',(0.1805,0.0495,0.0284));
#2139=CARTESIAN_POINT('',(0.18525,0.0495,0.0284));
#2140=CARTESIAN_POINT('',(0.1805,0.0545,0.0284));
#2141=CARTESIAN_POINT('',(0.1821,0.0545,0.0284));
#2142=CARTESIAN_POINT('',(-0.01,0.032,0.005));
#2143=CARTESIAN_POINT('',(-0.01,0.069,0.005));
#2144=CARTESIAN_POINT('',(0.195,0.0295,0.005));
#2145=CARTESIAN_POINT('',(0.195,0.069,0.005));
#2146=CARTESIAN_POINT('',(0.0045,0.0545,0.005));
#2147=CARTESIAN_POINT('',(0.0045,0.0045,0.005));
#2148=CARTESIAN_POINT('',(0.0045,0.0045,0.0284));
#2149=CARTESIAN_POINT('',(0.0061,0.0045,0.0284));
#2150=CARTESIAN_POINT('',(0.1805,0.0045,0.005));
#2151=CARTESIAN_POINT('',(0.1805,0.0045,0.0284));
#2152=CARTESIAN_POINT('',(0.1821,0.0045,0.0284));
#2153=CARTESIAN_POINT('',(0.1805,0.0545,0.005));
#2154=CARTESIAN_POINT('',(0.0925,0.069,0.005));
#2155=CARTESIAN_POINT('',(0.118225,0.069,0.02785));
#2156=CARTESIAN_POINT('',(0.118225,0.069,0.03035));
#2157=CARTESIAN_POINT('',(0.120725,0.069,0.02785));
#2158=CARTESIAN_POINT('',(0.1166125,0.069,0.03035));
#2159=CARTESIAN_POINT('',(0.10428,0.069,0.03035));
#2160=CARTESIAN_POINT('',(0.10428,0.069,0.02785));
#2161=CARTESIAN_POINT('',(0.10178,0.069,0.02785));
#2162=CARTESIAN_POINT('',(0.10178,0.069,0.02635));
#2163=CARTESIAN_POINT('',(0.10178,0.069,0.02485));
#2164=CARTESIAN_POINT('',(0.10428,0.069,0.02485));
#2165=CARTESIAN_POINT('',(0.10428,0.069,0.02235));
#2166=CARTESIAN_POINT('',(0.1112525,0.069,0.02235));
#2167=CARTESIAN_POINT('',(0.118225,0.069,0.02235));
#2168=CARTESIAN_POINT('',(0.118225,0.069,0.02485));
#2169=CARTESIAN_POINT('',(0.120725,0.069,0.02485));
#2170=CARTESIAN_POINT('',(0.120725,0.069,0.02635));
#2171=CARTESIAN_POINT('',(0.0095,-0.00025,0.0284));
#2172=CARTESIAN_POINT('',(0.0095,0.0045,0.0284));
#2173=CARTESIAN_POINT('',(0.0095,0.0045,0.0284));
#2174=CARTESIAN_POINT('',(0.0095,-0.00025,0.0284));
#2175=CARTESIAN_POINT('',(0.0045,0.0045,0.0284));
#2176=CARTESIAN_POINT('',(0.0045,0.0095,0.0284));
#2177=CARTESIAN_POINT('',(0.0045,0.0095,0.0284));
#2178=CARTESIAN_POINT('',(0.0045,0.0045,0.0284));
#2179=CARTESIAN_POINT('',(-0.000250000000000005,0.0095,0.0284));
#2180=CARTESIAN_POINT('',(-0.000250000000000005,0.0095,0.0284));
#2181=CARTESIAN_POINT('',(0.0925,0.0295,0.0284));
#2182=CARTESIAN_POINT('',(-0.000250000000000018,0.0495,0.0284));
#2183=CARTESIAN_POINT('',(0.0045,0.0495,0.0284));
#2184=CARTESIAN_POINT('',(0.0045,0.0545,0.0284));
#2185=CARTESIAN_POINT('',(0.1805,0.0545,0.0284));
#2186=CARTESIAN_POINT('',(0.1805,0.0495,0.0284));
#2187=CARTESIAN_POINT('',(0.18525,0.0495,0.0284));
#2188=CARTESIAN_POINT('',(0.185,0.0495,0.0284));
#2189=CARTESIAN_POINT('',(0.1805,0.0045,0.0284));
#2190=CARTESIAN_POINT('',(0.1755,0.0045,0.0284));
#2191=CARTESIAN_POINT('',(0.1755,0.0045,0.0284));
#2192=CARTESIAN_POINT('',(0.1805,0.0045,0.0284));
#2193=CARTESIAN_POINT('',(0.1805,0.0095,0.0284));
#2194=CARTESIAN_POINT('',(0.1805,0.0095,0.0284));
#2195=CARTESIAN_POINT('',(0.1755,-0.00025,0.0284));
#2196=CARTESIAN_POINT('',(0.1755,-0.00025,0.0284));
#2197=CARTESIAN_POINT('',(0.18525,0.0095,0.0284));
#2198=CARTESIAN_POINT('',(0.185,0.0095,0.0284));
#2199=CARTESIAN_POINT('',(0.185,0.0095,0.0284));
#2200=CARTESIAN_POINT('',(0.18525,0.0095,0.0284));
#2201=CARTESIAN_POINT('',(0.0925,0.0295,0.0284));
#2202=CARTESIAN_POINT('',(0.185,0.0295,0.0284));
#2203=CARTESIAN_POINT('',(0.185,0.0295,0.03));
#2204=CARTESIAN_POINT('',(-0.005,0.064,-0.068));
#2205=CARTESIAN_POINT('',(-0.005,0.064,0.005));
#2206=CARTESIAN_POINT('',(-0.0034,0.064,0.005));
#2207=CARTESIAN_POINT('',(-0.005,-0.005,-0.068));
#2208=CARTESIAN_POINT('',(-0.005,-0.005,0.005));
#2209=CARTESIAN_POINT('',(-0.0034,-0.005,0.005));
#2210=CARTESIAN_POINT('',(0.19,-0.005,-0.068));
#2211=CARTESIAN_POINT('',(0.19,-0.005,0.005));
#2212=CARTESIAN_POINT('',(0.1916,-0.005,0.005));
#2213=CARTESIAN_POINT('',(0.19,0.064,-0.068));
#2214=CARTESIAN_POINT('',(0.19,0.064,0.005));
#2215=CARTESIAN_POINT('',(0.1916,0.064,0.005));
#2216=CARTESIAN_POINT('',(0.0925,0.0295,0.005));
#2217=CARTESIAN_POINT('',(0.19,0.064,0.005));
#2218=CARTESIAN_POINT('',(0.1935,0.064,0.005));
#2219=CARTESIAN_POINT('',(0.19,0.064,0.005));
#2220=CARTESIAN_POINT('',(0.0925,0.0295,0.005));
#2221=CARTESIAN_POINT('',(0.19,-0.005,0.005));
#2222=CARTESIAN_POINT('',(0.1935,-0.005,0.005));
#2223=CARTESIAN_POINT('',(0.19,-0.005,0.005));
#2224=CARTESIAN_POINT('',(0.0925,0.0295,0.005));
#2225=CARTESIAN_POINT('',(-0.005,-0.005,0.005));
#2226=CARTESIAN_POINT('',(-0.0015,-0.005,0.005));
#2227=CARTESIAN_POINT('',(-0.005,-0.005,0.005));
#2228=CARTESIAN_POINT('',(0.0925,0.0295,0.005));
#2229=CARTESIAN_POINT('',(-0.005,0.064,0.005));
#2230=CARTESIAN_POINT('',(-0.0015,0.064,0.005));
#2231=CARTESIAN_POINT('',(-0.005,0.064,0.005));
#2232=CARTESIAN_POINT('',(0.132869260818769,-0.007,0.0185));
#2233=CARTESIAN_POINT('',(0.132869260818769,-0.007,0.0185));
#2234=CARTESIAN_POINT('',(0.0528692608187691,-0.007,0.0185));
#2235=CARTESIAN_POINT('',(0.0528692608187691,-0.007,0.0185));
#2236=CARTESIAN_POINT('',(0.0925,-0.007,0.0185));
#2237=CARTESIAN_POINT('',(0.117869260818769,-0.007,0.008));
#2238=CARTESIAN_POINT('',(0.117869260818769,-0.007,0.008));
#2239=CARTESIAN_POINT('',(0.0925,-0.007,0.008));
#2240=CARTESIAN_POINT('',(0.0678692608187691,-0.007,0.008));
#2241=CARTESIAN_POINT('',(0.0678692608187691,-0.007,0.008));
#2242=CARTESIAN_POINT('',(0.0569192608187691,-0.007,0.02669));
#2243=CARTESIAN_POINT('',(0.0569192608187691,-0.007,0.02789));
#2244=CARTESIAN_POINT('',(0.0569192608187691,-0.007,0.01043));
#2245=CARTESIAN_POINT('',(0.0569192608187691,-0.007,0.01163));
#2246=CARTESIAN_POINT('',(0.0569192608187691,-0.00344,0.01043));
#2247=CARTESIAN_POINT('',(0.0569192608187691,-0.00344,0.01043));
#2248=CARTESIAN_POINT('',(0.0569192608187691,-0.00344,0.01163));
#2249=CARTESIAN_POINT('',(0.0928692608187691,-0.00344,0.0185));
#2250=CARTESIAN_POINT('',(0.0569192608187691,-0.00344,0.02669));
#2251=CARTESIAN_POINT('',(0.0569192608187691,-0.00344,0.02669));
#2252=CARTESIAN_POINT('',(0.0569192608187691,-0.00344,0.02789));
#2253=CARTESIAN_POINT('',(0.0928692608187691,-0.00344,0.0185));
#2254=CARTESIAN_POINT('',(0.0928692608187691,-0.00569,0.002));
#2255=CARTESIAN_POINT('',(0.0528692608187691,-0.00569,0.002));
#2256=CARTESIAN_POINT('',(0.0528692608187691,-0.00569,0.002));
#2257=CARTESIAN_POINT('',(0.0928692608187691,-0.00569,0.002));
#2258=CARTESIAN_POINT('',(0.132869260818769,-0.00569,0.002));
#2259=CARTESIAN_POINT('',(0.132869260818769,-0.00569,0.002));
#2260=CARTESIAN_POINT('',(0.0528692608187691,-0.00194000000000007,0.002));
#2261=CARTESIAN_POINT('',(0.0528692608187691,0.00180999999999993,0.002));
#2262=CARTESIAN_POINT('',(0.0528692608187691,0.00180999999999993,0.002));
#2263=CARTESIAN_POINT('',(0.0528692608187691,-0.00194000000000007,0.002));
#2264=CARTESIAN_POINT('',(0.0928692608187691,0.00180999999999993,0.002));
#2265=CARTESIAN_POINT('',(0.132869260818769,0.00180999999999993,0.002));
#2266=CARTESIAN_POINT('',(0.132869260818769,0.00180999999999993,0.002));
#2267=CARTESIAN_POINT('',(0.0928692608187691,0.00180999999999993,0.002));
#2268=CARTESIAN_POINT('',(0.132869260818769,-0.00194000000000007,0.002));
#2269=CARTESIAN_POINT('',(0.132869260818769,-0.00194000000000007,0.002));
#2270=CARTESIAN_POINT('',(0.0925,0.0295,0.002));
#2271=CARTESIAN_POINT('',(0.0678692608187691,-0.005095,0.008));
#2272=CARTESIAN_POINT('',(0.0678692608187691,-0.005095,0.008));
#2273=CARTESIAN_POINT('',(0.117869260818769,-0.005095,0.008));
#2274=CARTESIAN_POINT('',(0.117869260818769,-0.005095,0.008));
#2275=CARTESIAN_POINT('',(0.0925,0.026,0.008));
#2276=CARTESIAN_POINT('',(0.1166125,0.044,0.03035));
#2277=CARTESIAN_POINT('',(0.10428,0.044,0.03035));
#2278=CARTESIAN_POINT('',(0.118225,0.044,0.03035));
#2279=CARTESIAN_POINT('',(0.118225,0.044,0.02785));
#2280=CARTESIAN_POINT('',(0.120725,0.044,0.02785));
#2281=CARTESIAN_POINT('',(0.120725,0.044,0.02635));
#2282=CARTESIAN_POINT('',(0.120725,0.044,0.02485));
#2283=CARTESIAN_POINT('',(0.118225,0.044,0.02485));
#2284=CARTESIAN_POINT('',(0.118225,0.044,0.02235));
#2285=CARTESIAN_POINT('',(0.1112525,0.044,0.02235));
#2286=CARTESIAN_POINT('',(0.10428,0.044,0.02235));
#2287=CARTESIAN_POINT('',(0.10428,0.044,0.02485));
#2288=CARTESIAN_POINT('',(0.10178,0.044,0.02485));
#2289=CARTESIAN_POINT('',(0.10178,0.044,0.02635));
#2290=CARTESIAN_POINT('',(0.10178,0.044,0.02785));
#2291=CARTESIAN_POINT('',(0.10428,0.044,0.02785));
#2292=MECHANICAL_DESIGN_GEOMETRIC_PRESENTATION_REPRESENTATION('',(#1395),
#2293);
#2293=(
GEOMETRIC_REPRESENTATION_CONTEXT(3)
GLOBAL_UNCERTAINTY_ASSIGNED_CONTEXT((#2294))
GLOBAL_UNIT_ASSIGNED_CONTEXT((#2297,#2296,#2295))
REPRESENTATION_CONTEXT('Part 1','TOP_LEVEL_ASSEMBLY_PART')
);
#2294=UNCERTAINTY_MEASURE_WITH_UNIT(LENGTH_MEASURE(1.E-8),#2297,
'DISTANCE_ACCURACY_VALUE','Maximum Tolerance applied to model');
#2295=(
NAMED_UNIT(*)
SI_UNIT($,.STERADIAN.)
SOLID_ANGLE_UNIT()
);
#2296=(
NAMED_UNIT(*)
PLANE_ANGLE_UNIT()
SI_UNIT($,.RADIAN.)
);
#2297=(
LENGTH_UNIT()
NAMED_UNIT(*)
SI_UNIT($,.METRE.)
);
#2298=PRODUCT_DEFINITION_SHAPE('','',#2299);
#2299=PRODUCT_DEFINITION('','',#2301,#2300);
#2300=PRODUCT_DEFINITION_CONTEXT('',#2307,'design');
#2301=PRODUCT_DEFINITION_FORMATION_WITH_SPECIFIED_SOURCE('','',#2303,
 .NOT_KNOWN.);
#2302=PRODUCT_RELATED_PRODUCT_CATEGORY('','',(#2303));
#2303=PRODUCT('Part 1','Part 1','Part 1',(#2305));
#2304=PRODUCT_CATEGORY('','');
#2305=PRODUCT_CONTEXT('',#2307,'mechanical');
#2306=APPLICATION_PROTOCOL_DEFINITION('international standard',
'ap242_managed_model_based_3d_engineering',2020,#2307);
#2307=APPLICATION_CONTEXT('managed model based 3d engineering');
ENDSEC;
END-ISO-10303-21;
