ISO-10303-21;
HEADER;
/* Generated by software containing ST-Developer
 * from STEP Tools, Inc. (www.steptools.com) 
 */
/* OPTION: using custom renumber hook */

FILE_DESCRIPTION(
/* description */ ('STEP AP242 Edition 2',
'CAx-IF Rec.Pracs.---Representation and Presentation of Product Manufa
cturing Information (PMI)---4.0---2014-10-13',
'CAx-IF Rec.Pracs.---3D Tessellated Geometry---0.4---2014-09-14','2;1',
'CAx-IF Rec.Pracs.---User Defined Attributes---1.5---2016-08-15'),
/* implementation_level */ '2;1');

FILE_NAME(
/* name */ 'MIDDLE CASE',
/* time_stamp */ '2026-09-27T01:48:16Z',
/* author */ (''),
/* organization */ (''),
/* preprocessor_version */ 'ST-DEVELOPER v20',
/* originating_system */ 'ONSHAPE BY PTC INC, 1.221',
/* authorisation */ '  ');

FILE_SCHEMA (('AP242_MANAGED_MODEL_BASED_3D_ENGINEERING_MIM_LF { 1 0 10303 442 3 1 4 }'));
ENDSEC;

DATA;
#10=SHAPE_REPRESENTATION_RELATIONSHIP('','',#1259,#11);
#11=ADVANCED_BREP_SHAPE_REPRESENTATION('',(#1257),#2105);
#12=PLANE('',#1264);
#13=PLANE('',#1268);
#14=PLANE('',#1272);
#15=PLANE('',#1279);
#16=PLANE('',#1283);
#17=PLANE('',#1287);
#18=PLANE('',#1294);
#19=PLANE('',#1298);
#20=PLANE('',#1302);
#21=PLANE('',#1309);
#22=PLANE('',#1313);
#23=PLANE('',#1317);
#24=PLANE('',#1324);
#25=PLANE('',#1328);
#26=PLANE('',#1332);
#27=PLANE('',#1339);
#28=PLANE('',#1343);
#29=PLANE('',#1347);
#30=PLANE('',#1351);
#31=PLANE('',#1352);
#32=PLANE('',#1353);
#33=PLANE('',#1354);
#34=PLANE('',#1355);
#35=PLANE('',#1356);
#36=PLANE('',#1357);
#37=PLANE('',#1366);
#38=PLANE('',#1375);
#39=PLANE('',#1376);
#40=PLANE('',#1377);
#41=PLANE('',#1378);
#42=LINE('',#1754,#150);
#43=LINE('',#1758,#151);
#44=LINE('',#1760,#152);
#45=LINE('',#1762,#153);
#46=LINE('',#1764,#154);
#47=LINE('',#1768,#155);
#48=LINE('',#1772,#156);
#49=LINE('',#1774,#157);
#50=LINE('',#1776,#158);
#51=LINE('',#1780,#159);
#52=LINE('',#1784,#160);
#53=LINE('',#1786,#161);
#54=LINE('',#1788,#162);
#55=LINE('',#1792,#163);
#56=LINE('',#1799,#164);
#57=LINE('',#1803,#165);
#58=LINE('',#1805,#166);
#59=LINE('',#1807,#167);
#60=LINE('',#1809,#168);
#61=LINE('',#1813,#169);
#62=LINE('',#1817,#170);
#63=LINE('',#1819,#171);
#64=LINE('',#1821,#172);
#65=LINE('',#1825,#173);
#66=LINE('',#1829,#174);
#67=LINE('',#1831,#175);
#68=LINE('',#1833,#176);
#69=LINE('',#1837,#177);
#70=LINE('',#1844,#178);
#71=LINE('',#1848,#179);
#72=LINE('',#1850,#180);
#73=LINE('',#1852,#181);
#74=LINE('',#1854,#182);
#75=LINE('',#1858,#183);
#76=LINE('',#1862,#184);
#77=LINE('',#1864,#185);
#78=LINE('',#1866,#186);
#79=LINE('',#1870,#187);
#80=LINE('',#1874,#188);
#81=LINE('',#1876,#189);
#82=LINE('',#1878,#190);
#83=LINE('',#1882,#191);
#84=LINE('',#1889,#192);
#85=LINE('',#1893,#193);
#86=LINE('',#1895,#194);
#87=LINE('',#1897,#195);
#88=LINE('',#1899,#196);
#89=LINE('',#1903,#197);
#90=LINE('',#1907,#198);
#91=LINE('',#1909,#199);
#92=LINE('',#1911,#200);
#93=LINE('',#1915,#201);
#94=LINE('',#1919,#202);
#95=LINE('',#1921,#203);
#96=LINE('',#1923,#204);
#97=LINE('',#1927,#205);
#98=LINE('',#1934,#206);
#99=LINE('',#1938,#207);
#100=LINE('',#1940,#208);
#101=LINE('',#1942,#209);
#102=LINE('',#1944,#210);
#103=LINE('',#1948,#211);
#104=LINE('',#1952,#212);
#105=LINE('',#1954,#213);
#106=LINE('',#1956,#214);
#107=LINE('',#1960,#215);
#108=LINE('',#1964,#216);
#109=LINE('',#1966,#217);
#110=LINE('',#1968,#218);
#111=LINE('',#1972,#219);
#112=LINE('',#1979,#220);
#113=LINE('',#1983,#221);
#114=LINE('',#1985,#222);
#115=LINE('',#1987,#223);
#116=LINE('',#1989,#224);
#117=LINE('',#1993,#225);
#118=LINE('',#1997,#226);
#119=LINE('',#1999,#227);
#120=LINE('',#2001,#228);
#121=LINE('',#2005,#229);
#122=LINE('',#2009,#230);
#123=LINE('',#2011,#231);
#124=LINE('',#2013,#232);
#125=LINE('',#2017,#233);
#126=LINE('',#2021,#234);
#127=LINE('',#2022,#235);
#128=LINE('',#2024,#236);
#129=LINE('',#2025,#237);
#130=LINE('',#2027,#238);
#131=LINE('',#2028,#239);
#132=LINE('',#2030,#240);
#133=LINE('',#2031,#241);
#134=LINE('',#2033,#242);
#135=LINE('',#2034,#243);
#136=LINE('',#2036,#244);
#137=LINE('',#2037,#245);
#138=LINE('',#2055,#246);
#139=LINE('',#2058,#247);
#140=LINE('',#2060,#248);
#141=LINE('',#2062,#249);
#142=LINE('',#2080,#250);
#143=LINE('',#2083,#251);
#144=LINE('',#2085,#252);
#145=LINE('',#2087,#253);
#146=LINE('',#2089,#254);
#147=LINE('',#2090,#255);
#148=LINE('',#2092,#256);
#149=LINE('',#2094,#257);
#150=VECTOR('',#1393,1.);
#151=VECTOR('',#1396,1.);
#152=VECTOR('',#1399,1.);
#153=VECTOR('',#1400,1.);
#154=VECTOR('',#1401,1.);
#155=VECTOR('',#1406,1.);
#156=VECTOR('',#1411,1.);
#157=VECTOR('',#1412,1.);
#158=VECTOR('',#1413,1.);
#159=VECTOR('',#1418,1.);
#160=VECTOR('',#1423,1.);
#161=VECTOR('',#1424,1.);
#162=VECTOR('',#1425,1.);
#163=VECTOR('',#1430,1.);
#164=VECTOR('',#1437,1.);
#165=VECTOR('',#1440,1.);
#166=VECTOR('',#1443,1.);
#167=VECTOR('',#1444,1.);
#168=VECTOR('',#1445,1.);
#169=VECTOR('',#1450,1.);
#170=VECTOR('',#1455,1.);
#171=VECTOR('',#1456,1.);
#172=VECTOR('',#1457,1.);
#173=VECTOR('',#1462,1.);
#174=VECTOR('',#1467,1.);
#175=VECTOR('',#1468,1.);
#176=VECTOR('',#1469,1.);
#177=VECTOR('',#1474,1.);
#178=VECTOR('',#1481,1.);
#179=VECTOR('',#1484,1.);
#180=VECTOR('',#1487,1.);
#181=VECTOR('',#1488,1.);
#182=VECTOR('',#1489,1.);
#183=VECTOR('',#1494,1.);
#184=VECTOR('',#1499,1.);
#185=VECTOR('',#1500,1.);
#186=VECTOR('',#1501,1.);
#187=VECTOR('',#1506,1.);
#188=VECTOR('',#1511,1.);
#189=VECTOR('',#1512,1.);
#190=VECTOR('',#1513,1.);
#191=VECTOR('',#1518,1.);
#192=VECTOR('',#1525,1.);
#193=VECTOR('',#1528,1.);
#194=VECTOR('',#1531,1.);
#195=VECTOR('',#1532,1.);
#196=VECTOR('',#1533,1.);
#197=VECTOR('',#1538,1.);
#198=VECTOR('',#1543,1.);
#199=VECTOR('',#1544,1.);
#200=VECTOR('',#1545,1.);
#201=VECTOR('',#1550,1.);
#202=VECTOR('',#1555,1.);
#203=VECTOR('',#1556,1.);
#204=VECTOR('',#1557,1.);
#205=VECTOR('',#1562,1.);
#206=VECTOR('',#1569,1.);
#207=VECTOR('',#1572,1.);
#208=VECTOR('',#1575,1.);
#209=VECTOR('',#1576,1.);
#210=VECTOR('',#1577,1.);
#211=VECTOR('',#1582,1.);
#212=VECTOR('',#1587,1.);
#213=VECTOR('',#1588,1.);
#214=VECTOR('',#1589,1.);
#215=VECTOR('',#1594,1.);
#216=VECTOR('',#1599,1.);
#217=VECTOR('',#1600,1.);
#218=VECTOR('',#1601,1.);
#219=VECTOR('',#1606,1.);
#220=VECTOR('',#1613,1.);
#221=VECTOR('',#1616,1.);
#222=VECTOR('',#1619,1.);
#223=VECTOR('',#1620,1.);
#224=VECTOR('',#1621,1.);
#225=VECTOR('',#1626,1.);
#226=VECTOR('',#1631,1.);
#227=VECTOR('',#1632,1.);
#228=VECTOR('',#1633,1.);
#229=VECTOR('',#1638,1.);
#230=VECTOR('',#1643,1.);
#231=VECTOR('',#1644,1.);
#232=VECTOR('',#1645,1.);
#233=VECTOR('',#1650,1.);
#234=VECTOR('',#1655,1.);
#235=VECTOR('',#1656,1.);
#236=VECTOR('',#1659,1.);
#237=VECTOR('',#1660,1.);
#238=VECTOR('',#1663,1.);
#239=VECTOR('',#1664,1.);
#240=VECTOR('',#1667,1.);
#241=VECTOR('',#1668,1.);
#242=VECTOR('',#1671,1.);
#243=VECTOR('',#1672,1.);
#244=VECTOR('',#1675,1.);
#245=VECTOR('',#1676,1.);
#246=VECTOR('',#1695,1.);
#247=VECTOR('',#1696,1.);
#248=VECTOR('',#1697,1.);
#249=VECTOR('',#1698,1.);
#250=VECTOR('',#1717,1.);
#251=VECTOR('',#1718,1.);
#252=VECTOR('',#1719,1.);
#253=VECTOR('',#1720,1.);
#254=VECTOR('',#1723,1.);
#255=VECTOR('',#1724,1.);
#256=VECTOR('',#1727,1.);
#257=VECTOR('',#1730,1.);
#258=ORIENTED_EDGE('',*,*,#602,.F.);
#259=ORIENTED_EDGE('',*,*,#603,.F.);
#260=ORIENTED_EDGE('',*,*,#604,.T.);
#261=ORIENTED_EDGE('',*,*,#605,.T.);
#262=ORIENTED_EDGE('',*,*,#606,.F.);
#263=ORIENTED_EDGE('',*,*,#607,.F.);
#264=ORIENTED_EDGE('',*,*,#608,.T.);
#265=ORIENTED_EDGE('',*,*,#603,.T.);
#266=ORIENTED_EDGE('',*,*,#609,.F.);
#267=ORIENTED_EDGE('',*,*,#610,.F.);
#268=ORIENTED_EDGE('',*,*,#611,.T.);
#269=ORIENTED_EDGE('',*,*,#607,.T.);
#270=ORIENTED_EDGE('',*,*,#612,.F.);
#271=ORIENTED_EDGE('',*,*,#613,.F.);
#272=ORIENTED_EDGE('',*,*,#614,.T.);
#273=ORIENTED_EDGE('',*,*,#610,.T.);
#274=ORIENTED_EDGE('',*,*,#615,.F.);
#275=ORIENTED_EDGE('',*,*,#616,.F.);
#276=ORIENTED_EDGE('',*,*,#617,.T.);
#277=ORIENTED_EDGE('',*,*,#613,.T.);
#278=ORIENTED_EDGE('',*,*,#618,.T.);
#279=ORIENTED_EDGE('',*,*,#619,.F.);
#280=ORIENTED_EDGE('',*,*,#620,.F.);
#281=ORIENTED_EDGE('',*,*,#616,.T.);
#282=ORIENTED_EDGE('',*,*,#621,.F.);
#283=ORIENTED_EDGE('',*,*,#622,.F.);
#284=ORIENTED_EDGE('',*,*,#623,.T.);
#285=ORIENTED_EDGE('',*,*,#619,.T.);
#286=ORIENTED_EDGE('',*,*,#624,.F.);
#287=ORIENTED_EDGE('',*,*,#625,.F.);
#288=ORIENTED_EDGE('',*,*,#626,.T.);
#289=ORIENTED_EDGE('',*,*,#627,.T.);
#290=ORIENTED_EDGE('',*,*,#628,.T.);
#291=ORIENTED_EDGE('',*,*,#629,.F.);
#292=ORIENTED_EDGE('',*,*,#630,.F.);
#293=ORIENTED_EDGE('',*,*,#625,.T.);
#294=ORIENTED_EDGE('',*,*,#631,.F.);
#295=ORIENTED_EDGE('',*,*,#632,.F.);
#296=ORIENTED_EDGE('',*,*,#633,.T.);
#297=ORIENTED_EDGE('',*,*,#629,.T.);
#298=ORIENTED_EDGE('',*,*,#634,.T.);
#299=ORIENTED_EDGE('',*,*,#635,.F.);
#300=ORIENTED_EDGE('',*,*,#636,.F.);
#301=ORIENTED_EDGE('',*,*,#632,.T.);
#302=ORIENTED_EDGE('',*,*,#637,.F.);
#303=ORIENTED_EDGE('',*,*,#638,.F.);
#304=ORIENTED_EDGE('',*,*,#639,.T.);
#305=ORIENTED_EDGE('',*,*,#635,.T.);
#306=ORIENTED_EDGE('',*,*,#640,.F.);
#307=ORIENTED_EDGE('',*,*,#641,.F.);
#308=ORIENTED_EDGE('',*,*,#642,.T.);
#309=ORIENTED_EDGE('',*,*,#638,.T.);
#310=ORIENTED_EDGE('',*,*,#643,.F.);
#311=ORIENTED_EDGE('',*,*,#644,.F.);
#312=ORIENTED_EDGE('',*,*,#645,.T.);
#313=ORIENTED_EDGE('',*,*,#641,.T.);
#314=ORIENTED_EDGE('',*,*,#646,.F.);
#315=ORIENTED_EDGE('',*,*,#647,.F.);
#316=ORIENTED_EDGE('',*,*,#648,.T.);
#317=ORIENTED_EDGE('',*,*,#649,.T.);
#318=ORIENTED_EDGE('',*,*,#650,.F.);
#319=ORIENTED_EDGE('',*,*,#651,.F.);
#320=ORIENTED_EDGE('',*,*,#652,.T.);
#321=ORIENTED_EDGE('',*,*,#647,.T.);
#322=ORIENTED_EDGE('',*,*,#653,.F.);
#323=ORIENTED_EDGE('',*,*,#654,.F.);
#324=ORIENTED_EDGE('',*,*,#655,.T.);
#325=ORIENTED_EDGE('',*,*,#651,.T.);
#326=ORIENTED_EDGE('',*,*,#656,.F.);
#327=ORIENTED_EDGE('',*,*,#657,.F.);
#328=ORIENTED_EDGE('',*,*,#658,.T.);
#329=ORIENTED_EDGE('',*,*,#654,.T.);
#330=ORIENTED_EDGE('',*,*,#659,.F.);
#331=ORIENTED_EDGE('',*,*,#660,.F.);
#332=ORIENTED_EDGE('',*,*,#661,.T.);
#333=ORIENTED_EDGE('',*,*,#657,.T.);
#334=ORIENTED_EDGE('',*,*,#662,.T.);
#335=ORIENTED_EDGE('',*,*,#663,.F.);
#336=ORIENTED_EDGE('',*,*,#664,.F.);
#337=ORIENTED_EDGE('',*,*,#660,.T.);
#338=ORIENTED_EDGE('',*,*,#665,.F.);
#339=ORIENTED_EDGE('',*,*,#666,.F.);
#340=ORIENTED_EDGE('',*,*,#667,.T.);
#341=ORIENTED_EDGE('',*,*,#663,.T.);
#342=ORIENTED_EDGE('',*,*,#668,.F.);
#343=ORIENTED_EDGE('',*,*,#669,.F.);
#344=ORIENTED_EDGE('',*,*,#670,.T.);
#345=ORIENTED_EDGE('',*,*,#671,.T.);
#346=ORIENTED_EDGE('',*,*,#672,.F.);
#347=ORIENTED_EDGE('',*,*,#673,.F.);
#348=ORIENTED_EDGE('',*,*,#674,.T.);
#349=ORIENTED_EDGE('',*,*,#669,.T.);
#350=ORIENTED_EDGE('',*,*,#675,.F.);
#351=ORIENTED_EDGE('',*,*,#676,.F.);
#352=ORIENTED_EDGE('',*,*,#677,.T.);
#353=ORIENTED_EDGE('',*,*,#673,.T.);
#354=ORIENTED_EDGE('',*,*,#678,.F.);
#355=ORIENTED_EDGE('',*,*,#679,.F.);
#356=ORIENTED_EDGE('',*,*,#680,.T.);
#357=ORIENTED_EDGE('',*,*,#676,.T.);
#358=ORIENTED_EDGE('',*,*,#681,.F.);
#359=ORIENTED_EDGE('',*,*,#682,.F.);
#360=ORIENTED_EDGE('',*,*,#683,.T.);
#361=ORIENTED_EDGE('',*,*,#679,.T.);
#362=ORIENTED_EDGE('',*,*,#684,.T.);
#363=ORIENTED_EDGE('',*,*,#685,.F.);
#364=ORIENTED_EDGE('',*,*,#686,.F.);
#365=ORIENTED_EDGE('',*,*,#682,.T.);
#366=ORIENTED_EDGE('',*,*,#687,.F.);
#367=ORIENTED_EDGE('',*,*,#688,.F.);
#368=ORIENTED_EDGE('',*,*,#689,.T.);
#369=ORIENTED_EDGE('',*,*,#685,.T.);
#370=ORIENTED_EDGE('',*,*,#690,.F.);
#371=ORIENTED_EDGE('',*,*,#691,.F.);
#372=ORIENTED_EDGE('',*,*,#692,.T.);
#373=ORIENTED_EDGE('',*,*,#693,.T.);
#374=ORIENTED_EDGE('',*,*,#694,.F.);
#375=ORIENTED_EDGE('',*,*,#695,.F.);
#376=ORIENTED_EDGE('',*,*,#696,.T.);
#377=ORIENTED_EDGE('',*,*,#691,.T.);
#378=ORIENTED_EDGE('',*,*,#697,.F.);
#379=ORIENTED_EDGE('',*,*,#698,.F.);
#380=ORIENTED_EDGE('',*,*,#699,.T.);
#381=ORIENTED_EDGE('',*,*,#695,.T.);
#382=ORIENTED_EDGE('',*,*,#700,.F.);
#383=ORIENTED_EDGE('',*,*,#701,.F.);
#384=ORIENTED_EDGE('',*,*,#702,.T.);
#385=ORIENTED_EDGE('',*,*,#698,.T.);
#386=ORIENTED_EDGE('',*,*,#703,.F.);
#387=ORIENTED_EDGE('',*,*,#704,.F.);
#388=ORIENTED_EDGE('',*,*,#705,.T.);
#389=ORIENTED_EDGE('',*,*,#701,.T.);
#390=ORIENTED_EDGE('',*,*,#706,.T.);
#391=ORIENTED_EDGE('',*,*,#707,.F.);
#392=ORIENTED_EDGE('',*,*,#708,.F.);
#393=ORIENTED_EDGE('',*,*,#704,.T.);
#394=ORIENTED_EDGE('',*,*,#709,.F.);
#395=ORIENTED_EDGE('',*,*,#710,.F.);
#396=ORIENTED_EDGE('',*,*,#711,.T.);
#397=ORIENTED_EDGE('',*,*,#707,.T.);
#398=ORIENTED_EDGE('',*,*,#712,.F.);
#399=ORIENTED_EDGE('',*,*,#713,.F.);
#400=ORIENTED_EDGE('',*,*,#714,.T.);
#401=ORIENTED_EDGE('',*,*,#715,.T.);
#402=ORIENTED_EDGE('',*,*,#716,.T.);
#403=ORIENTED_EDGE('',*,*,#717,.F.);
#404=ORIENTED_EDGE('',*,*,#718,.F.);
#405=ORIENTED_EDGE('',*,*,#713,.T.);
#406=ORIENTED_EDGE('',*,*,#719,.F.);
#407=ORIENTED_EDGE('',*,*,#720,.F.);
#408=ORIENTED_EDGE('',*,*,#721,.T.);
#409=ORIENTED_EDGE('',*,*,#717,.T.);
#410=ORIENTED_EDGE('',*,*,#722,.T.);
#411=ORIENTED_EDGE('',*,*,#723,.F.);
#412=ORIENTED_EDGE('',*,*,#724,.F.);
#413=ORIENTED_EDGE('',*,*,#720,.T.);
#414=ORIENTED_EDGE('',*,*,#725,.F.);
#415=ORIENTED_EDGE('',*,*,#726,.F.);
#416=ORIENTED_EDGE('',*,*,#727,.T.);
#417=ORIENTED_EDGE('',*,*,#723,.T.);
#418=ORIENTED_EDGE('',*,*,#728,.F.);
#419=ORIENTED_EDGE('',*,*,#729,.F.);
#420=ORIENTED_EDGE('',*,*,#730,.T.);
#421=ORIENTED_EDGE('',*,*,#726,.T.);
#422=ORIENTED_EDGE('',*,*,#731,.F.);
#423=ORIENTED_EDGE('',*,*,#732,.F.);
#424=ORIENTED_EDGE('',*,*,#733,.T.);
#425=ORIENTED_EDGE('',*,*,#729,.T.);
#426=ORIENTED_EDGE('',*,*,#734,.T.);
#427=ORIENTED_EDGE('',*,*,#605,.F.);
#428=ORIENTED_EDGE('',*,*,#735,.F.);
#429=ORIENTED_EDGE('',*,*,#622,.T.);
#430=ORIENTED_EDGE('',*,*,#736,.F.);
#431=ORIENTED_EDGE('',*,*,#627,.F.);
#432=ORIENTED_EDGE('',*,*,#737,.T.);
#433=ORIENTED_EDGE('',*,*,#644,.T.);
#434=ORIENTED_EDGE('',*,*,#738,.T.);
#435=ORIENTED_EDGE('',*,*,#649,.F.);
#436=ORIENTED_EDGE('',*,*,#739,.F.);
#437=ORIENTED_EDGE('',*,*,#666,.T.);
#438=ORIENTED_EDGE('',*,*,#740,.T.);
#439=ORIENTED_EDGE('',*,*,#671,.F.);
#440=ORIENTED_EDGE('',*,*,#741,.F.);
#441=ORIENTED_EDGE('',*,*,#688,.T.);
#442=ORIENTED_EDGE('',*,*,#742,.T.);
#443=ORIENTED_EDGE('',*,*,#693,.F.);
#444=ORIENTED_EDGE('',*,*,#743,.F.);
#445=ORIENTED_EDGE('',*,*,#710,.T.);
#446=ORIENTED_EDGE('',*,*,#744,.F.);
#447=ORIENTED_EDGE('',*,*,#715,.F.);
#448=ORIENTED_EDGE('',*,*,#745,.T.);
#449=ORIENTED_EDGE('',*,*,#732,.T.);
#450=ORIENTED_EDGE('',*,*,#746,.F.);
#451=ORIENTED_EDGE('',*,*,#747,.F.);
#452=ORIENTED_EDGE('',*,*,#748,.F.);
#453=ORIENTED_EDGE('',*,*,#749,.F.);
#454=ORIENTED_EDGE('',*,*,#750,.F.);
#455=ORIENTED_EDGE('',*,*,#751,.F.);
#456=ORIENTED_EDGE('',*,*,#752,.F.);
#457=ORIENTED_EDGE('',*,*,#753,.F.);
#458=ORIENTED_EDGE('',*,*,#714,.F.);
#459=ORIENTED_EDGE('',*,*,#718,.T.);
#460=ORIENTED_EDGE('',*,*,#721,.F.);
#461=ORIENTED_EDGE('',*,*,#724,.T.);
#462=ORIENTED_EDGE('',*,*,#727,.F.);
#463=ORIENTED_EDGE('',*,*,#730,.F.);
#464=ORIENTED_EDGE('',*,*,#733,.F.);
#465=ORIENTED_EDGE('',*,*,#745,.F.);
#466=ORIENTED_EDGE('',*,*,#692,.F.);
#467=ORIENTED_EDGE('',*,*,#696,.F.);
#468=ORIENTED_EDGE('',*,*,#699,.F.);
#469=ORIENTED_EDGE('',*,*,#702,.F.);
#470=ORIENTED_EDGE('',*,*,#705,.F.);
#471=ORIENTED_EDGE('',*,*,#708,.T.);
#472=ORIENTED_EDGE('',*,*,#711,.F.);
#473=ORIENTED_EDGE('',*,*,#743,.T.);
#474=ORIENTED_EDGE('',*,*,#670,.F.);
#475=ORIENTED_EDGE('',*,*,#674,.F.);
#476=ORIENTED_EDGE('',*,*,#677,.F.);
#477=ORIENTED_EDGE('',*,*,#680,.F.);
#478=ORIENTED_EDGE('',*,*,#683,.F.);
#479=ORIENTED_EDGE('',*,*,#686,.T.);
#480=ORIENTED_EDGE('',*,*,#689,.F.);
#481=ORIENTED_EDGE('',*,*,#741,.T.);
#482=ORIENTED_EDGE('',*,*,#648,.F.);
#483=ORIENTED_EDGE('',*,*,#652,.F.);
#484=ORIENTED_EDGE('',*,*,#655,.F.);
#485=ORIENTED_EDGE('',*,*,#658,.F.);
#486=ORIENTED_EDGE('',*,*,#661,.F.);
#487=ORIENTED_EDGE('',*,*,#664,.T.);
#488=ORIENTED_EDGE('',*,*,#667,.F.);
#489=ORIENTED_EDGE('',*,*,#739,.T.);
#490=ORIENTED_EDGE('',*,*,#626,.F.);
#491=ORIENTED_EDGE('',*,*,#630,.T.);
#492=ORIENTED_EDGE('',*,*,#633,.F.);
#493=ORIENTED_EDGE('',*,*,#636,.T.);
#494=ORIENTED_EDGE('',*,*,#639,.F.);
#495=ORIENTED_EDGE('',*,*,#642,.F.);
#496=ORIENTED_EDGE('',*,*,#645,.F.);
#497=ORIENTED_EDGE('',*,*,#737,.F.);
#498=ORIENTED_EDGE('',*,*,#604,.F.);
#499=ORIENTED_EDGE('',*,*,#608,.F.);
#500=ORIENTED_EDGE('',*,*,#611,.F.);
#501=ORIENTED_EDGE('',*,*,#614,.F.);
#502=ORIENTED_EDGE('',*,*,#617,.F.);
#503=ORIENTED_EDGE('',*,*,#620,.T.);
#504=ORIENTED_EDGE('',*,*,#623,.F.);
#505=ORIENTED_EDGE('',*,*,#735,.T.);
#506=ORIENTED_EDGE('',*,*,#754,.F.);
#507=ORIENTED_EDGE('',*,*,#755,.T.);
#508=ORIENTED_EDGE('',*,*,#756,.F.);
#509=ORIENTED_EDGE('',*,*,#757,.F.);
#510=ORIENTED_EDGE('',*,*,#758,.T.);
#511=ORIENTED_EDGE('',*,*,#759,.T.);
#512=ORIENTED_EDGE('',*,*,#760,.T.);
#513=ORIENTED_EDGE('',*,*,#761,.T.);
#514=ORIENTED_EDGE('',*,*,#762,.T.);
#515=ORIENTED_EDGE('',*,*,#763,.T.);
#516=ORIENTED_EDGE('',*,*,#764,.T.);
#517=ORIENTED_EDGE('',*,*,#765,.T.);
#518=ORIENTED_EDGE('',*,*,#712,.T.);
#519=ORIENTED_EDGE('',*,*,#744,.T.);
#520=ORIENTED_EDGE('',*,*,#731,.T.);
#521=ORIENTED_EDGE('',*,*,#728,.T.);
#522=ORIENTED_EDGE('',*,*,#725,.T.);
#523=ORIENTED_EDGE('',*,*,#722,.F.);
#524=ORIENTED_EDGE('',*,*,#719,.T.);
#525=ORIENTED_EDGE('',*,*,#716,.F.);
#526=ORIENTED_EDGE('',*,*,#690,.T.);
#527=ORIENTED_EDGE('',*,*,#742,.F.);
#528=ORIENTED_EDGE('',*,*,#709,.T.);
#529=ORIENTED_EDGE('',*,*,#706,.F.);
#530=ORIENTED_EDGE('',*,*,#703,.T.);
#531=ORIENTED_EDGE('',*,*,#700,.T.);
#532=ORIENTED_EDGE('',*,*,#697,.T.);
#533=ORIENTED_EDGE('',*,*,#694,.T.);
#534=ORIENTED_EDGE('',*,*,#668,.T.);
#535=ORIENTED_EDGE('',*,*,#740,.F.);
#536=ORIENTED_EDGE('',*,*,#687,.T.);
#537=ORIENTED_EDGE('',*,*,#684,.F.);
#538=ORIENTED_EDGE('',*,*,#681,.T.);
#539=ORIENTED_EDGE('',*,*,#678,.T.);
#540=ORIENTED_EDGE('',*,*,#675,.T.);
#541=ORIENTED_EDGE('',*,*,#672,.T.);
#542=ORIENTED_EDGE('',*,*,#646,.T.);
#543=ORIENTED_EDGE('',*,*,#738,.F.);
#544=ORIENTED_EDGE('',*,*,#665,.T.);
#545=ORIENTED_EDGE('',*,*,#662,.F.);
#546=ORIENTED_EDGE('',*,*,#659,.T.);
#547=ORIENTED_EDGE('',*,*,#656,.T.);
#548=ORIENTED_EDGE('',*,*,#653,.T.);
#549=ORIENTED_EDGE('',*,*,#650,.T.);
#550=ORIENTED_EDGE('',*,*,#624,.T.);
#551=ORIENTED_EDGE('',*,*,#736,.T.);
#552=ORIENTED_EDGE('',*,*,#643,.T.);
#553=ORIENTED_EDGE('',*,*,#640,.T.);
#554=ORIENTED_EDGE('',*,*,#637,.T.);
#555=ORIENTED_EDGE('',*,*,#634,.F.);
#556=ORIENTED_EDGE('',*,*,#631,.T.);
#557=ORIENTED_EDGE('',*,*,#628,.F.);
#558=ORIENTED_EDGE('',*,*,#602,.T.);
#559=ORIENTED_EDGE('',*,*,#734,.F.);
#560=ORIENTED_EDGE('',*,*,#621,.T.);
#561=ORIENTED_EDGE('',*,*,#618,.F.);
#562=ORIENTED_EDGE('',*,*,#615,.T.);
#563=ORIENTED_EDGE('',*,*,#612,.T.);
#564=ORIENTED_EDGE('',*,*,#609,.T.);
#565=ORIENTED_EDGE('',*,*,#606,.T.);
#566=ORIENTED_EDGE('',*,*,#766,.T.);
#567=ORIENTED_EDGE('',*,*,#767,.T.);
#568=ORIENTED_EDGE('',*,*,#768,.T.);
#569=ORIENTED_EDGE('',*,*,#769,.F.);
#570=ORIENTED_EDGE('',*,*,#766,.F.);
#571=ORIENTED_EDGE('',*,*,#770,.F.);
#572=ORIENTED_EDGE('',*,*,#754,.T.);
#573=ORIENTED_EDGE('',*,*,#771,.T.);
#574=ORIENTED_EDGE('',*,*,#767,.F.);
#575=ORIENTED_EDGE('',*,*,#771,.F.);
#576=ORIENTED_EDGE('',*,*,#757,.T.);
#577=ORIENTED_EDGE('',*,*,#772,.T.);
#578=ORIENTED_EDGE('',*,*,#769,.T.);
#579=ORIENTED_EDGE('',*,*,#773,.F.);
#580=ORIENTED_EDGE('',*,*,#755,.F.);
#581=ORIENTED_EDGE('',*,*,#770,.T.);
#582=ORIENTED_EDGE('',*,*,#768,.F.);
#583=ORIENTED_EDGE('',*,*,#772,.F.);
#584=ORIENTED_EDGE('',*,*,#756,.T.);
#585=ORIENTED_EDGE('',*,*,#773,.T.);
#586=ORIENTED_EDGE('',*,*,#753,.T.);
#587=ORIENTED_EDGE('',*,*,#765,.F.);
#588=ORIENTED_EDGE('',*,*,#752,.T.);
#589=ORIENTED_EDGE('',*,*,#764,.F.);
#590=ORIENTED_EDGE('',*,*,#751,.T.);
#591=ORIENTED_EDGE('',*,*,#763,.F.);
#592=ORIENTED_EDGE('',*,*,#750,.T.);
#593=ORIENTED_EDGE('',*,*,#762,.F.);
#594=ORIENTED_EDGE('',*,*,#749,.T.);
#595=ORIENTED_EDGE('',*,*,#761,.F.);
#596=ORIENTED_EDGE('',*,*,#748,.T.);
#597=ORIENTED_EDGE('',*,*,#760,.F.);
#598=ORIENTED_EDGE('',*,*,#747,.T.);
#599=ORIENTED_EDGE('',*,*,#759,.F.);
#600=ORIENTED_EDGE('',*,*,#746,.T.);
#601=ORIENTED_EDGE('',*,*,#758,.F.);
#602=EDGE_CURVE('',#774,#775,#894,.T.);
#603=EDGE_CURVE('',#776,#774,#42,.T.);
#604=EDGE_CURVE('',#776,#777,#895,.T.);
#605=EDGE_CURVE('',#777,#775,#43,.T.);
#606=EDGE_CURVE('',#778,#774,#44,.T.);
#607=EDGE_CURVE('',#779,#778,#45,.T.);
#608=EDGE_CURVE('',#779,#776,#46,.T.);
#609=EDGE_CURVE('',#780,#778,#896,.T.);
#610=EDGE_CURVE('',#781,#780,#47,.T.);
#611=EDGE_CURVE('',#781,#779,#897,.T.);
#612=EDGE_CURVE('',#782,#780,#48,.T.);
#613=EDGE_CURVE('',#783,#782,#49,.T.);
#614=EDGE_CURVE('',#783,#781,#50,.T.);
#615=EDGE_CURVE('',#784,#782,#898,.T.);
#616=EDGE_CURVE('',#785,#784,#51,.T.);
#617=EDGE_CURVE('',#785,#783,#899,.T.);
#618=EDGE_CURVE('',#784,#786,#52,.T.);
#619=EDGE_CURVE('',#787,#786,#53,.T.);
#620=EDGE_CURVE('',#785,#787,#54,.T.);
#621=EDGE_CURVE('',#788,#786,#900,.T.);
#622=EDGE_CURVE('',#789,#788,#55,.T.);
#623=EDGE_CURVE('',#789,#787,#901,.T.);
#624=EDGE_CURVE('',#790,#791,#902,.T.);
#625=EDGE_CURVE('',#792,#790,#56,.T.);
#626=EDGE_CURVE('',#792,#793,#903,.T.);
#627=EDGE_CURVE('',#793,#791,#57,.T.);
#628=EDGE_CURVE('',#790,#794,#58,.T.);
#629=EDGE_CURVE('',#795,#794,#59,.T.);
#630=EDGE_CURVE('',#792,#795,#60,.T.);
#631=EDGE_CURVE('',#796,#794,#904,.T.);
#632=EDGE_CURVE('',#797,#796,#61,.T.);
#633=EDGE_CURVE('',#797,#795,#905,.T.);
#634=EDGE_CURVE('',#796,#798,#62,.T.);
#635=EDGE_CURVE('',#799,#798,#63,.T.);
#636=EDGE_CURVE('',#797,#799,#64,.T.);
#637=EDGE_CURVE('',#800,#798,#906,.T.);
#638=EDGE_CURVE('',#801,#800,#65,.T.);
#639=EDGE_CURVE('',#801,#799,#907,.T.);
#640=EDGE_CURVE('',#802,#800,#66,.T.);
#641=EDGE_CURVE('',#803,#802,#67,.T.);
#642=EDGE_CURVE('',#803,#801,#68,.T.);
#643=EDGE_CURVE('',#804,#802,#908,.T.);
#644=EDGE_CURVE('',#805,#804,#69,.T.);
#645=EDGE_CURVE('',#805,#803,#909,.T.);
#646=EDGE_CURVE('',#806,#807,#910,.T.);
#647=EDGE_CURVE('',#808,#806,#70,.T.);
#648=EDGE_CURVE('',#808,#809,#911,.T.);
#649=EDGE_CURVE('',#809,#807,#71,.T.);
#650=EDGE_CURVE('',#810,#806,#72,.T.);
#651=EDGE_CURVE('',#811,#810,#73,.T.);
#652=EDGE_CURVE('',#811,#808,#74,.T.);
#653=EDGE_CURVE('',#812,#810,#912,.T.);
#654=EDGE_CURVE('',#813,#812,#75,.T.);
#655=EDGE_CURVE('',#813,#811,#913,.T.);
#656=EDGE_CURVE('',#814,#812,#76,.T.);
#657=EDGE_CURVE('',#815,#814,#77,.T.);
#658=EDGE_CURVE('',#815,#813,#78,.T.);
#659=EDGE_CURVE('',#816,#814,#914,.T.);
#660=EDGE_CURVE('',#817,#816,#79,.T.);
#661=EDGE_CURVE('',#817,#815,#915,.T.);
#662=EDGE_CURVE('',#816,#818,#80,.T.);
#663=EDGE_CURVE('',#819,#818,#81,.T.);
#664=EDGE_CURVE('',#817,#819,#82,.T.);
#665=EDGE_CURVE('',#820,#818,#916,.T.);
#666=EDGE_CURVE('',#821,#820,#83,.T.);
#667=EDGE_CURVE('',#821,#819,#917,.T.);
#668=EDGE_CURVE('',#822,#823,#918,.T.);
#669=EDGE_CURVE('',#824,#822,#84,.T.);
#670=EDGE_CURVE('',#824,#825,#919,.T.);
#671=EDGE_CURVE('',#825,#823,#85,.T.);
#672=EDGE_CURVE('',#826,#822,#86,.T.);
#673=EDGE_CURVE('',#827,#826,#87,.T.);
#674=EDGE_CURVE('',#827,#824,#88,.T.);
#675=EDGE_CURVE('',#828,#826,#920,.T.);
#676=EDGE_CURVE('',#829,#828,#89,.T.);
#677=EDGE_CURVE('',#829,#827,#921,.T.);
#678=EDGE_CURVE('',#830,#828,#90,.T.);
#679=EDGE_CURVE('',#831,#830,#91,.T.);
#680=EDGE_CURVE('',#831,#829,#92,.T.);
#681=EDGE_CURVE('',#832,#830,#922,.T.);
#682=EDGE_CURVE('',#833,#832,#93,.T.);
#683=EDGE_CURVE('',#833,#831,#923,.T.);
#684=EDGE_CURVE('',#832,#834,#94,.T.);
#685=EDGE_CURVE('',#835,#834,#95,.T.);
#686=EDGE_CURVE('',#833,#835,#96,.T.);
#687=EDGE_CURVE('',#836,#834,#924,.T.);
#688=EDGE_CURVE('',#837,#836,#97,.T.);
#689=EDGE_CURVE('',#837,#835,#925,.T.);
#690=EDGE_CURVE('',#838,#839,#926,.T.);
#691=EDGE_CURVE('',#840,#838,#98,.T.);
#692=EDGE_CURVE('',#840,#841,#927,.T.);
#693=EDGE_CURVE('',#841,#839,#99,.T.);
#694=EDGE_CURVE('',#842,#838,#100,.T.);
#695=EDGE_CURVE('',#843,#842,#101,.T.);
#696=EDGE_CURVE('',#843,#840,#102,.T.);
#697=EDGE_CURVE('',#844,#842,#928,.T.);
#698=EDGE_CURVE('',#845,#844,#103,.T.);
#699=EDGE_CURVE('',#845,#843,#929,.T.);
#700=EDGE_CURVE('',#846,#844,#104,.T.);
#701=EDGE_CURVE('',#847,#846,#105,.T.);
#702=EDGE_CURVE('',#847,#845,#106,.T.);
#703=EDGE_CURVE('',#848,#846,#930,.T.);
#704=EDGE_CURVE('',#849,#848,#107,.T.);
#705=EDGE_CURVE('',#849,#847,#931,.T.);
#706=EDGE_CURVE('',#848,#850,#108,.T.);
#707=EDGE_CURVE('',#851,#850,#109,.T.);
#708=EDGE_CURVE('',#849,#851,#110,.T.);
#709=EDGE_CURVE('',#852,#850,#932,.T.);
#710=EDGE_CURVE('',#853,#852,#111,.T.);
#711=EDGE_CURVE('',#853,#851,#933,.T.);
#712=EDGE_CURVE('',#854,#855,#934,.T.);
#713=EDGE_CURVE('',#856,#854,#112,.T.);
#714=EDGE_CURVE('',#856,#857,#935,.T.);
#715=EDGE_CURVE('',#857,#855,#113,.T.);
#716=EDGE_CURVE('',#854,#858,#114,.T.);
#717=EDGE_CURVE('',#859,#858,#115,.T.);
#718=EDGE_CURVE('',#856,#859,#116,.T.);
#719=EDGE_CURVE('',#860,#858,#936,.T.);
#720=EDGE_CURVE('',#861,#860,#117,.T.);
#721=EDGE_CURVE('',#861,#859,#937,.T.);
#722=EDGE_CURVE('',#860,#862,#118,.T.);
#723=EDGE_CURVE('',#863,#862,#119,.T.);
#724=EDGE_CURVE('',#861,#863,#120,.T.);
#725=EDGE_CURVE('',#864,#862,#938,.T.);
#726=EDGE_CURVE('',#865,#864,#121,.T.);
#727=EDGE_CURVE('',#865,#863,#939,.T.);
#728=EDGE_CURVE('',#866,#864,#122,.T.);
#729=EDGE_CURVE('',#867,#866,#123,.T.);
#730=EDGE_CURVE('',#867,#865,#124,.T.);
#731=EDGE_CURVE('',#868,#866,#940,.T.);
#732=EDGE_CURVE('',#869,#868,#125,.T.);
#733=EDGE_CURVE('',#869,#867,#941,.T.);
#734=EDGE_CURVE('',#788,#775,#126,.T.);
#735=EDGE_CURVE('',#789,#777,#127,.T.);
#736=EDGE_CURVE('',#791,#804,#128,.T.);
#737=EDGE_CURVE('',#793,#805,#129,.T.);
#738=EDGE_CURVE('',#820,#807,#130,.T.);
#739=EDGE_CURVE('',#821,#809,#131,.T.);
#740=EDGE_CURVE('',#836,#823,#132,.T.);
#741=EDGE_CURVE('',#837,#825,#133,.T.);
#742=EDGE_CURVE('',#852,#839,#134,.T.);
#743=EDGE_CURVE('',#853,#841,#135,.T.);
#744=EDGE_CURVE('',#855,#868,#136,.T.);
#745=EDGE_CURVE('',#857,#869,#137,.T.);
#746=EDGE_CURVE('',#870,#870,#942,.T.);
#747=EDGE_CURVE('',#871,#871,#943,.T.);
#748=EDGE_CURVE('',#872,#872,#944,.T.);
#749=EDGE_CURVE('',#873,#873,#945,.T.);
#750=EDGE_CURVE('',#874,#874,#946,.T.);
#751=EDGE_CURVE('',#875,#875,#947,.T.);
#752=EDGE_CURVE('',#876,#876,#948,.T.);
#753=EDGE_CURVE('',#877,#877,#949,.T.);
#754=EDGE_CURVE('',#878,#879,#138,.T.);
#755=EDGE_CURVE('',#878,#880,#139,.T.);
#756=EDGE_CURVE('',#881,#880,#140,.T.);
#757=EDGE_CURVE('',#879,#881,#141,.T.);
#758=EDGE_CURVE('',#882,#882,#950,.T.);
#759=EDGE_CURVE('',#883,#883,#951,.T.);
#760=EDGE_CURVE('',#884,#884,#952,.T.);
#761=EDGE_CURVE('',#885,#885,#953,.T.);
#762=EDGE_CURVE('',#886,#886,#954,.T.);
#763=EDGE_CURVE('',#887,#887,#955,.T.);
#764=EDGE_CURVE('',#888,#888,#956,.T.);
#765=EDGE_CURVE('',#889,#889,#957,.T.);
#766=EDGE_CURVE('',#890,#891,#142,.T.);
#767=EDGE_CURVE('',#891,#892,#143,.T.);
#768=EDGE_CURVE('',#892,#893,#144,.T.);
#769=EDGE_CURVE('',#890,#893,#145,.T.);
#770=EDGE_CURVE('',#878,#890,#146,.T.);
#771=EDGE_CURVE('',#879,#891,#147,.T.);
#772=EDGE_CURVE('',#881,#892,#148,.T.);
#773=EDGE_CURVE('',#880,#893,#149,.T.);
#774=VERTEX_POINT('',#1752);
#775=VERTEX_POINT('',#1753);
#776=VERTEX_POINT('',#1755);
#777=VERTEX_POINT('',#1757);
#778=VERTEX_POINT('',#1761);
#779=VERTEX_POINT('',#1763);
#780=VERTEX_POINT('',#1767);
#781=VERTEX_POINT('',#1769);
#782=VERTEX_POINT('',#1773);
#783=VERTEX_POINT('',#1775);
#784=VERTEX_POINT('',#1779);
#785=VERTEX_POINT('',#1781);
#786=VERTEX_POINT('',#1785);
#787=VERTEX_POINT('',#1787);
#788=VERTEX_POINT('',#1791);
#789=VERTEX_POINT('',#1793);
#790=VERTEX_POINT('',#1797);
#791=VERTEX_POINT('',#1798);
#792=VERTEX_POINT('',#1800);
#793=VERTEX_POINT('',#1802);
#794=VERTEX_POINT('',#1806);
#795=VERTEX_POINT('',#1808);
#796=VERTEX_POINT('',#1812);
#797=VERTEX_POINT('',#1814);
#798=VERTEX_POINT('',#1818);
#799=VERTEX_POINT('',#1820);
#800=VERTEX_POINT('',#1824);
#801=VERTEX_POINT('',#1826);
#802=VERTEX_POINT('',#1830);
#803=VERTEX_POINT('',#1832);
#804=VERTEX_POINT('',#1836);
#805=VERTEX_POINT('',#1838);
#806=VERTEX_POINT('',#1842);
#807=VERTEX_POINT('',#1843);
#808=VERTEX_POINT('',#1845);
#809=VERTEX_POINT('',#1847);
#810=VERTEX_POINT('',#1851);
#811=VERTEX_POINT('',#1853);
#812=VERTEX_POINT('',#1857);
#813=VERTEX_POINT('',#1859);
#814=VERTEX_POINT('',#1863);
#815=VERTEX_POINT('',#1865);
#816=VERTEX_POINT('',#1869);
#817=VERTEX_POINT('',#1871);
#818=VERTEX_POINT('',#1875);
#819=VERTEX_POINT('',#1877);
#820=VERTEX_POINT('',#1881);
#821=VERTEX_POINT('',#1883);
#822=VERTEX_POINT('',#1887);
#823=VERTEX_POINT('',#1888);
#824=VERTEX_POINT('',#1890);
#825=VERTEX_POINT('',#1892);
#826=VERTEX_POINT('',#1896);
#827=VERTEX_POINT('',#1898);
#828=VERTEX_POINT('',#1902);
#829=VERTEX_POINT('',#1904);
#830=VERTEX_POINT('',#1908);
#831=VERTEX_POINT('',#1910);
#832=VERTEX_POINT('',#1914);
#833=VERTEX_POINT('',#1916);
#834=VERTEX_POINT('',#1920);
#835=VERTEX_POINT('',#1922);
#836=VERTEX_POINT('',#1926);
#837=VERTEX_POINT('',#1928);
#838=VERTEX_POINT('',#1932);
#839=VERTEX_POINT('',#1933);
#840=VERTEX_POINT('',#1935);
#841=VERTEX_POINT('',#1937);
#842=VERTEX_POINT('',#1941);
#843=VERTEX_POINT('',#1943);
#844=VERTEX_POINT('',#1947);
#845=VERTEX_POINT('',#1949);
#846=VERTEX_POINT('',#1953);
#847=VERTEX_POINT('',#1955);
#848=VERTEX_POINT('',#1959);
#849=VERTEX_POINT('',#1961);
#850=VERTEX_POINT('',#1965);
#851=VERTEX_POINT('',#1967);
#852=VERTEX_POINT('',#1971);
#853=VERTEX_POINT('',#1973);
#854=VERTEX_POINT('',#1977);
#855=VERTEX_POINT('',#1978);
#856=VERTEX_POINT('',#1980);
#857=VERTEX_POINT('',#1982);
#858=VERTEX_POINT('',#1986);
#859=VERTEX_POINT('',#1988);
#860=VERTEX_POINT('',#1992);
#861=VERTEX_POINT('',#1994);
#862=VERTEX_POINT('',#1998);
#863=VERTEX_POINT('',#2000);
#864=VERTEX_POINT('',#2004);
#865=VERTEX_POINT('',#2006);
#866=VERTEX_POINT('',#2010);
#867=VERTEX_POINT('',#2012);
#868=VERTEX_POINT('',#2016);
#869=VERTEX_POINT('',#2018);
#870=VERTEX_POINT('',#2040);
#871=VERTEX_POINT('',#2042);
#872=VERTEX_POINT('',#2044);
#873=VERTEX_POINT('',#2046);
#874=VERTEX_POINT('',#2048);
#875=VERTEX_POINT('',#2050);
#876=VERTEX_POINT('',#2052);
#877=VERTEX_POINT('',#2054);
#878=VERTEX_POINT('',#2056);
#879=VERTEX_POINT('',#2057);
#880=VERTEX_POINT('',#2059);
#881=VERTEX_POINT('',#2061);
#882=VERTEX_POINT('',#2065);
#883=VERTEX_POINT('',#2067);
#884=VERTEX_POINT('',#2069);
#885=VERTEX_POINT('',#2071);
#886=VERTEX_POINT('',#2073);
#887=VERTEX_POINT('',#2075);
#888=VERTEX_POINT('',#2077);
#889=VERTEX_POINT('',#2079);
#890=VERTEX_POINT('',#2081);
#891=VERTEX_POINT('',#2082);
#892=VERTEX_POINT('',#2084);
#893=VERTEX_POINT('',#2086);
#894=CIRCLE('',#1262,0.0005);
#895=CIRCLE('',#1263,0.0005);
#896=CIRCLE('',#1266,0.0005);
#897=CIRCLE('',#1267,0.0005);
#898=CIRCLE('',#1270,0.0005);
#899=CIRCLE('',#1271,0.0005);
#900=CIRCLE('',#1274,0.0005);
#901=CIRCLE('',#1275,0.0005);
#902=CIRCLE('',#1277,0.0005);
#903=CIRCLE('',#1278,0.0005);
#904=CIRCLE('',#1281,0.0005);
#905=CIRCLE('',#1282,0.0005);
#906=CIRCLE('',#1285,0.0005);
#907=CIRCLE('',#1286,0.0005);
#908=CIRCLE('',#1289,0.000499999999999994);
#909=CIRCLE('',#1290,0.000499999999999994);
#910=CIRCLE('',#1292,0.0005);
#911=CIRCLE('',#1293,0.0005);
#912=CIRCLE('',#1296,0.0005);
#913=CIRCLE('',#1297,0.0005);
#914=CIRCLE('',#1300,0.0005);
#915=CIRCLE('',#1301,0.0005);
#916=CIRCLE('',#1304,0.000500000000000007);
#917=CIRCLE('',#1305,0.000500000000000007);
#918=CIRCLE('',#1307,0.0005);
#919=CIRCLE('',#1308,0.0005);
#920=CIRCLE('',#1311,0.0005);
#921=CIRCLE('',#1312,0.0005);
#922=CIRCLE('',#1315,0.0005);
#923=CIRCLE('',#1316,0.0005);
#924=CIRCLE('',#1319,0.0005);
#925=CIRCLE('',#1320,0.0005);
#926=CIRCLE('',#1322,0.0005);
#927=CIRCLE('',#1323,0.0005);
#928=CIRCLE('',#1326,0.0005);
#929=CIRCLE('',#1327,0.0005);
#930=CIRCLE('',#1330,0.000500000000000006);
#931=CIRCLE('',#1331,0.000500000000000006);
#932=CIRCLE('',#1334,0.000500000000000007);
#933=CIRCLE('',#1335,0.000500000000000007);
#934=CIRCLE('',#1337,0.0005);
#935=CIRCLE('',#1338,0.0005);
#936=CIRCLE('',#1341,0.0005);
#937=CIRCLE('',#1342,0.0005);
#938=CIRCLE('',#1345,0.0005);
#939=CIRCLE('',#1346,0.0005);
#940=CIRCLE('',#1349,0.0005);
#941=CIRCLE('',#1350,0.0005);
#942=CIRCLE('',#1358,0.0016);
#943=CIRCLE('',#1359,0.0016);
#944=CIRCLE('',#1360,0.0016);
#945=CIRCLE('',#1361,0.0016);
#946=CIRCLE('',#1362,0.0028);
#947=CIRCLE('',#1363,0.0028);
#948=CIRCLE('',#1364,0.0028);
#949=CIRCLE('',#1365,0.0028);
#950=CIRCLE('',#1367,0.0016);
#951=CIRCLE('',#1368,0.0016);
#952=CIRCLE('',#1369,0.0016);
#953=CIRCLE('',#1370,0.0016);
#954=CIRCLE('',#1371,0.0028);
#955=CIRCLE('',#1372,0.0028);
#956=CIRCLE('',#1373,0.0028);
#957=CIRCLE('',#1374,0.0028);
#958=EDGE_LOOP('',(#258,#259,#260,#261));
#959=EDGE_LOOP('',(#262,#263,#264,#265));
#960=EDGE_LOOP('',(#266,#267,#268,#269));
#961=EDGE_LOOP('',(#270,#271,#272,#273));
#962=EDGE_LOOP('',(#274,#275,#276,#277));
#963=EDGE_LOOP('',(#278,#279,#280,#281));
#964=EDGE_LOOP('',(#282,#283,#284,#285));
#965=EDGE_LOOP('',(#286,#287,#288,#289));
#966=EDGE_LOOP('',(#290,#291,#292,#293));
#967=EDGE_LOOP('',(#294,#295,#296,#297));
#968=EDGE_LOOP('',(#298,#299,#300,#301));
#969=EDGE_LOOP('',(#302,#303,#304,#305));
#970=EDGE_LOOP('',(#306,#307,#308,#309));
#971=EDGE_LOOP('',(#310,#311,#312,#313));
#972=EDGE_LOOP('',(#314,#315,#316,#317));
#973=EDGE_LOOP('',(#318,#319,#320,#321));
#974=EDGE_LOOP('',(#322,#323,#324,#325));
#975=EDGE_LOOP('',(#326,#327,#328,#329));
#976=EDGE_LOOP('',(#330,#331,#332,#333));
#977=EDGE_LOOP('',(#334,#335,#336,#337));
#978=EDGE_LOOP('',(#338,#339,#340,#341));
#979=EDGE_LOOP('',(#342,#343,#344,#345));
#980=EDGE_LOOP('',(#346,#347,#348,#349));
#981=EDGE_LOOP('',(#350,#351,#352,#353));
#982=EDGE_LOOP('',(#354,#355,#356,#357));
#983=EDGE_LOOP('',(#358,#359,#360,#361));
#984=EDGE_LOOP('',(#362,#363,#364,#365));
#985=EDGE_LOOP('',(#366,#367,#368,#369));
#986=EDGE_LOOP('',(#370,#371,#372,#373));
#987=EDGE_LOOP('',(#374,#375,#376,#377));
#988=EDGE_LOOP('',(#378,#379,#380,#381));
#989=EDGE_LOOP('',(#382,#383,#384,#385));
#990=EDGE_LOOP('',(#386,#387,#388,#389));
#991=EDGE_LOOP('',(#390,#391,#392,#393));
#992=EDGE_LOOP('',(#394,#395,#396,#397));
#993=EDGE_LOOP('',(#398,#399,#400,#401));
#994=EDGE_LOOP('',(#402,#403,#404,#405));
#995=EDGE_LOOP('',(#406,#407,#408,#409));
#996=EDGE_LOOP('',(#410,#411,#412,#413));
#997=EDGE_LOOP('',(#414,#415,#416,#417));
#998=EDGE_LOOP('',(#418,#419,#420,#421));
#999=EDGE_LOOP('',(#422,#423,#424,#425));
#1000=EDGE_LOOP('',(#426,#427,#428,#429));
#1001=EDGE_LOOP('',(#430,#431,#432,#433));
#1002=EDGE_LOOP('',(#434,#435,#436,#437));
#1003=EDGE_LOOP('',(#438,#439,#440,#441));
#1004=EDGE_LOOP('',(#442,#443,#444,#445));
#1005=EDGE_LOOP('',(#446,#447,#448,#449));
#1006=EDGE_LOOP('',(#450));
#1007=EDGE_LOOP('',(#451));
#1008=EDGE_LOOP('',(#452));
#1009=EDGE_LOOP('',(#453));
#1010=EDGE_LOOP('',(#454));
#1011=EDGE_LOOP('',(#455));
#1012=EDGE_LOOP('',(#456));
#1013=EDGE_LOOP('',(#457));
#1014=EDGE_LOOP('',(#458,#459,#460,#461,#462,#463,#464,#465));
#1015=EDGE_LOOP('',(#466,#467,#468,#469,#470,#471,#472,#473));
#1016=EDGE_LOOP('',(#474,#475,#476,#477,#478,#479,#480,#481));
#1017=EDGE_LOOP('',(#482,#483,#484,#485,#486,#487,#488,#489));
#1018=EDGE_LOOP('',(#490,#491,#492,#493,#494,#495,#496,#497));
#1019=EDGE_LOOP('',(#498,#499,#500,#501,#502,#503,#504,#505));
#1020=EDGE_LOOP('',(#506,#507,#508,#509));
#1021=EDGE_LOOP('',(#510));
#1022=EDGE_LOOP('',(#511));
#1023=EDGE_LOOP('',(#512));
#1024=EDGE_LOOP('',(#513));
#1025=EDGE_LOOP('',(#514));
#1026=EDGE_LOOP('',(#515));
#1027=EDGE_LOOP('',(#516));
#1028=EDGE_LOOP('',(#517));
#1029=EDGE_LOOP('',(#518,#519,#520,#521,#522,#523,#524,#525));
#1030=EDGE_LOOP('',(#526,#527,#528,#529,#530,#531,#532,#533));
#1031=EDGE_LOOP('',(#534,#535,#536,#537,#538,#539,#540,#541));
#1032=EDGE_LOOP('',(#542,#543,#544,#545,#546,#547,#548,#549));
#1033=EDGE_LOOP('',(#550,#551,#552,#553,#554,#555,#556,#557));
#1034=EDGE_LOOP('',(#558,#559,#560,#561,#562,#563,#564,#565));
#1035=EDGE_LOOP('',(#566,#567,#568,#569));
#1036=EDGE_LOOP('',(#570,#571,#572,#573));
#1037=EDGE_LOOP('',(#574,#575,#576,#577));
#1038=EDGE_LOOP('',(#578,#579,#580,#581));
#1039=EDGE_LOOP('',(#582,#583,#584,#585));
#1040=EDGE_LOOP('',(#586));
#1041=EDGE_LOOP('',(#587));
#1042=EDGE_LOOP('',(#588));
#1043=EDGE_LOOP('',(#589));
#1044=EDGE_LOOP('',(#590));
#1045=EDGE_LOOP('',(#591));
#1046=EDGE_LOOP('',(#592));
#1047=EDGE_LOOP('',(#593));
#1048=EDGE_LOOP('',(#594));
#1049=EDGE_LOOP('',(#595));
#1050=EDGE_LOOP('',(#596));
#1051=EDGE_LOOP('',(#597));
#1052=EDGE_LOOP('',(#598));
#1053=EDGE_LOOP('',(#599));
#1054=EDGE_LOOP('',(#600));
#1055=EDGE_LOOP('',(#601));
#1056=FACE_BOUND('',#958,.T.);
#1057=FACE_BOUND('',#959,.T.);
#1058=FACE_BOUND('',#960,.T.);
#1059=FACE_BOUND('',#961,.T.);
#1060=FACE_BOUND('',#962,.T.);
#1061=FACE_BOUND('',#963,.T.);
#1062=FACE_BOUND('',#964,.T.);
#1063=FACE_BOUND('',#965,.T.);
#1064=FACE_BOUND('',#966,.T.);
#1065=FACE_BOUND('',#967,.T.);
#1066=FACE_BOUND('',#968,.T.);
#1067=FACE_BOUND('',#969,.T.);
#1068=FACE_BOUND('',#970,.T.);
#1069=FACE_BOUND('',#971,.T.);
#1070=FACE_BOUND('',#972,.T.);
#1071=FACE_BOUND('',#973,.T.);
#1072=FACE_BOUND('',#974,.T.);
#1073=FACE_BOUND('',#975,.T.);
#1074=FACE_BOUND('',#976,.T.);
#1075=FACE_BOUND('',#977,.T.);
#1076=FACE_BOUND('',#978,.T.);
#1077=FACE_BOUND('',#979,.T.);
#1078=FACE_BOUND('',#980,.T.);
#1079=FACE_BOUND('',#981,.T.);
#1080=FACE_BOUND('',#982,.T.);
#1081=FACE_BOUND('',#983,.T.);
#1082=FACE_BOUND('',#984,.T.);
#1083=FACE_BOUND('',#985,.T.);
#1084=FACE_BOUND('',#986,.T.);
#1085=FACE_BOUND('',#987,.T.);
#1086=FACE_BOUND('',#988,.T.);
#1087=FACE_BOUND('',#989,.T.);
#1088=FACE_BOUND('',#990,.T.);
#1089=FACE_BOUND('',#991,.T.);
#1090=FACE_BOUND('',#992,.T.);
#1091=FACE_BOUND('',#993,.T.);
#1092=FACE_BOUND('',#994,.T.);
#1093=FACE_BOUND('',#995,.T.);
#1094=FACE_BOUND('',#996,.T.);
#1095=FACE_BOUND('',#997,.T.);
#1096=FACE_BOUND('',#998,.T.);
#1097=FACE_BOUND('',#999,.T.);
#1098=FACE_BOUND('',#1000,.T.);
#1099=FACE_BOUND('',#1001,.T.);
#1100=FACE_BOUND('',#1002,.T.);
#1101=FACE_BOUND('',#1003,.T.);
#1102=FACE_BOUND('',#1004,.T.);
#1103=FACE_BOUND('',#1005,.T.);
#1104=FACE_BOUND('',#1006,.T.);
#1105=FACE_BOUND('',#1007,.T.);
#1106=FACE_BOUND('',#1008,.T.);
#1107=FACE_BOUND('',#1009,.T.);
#1108=FACE_BOUND('',#1010,.T.);
#1109=FACE_BOUND('',#1011,.T.);
#1110=FACE_BOUND('',#1012,.T.);
#1111=FACE_BOUND('',#1013,.T.);
#1112=FACE_BOUND('',#1014,.T.);
#1113=FACE_BOUND('',#1015,.T.);
#1114=FACE_BOUND('',#1016,.T.);
#1115=FACE_BOUND('',#1017,.T.);
#1116=FACE_BOUND('',#1018,.T.);
#1117=FACE_BOUND('',#1019,.T.);
#1118=FACE_BOUND('',#1020,.T.);
#1119=FACE_BOUND('',#1021,.T.);
#1120=FACE_BOUND('',#1022,.T.);
#1121=FACE_BOUND('',#1023,.T.);
#1122=FACE_BOUND('',#1024,.T.);
#1123=FACE_BOUND('',#1025,.T.);
#1124=FACE_BOUND('',#1026,.T.);
#1125=FACE_BOUND('',#1027,.T.);
#1126=FACE_BOUND('',#1028,.T.);
#1127=FACE_BOUND('',#1029,.T.);
#1128=FACE_BOUND('',#1030,.T.);
#1129=FACE_BOUND('',#1031,.T.);
#1130=FACE_BOUND('',#1032,.T.);
#1131=FACE_BOUND('',#1033,.T.);
#1132=FACE_BOUND('',#1034,.T.);
#1133=FACE_BOUND('',#1035,.T.);
#1134=FACE_BOUND('',#1036,.T.);
#1135=FACE_BOUND('',#1037,.T.);
#1136=FACE_BOUND('',#1038,.T.);
#1137=FACE_BOUND('',#1039,.T.);
#1138=FACE_BOUND('',#1040,.T.);
#1139=FACE_BOUND('',#1041,.T.);
#1140=FACE_BOUND('',#1042,.T.);
#1141=FACE_BOUND('',#1043,.T.);
#1142=FACE_BOUND('',#1044,.T.);
#1143=FACE_BOUND('',#1045,.T.);
#1144=FACE_BOUND('',#1046,.T.);
#1145=FACE_BOUND('',#1047,.T.);
#1146=FACE_BOUND('',#1048,.T.);
#1147=FACE_BOUND('',#1049,.T.);
#1148=FACE_BOUND('',#1050,.T.);
#1149=FACE_BOUND('',#1051,.T.);
#1150=FACE_BOUND('',#1052,.T.);
#1151=FACE_BOUND('',#1053,.T.);
#1152=FACE_BOUND('',#1054,.T.);
#1153=FACE_BOUND('',#1055,.T.);
#1154=CYLINDRICAL_SURFACE('',#1261,0.0005);
#1155=CYLINDRICAL_SURFACE('',#1265,0.0005);
#1156=CYLINDRICAL_SURFACE('',#1269,0.0005);
#1157=CYLINDRICAL_SURFACE('',#1273,0.0005);
#1158=CYLINDRICAL_SURFACE('',#1276,0.0005);
#1159=CYLINDRICAL_SURFACE('',#1280,0.0005);
#1160=CYLINDRICAL_SURFACE('',#1284,0.0005);
#1161=CYLINDRICAL_SURFACE('',#1288,0.000499999999999994);
#1162=CYLINDRICAL_SURFACE('',#1291,0.0005);
#1163=CYLINDRICAL_SURFACE('',#1295,0.0005);
#1164=CYLINDRICAL_SURFACE('',#1299,0.0005);
#1165=CYLINDRICAL_SURFACE('',#1303,0.000500000000000007);
#1166=CYLINDRICAL_SURFACE('',#1306,0.0005);
#1167=CYLINDRICAL_SURFACE('',#1310,0.0005);
#1168=CYLINDRICAL_SURFACE('',#1314,0.0005);
#1169=CYLINDRICAL_SURFACE('',#1318,0.0005);
#1170=CYLINDRICAL_SURFACE('',#1321,0.0005);
#1171=CYLINDRICAL_SURFACE('',#1325,0.0005);
#1172=CYLINDRICAL_SURFACE('',#1329,0.000500000000000006);
#1173=CYLINDRICAL_SURFACE('',#1333,0.000500000000000007);
#1174=CYLINDRICAL_SURFACE('',#1336,0.0005);
#1175=CYLINDRICAL_SURFACE('',#1340,0.0005);
#1176=CYLINDRICAL_SURFACE('',#1344,0.0005);
#1177=CYLINDRICAL_SURFACE('',#1348,0.0005);
#1178=CYLINDRICAL_SURFACE('',#1379,0.0028);
#1179=CYLINDRICAL_SURFACE('',#1380,0.0028);
#1180=CYLINDRICAL_SURFACE('',#1381,0.0028);
#1181=CYLINDRICAL_SURFACE('',#1382,0.0028);
#1182=CYLINDRICAL_SURFACE('',#1383,0.0016);
#1183=CYLINDRICAL_SURFACE('',#1384,0.0016);
#1184=CYLINDRICAL_SURFACE('',#1385,0.0016);
#1185=CYLINDRICAL_SURFACE('',#1386,0.0016);
#1186=ADVANCED_FACE('',(#1056),#1154,.F.);
#1187=ADVANCED_FACE('',(#1057),#12,.T.);
#1188=ADVANCED_FACE('',(#1058),#1155,.F.);
#1189=ADVANCED_FACE('',(#1059),#13,.T.);
#1190=ADVANCED_FACE('',(#1060),#1156,.F.);
#1191=ADVANCED_FACE('',(#1061),#14,.F.);
#1192=ADVANCED_FACE('',(#1062),#1157,.F.);
#1193=ADVANCED_FACE('',(#1063),#1158,.F.);
#1194=ADVANCED_FACE('',(#1064),#15,.F.);
#1195=ADVANCED_FACE('',(#1065),#1159,.F.);
#1196=ADVANCED_FACE('',(#1066),#16,.F.);
#1197=ADVANCED_FACE('',(#1067),#1160,.F.);
#1198=ADVANCED_FACE('',(#1068),#17,.T.);
#1199=ADVANCED_FACE('',(#1069),#1161,.F.);
#1200=ADVANCED_FACE('',(#1070),#1162,.F.);
#1201=ADVANCED_FACE('',(#1071),#18,.T.);
#1202=ADVANCED_FACE('',(#1072),#1163,.F.);
#1203=ADVANCED_FACE('',(#1073),#19,.T.);
#1204=ADVANCED_FACE('',(#1074),#1164,.F.);
#1205=ADVANCED_FACE('',(#1075),#20,.F.);
#1206=ADVANCED_FACE('',(#1076),#1165,.F.);
#1207=ADVANCED_FACE('',(#1077),#1166,.F.);
#1208=ADVANCED_FACE('',(#1078),#21,.T.);
#1209=ADVANCED_FACE('',(#1079),#1167,.F.);
#1210=ADVANCED_FACE('',(#1080),#22,.T.);
#1211=ADVANCED_FACE('',(#1081),#1168,.F.);
#1212=ADVANCED_FACE('',(#1082),#23,.F.);
#1213=ADVANCED_FACE('',(#1083),#1169,.F.);
#1214=ADVANCED_FACE('',(#1084),#1170,.F.);
#1215=ADVANCED_FACE('',(#1085),#24,.T.);
#1216=ADVANCED_FACE('',(#1086),#1171,.F.);
#1217=ADVANCED_FACE('',(#1087),#25,.T.);
#1218=ADVANCED_FACE('',(#1088),#1172,.F.);
#1219=ADVANCED_FACE('',(#1089),#26,.F.);
#1220=ADVANCED_FACE('',(#1090),#1173,.F.);
#1221=ADVANCED_FACE('',(#1091),#1174,.F.);
#1222=ADVANCED_FACE('',(#1092),#27,.F.);
#1223=ADVANCED_FACE('',(#1093),#1175,.F.);
#1224=ADVANCED_FACE('',(#1094),#28,.F.);
#1225=ADVANCED_FACE('',(#1095),#1176,.F.);
#1226=ADVANCED_FACE('',(#1096),#29,.T.);
#1227=ADVANCED_FACE('',(#1097),#1177,.F.);
#1228=ADVANCED_FACE('',(#1098),#30,.F.);
#1229=ADVANCED_FACE('',(#1099),#31,.T.);
#1230=ADVANCED_FACE('',(#1100),#32,.F.);
#1231=ADVANCED_FACE('',(#1101),#33,.F.);
#1232=ADVANCED_FACE('',(#1102),#34,.F.);
#1233=ADVANCED_FACE('',(#1103),#35,.T.);
#1234=ADVANCED_FACE('',(#1104,#1105,#1106,#1107,#1108,#1109,#1110,#1111,
#1112,#1113,#1114,#1115,#1116,#1117,#1118),#36,.T.);
#1235=ADVANCED_FACE('',(#1119,#1120,#1121,#1122,#1123,#1124,#1125,#1126,
#1127,#1128,#1129,#1130,#1131,#1132,#1133),#37,.F.);
#1236=ADVANCED_FACE('',(#1134),#38,.T.);
#1237=ADVANCED_FACE('',(#1135),#39,.T.);
#1238=ADVANCED_FACE('',(#1136),#40,.F.);
#1239=ADVANCED_FACE('',(#1137),#41,.T.);
#1240=ADVANCED_FACE('',(#1138,#1139),#1178,.F.);
#1241=ADVANCED_FACE('',(#1140,#1141),#1179,.F.);
#1242=ADVANCED_FACE('',(#1142,#1143),#1180,.F.);
#1243=ADVANCED_FACE('',(#1144,#1145),#1181,.F.);
#1244=ADVANCED_FACE('',(#1146,#1147),#1182,.F.);
#1245=ADVANCED_FACE('',(#1148,#1149),#1183,.F.);
#1246=ADVANCED_FACE('',(#1150,#1151),#1184,.F.);
#1247=ADVANCED_FACE('',(#1152,#1153),#1185,.F.);
#1248=CLOSED_SHELL('',(#1186,#1187,#1188,#1189,#1190,#1191,#1192,#1193,
#1194,#1195,#1196,#1197,#1198,#1199,#1200,#1201,#1202,#1203,#1204,#1205,
#1206,#1207,#1208,#1209,#1210,#1211,#1212,#1213,#1214,#1215,#1216,#1217,
#1218,#1219,#1220,#1221,#1222,#1223,#1224,#1225,#1226,#1227,#1228,#1229,
#1230,#1231,#1232,#1233,#1234,#1235,#1236,#1237,#1238,#1239,#1240,#1241,
#1242,#1243,#1244,#1245,#1246,#1247));
#1249=STYLED_ITEM('',(#1250),#1257);
#1250=PRESENTATION_STYLE_ASSIGNMENT((#1251));
#1251=SURFACE_STYLE_USAGE(.BOTH.,#1252);
#1252=SURFACE_SIDE_STYLE('',(#1253));
#1253=SURFACE_STYLE_FILL_AREA(#1254);
#1254=FILL_AREA_STYLE('',(#1255));
#1255=FILL_AREA_STYLE_COLOUR('',#1256);
#1256=COLOUR_RGB('',0.615686274509804,0.811764705882353,0.929411764705882);
#1257=MANIFOLD_SOLID_BREP('Part 1',#1248);
#1258=SHAPE_DEFINITION_REPRESENTATION(#2110,#1259);
#1259=SHAPE_REPRESENTATION('Part 1',(#1260),#2105);
#1260=AXIS2_PLACEMENT_3D('',#1749,#1387,#1388);
#1261=AXIS2_PLACEMENT_3D('',#1750,#1389,#1390);
#1262=AXIS2_PLACEMENT_3D('',#1751,#1391,#1392);
#1263=AXIS2_PLACEMENT_3D('',#1756,#1394,#1395);
#1264=AXIS2_PLACEMENT_3D('',#1759,#1397,#1398);
#1265=AXIS2_PLACEMENT_3D('',#1765,#1402,#1403);
#1266=AXIS2_PLACEMENT_3D('',#1766,#1404,#1405);
#1267=AXIS2_PLACEMENT_3D('',#1770,#1407,#1408);
#1268=AXIS2_PLACEMENT_3D('',#1771,#1409,#1410);
#1269=AXIS2_PLACEMENT_3D('',#1777,#1414,#1415);
#1270=AXIS2_PLACEMENT_3D('',#1778,#1416,#1417);
#1271=AXIS2_PLACEMENT_3D('',#1782,#1419,#1420);
#1272=AXIS2_PLACEMENT_3D('',#1783,#1421,#1422);
#1273=AXIS2_PLACEMENT_3D('',#1789,#1426,#1427);
#1274=AXIS2_PLACEMENT_3D('',#1790,#1428,#1429);
#1275=AXIS2_PLACEMENT_3D('',#1794,#1431,#1432);
#1276=AXIS2_PLACEMENT_3D('',#1795,#1433,#1434);
#1277=AXIS2_PLACEMENT_3D('',#1796,#1435,#1436);
#1278=AXIS2_PLACEMENT_3D('',#1801,#1438,#1439);
#1279=AXIS2_PLACEMENT_3D('',#1804,#1441,#1442);
#1280=AXIS2_PLACEMENT_3D('',#1810,#1446,#1447);
#1281=AXIS2_PLACEMENT_3D('',#1811,#1448,#1449);
#1282=AXIS2_PLACEMENT_3D('',#1815,#1451,#1452);
#1283=AXIS2_PLACEMENT_3D('',#1816,#1453,#1454);
#1284=AXIS2_PLACEMENT_3D('',#1822,#1458,#1459);
#1285=AXIS2_PLACEMENT_3D('',#1823,#1460,#1461);
#1286=AXIS2_PLACEMENT_3D('',#1827,#1463,#1464);
#1287=AXIS2_PLACEMENT_3D('',#1828,#1465,#1466);
#1288=AXIS2_PLACEMENT_3D('',#1834,#1470,#1471);
#1289=AXIS2_PLACEMENT_3D('',#1835,#1472,#1473);
#1290=AXIS2_PLACEMENT_3D('',#1839,#1475,#1476);
#1291=AXIS2_PLACEMENT_3D('',#1840,#1477,#1478);
#1292=AXIS2_PLACEMENT_3D('',#1841,#1479,#1480);
#1293=AXIS2_PLACEMENT_3D('',#1846,#1482,#1483);
#1294=AXIS2_PLACEMENT_3D('',#1849,#1485,#1486);
#1295=AXIS2_PLACEMENT_3D('',#1855,#1490,#1491);
#1296=AXIS2_PLACEMENT_3D('',#1856,#1492,#1493);
#1297=AXIS2_PLACEMENT_3D('',#1860,#1495,#1496);
#1298=AXIS2_PLACEMENT_3D('',#1861,#1497,#1498);
#1299=AXIS2_PLACEMENT_3D('',#1867,#1502,#1503);
#1300=AXIS2_PLACEMENT_3D('',#1868,#1504,#1505);
#1301=AXIS2_PLACEMENT_3D('',#1872,#1507,#1508);
#1302=AXIS2_PLACEMENT_3D('',#1873,#1509,#1510);
#1303=AXIS2_PLACEMENT_3D('',#1879,#1514,#1515);
#1304=AXIS2_PLACEMENT_3D('',#1880,#1516,#1517);
#1305=AXIS2_PLACEMENT_3D('',#1884,#1519,#1520);
#1306=AXIS2_PLACEMENT_3D('',#1885,#1521,#1522);
#1307=AXIS2_PLACEMENT_3D('',#1886,#1523,#1524);
#1308=AXIS2_PLACEMENT_3D('',#1891,#1526,#1527);
#1309=AXIS2_PLACEMENT_3D('',#1894,#1529,#1530);
#1310=AXIS2_PLACEMENT_3D('',#1900,#1534,#1535);
#1311=AXIS2_PLACEMENT_3D('',#1901,#1536,#1537);
#1312=AXIS2_PLACEMENT_3D('',#1905,#1539,#1540);
#1313=AXIS2_PLACEMENT_3D('',#1906,#1541,#1542);
#1314=AXIS2_PLACEMENT_3D('',#1912,#1546,#1547);
#1315=AXIS2_PLACEMENT_3D('',#1913,#1548,#1549);
#1316=AXIS2_PLACEMENT_3D('',#1917,#1551,#1552);
#1317=AXIS2_PLACEMENT_3D('',#1918,#1553,#1554);
#1318=AXIS2_PLACEMENT_3D('',#1924,#1558,#1559);
#1319=AXIS2_PLACEMENT_3D('',#1925,#1560,#1561);
#1320=AXIS2_PLACEMENT_3D('',#1929,#1563,#1564);
#1321=AXIS2_PLACEMENT_3D('',#1930,#1565,#1566);
#1322=AXIS2_PLACEMENT_3D('',#1931,#1567,#1568);
#1323=AXIS2_PLACEMENT_3D('',#1936,#1570,#1571);
#1324=AXIS2_PLACEMENT_3D('',#1939,#1573,#1574);
#1325=AXIS2_PLACEMENT_3D('',#1945,#1578,#1579);
#1326=AXIS2_PLACEMENT_3D('',#1946,#1580,#1581);
#1327=AXIS2_PLACEMENT_3D('',#1950,#1583,#1584);
#1328=AXIS2_PLACEMENT_3D('',#1951,#1585,#1586);
#1329=AXIS2_PLACEMENT_3D('',#1957,#1590,#1591);
#1330=AXIS2_PLACEMENT_3D('',#1958,#1592,#1593);
#1331=AXIS2_PLACEMENT_3D('',#1962,#1595,#1596);
#1332=AXIS2_PLACEMENT_3D('',#1963,#1597,#1598);
#1333=AXIS2_PLACEMENT_3D('',#1969,#1602,#1603);
#1334=AXIS2_PLACEMENT_3D('',#1970,#1604,#1605);
#1335=AXIS2_PLACEMENT_3D('',#1974,#1607,#1608);
#1336=AXIS2_PLACEMENT_3D('',#1975,#1609,#1610);
#1337=AXIS2_PLACEMENT_3D('',#1976,#1611,#1612);
#1338=AXIS2_PLACEMENT_3D('',#1981,#1614,#1615);
#1339=AXIS2_PLACEMENT_3D('',#1984,#1617,#1618);
#1340=AXIS2_PLACEMENT_3D('',#1990,#1622,#1623);
#1341=AXIS2_PLACEMENT_3D('',#1991,#1624,#1625);
#1342=AXIS2_PLACEMENT_3D('',#1995,#1627,#1628);
#1343=AXIS2_PLACEMENT_3D('',#1996,#1629,#1630);
#1344=AXIS2_PLACEMENT_3D('',#2002,#1634,#1635);
#1345=AXIS2_PLACEMENT_3D('',#2003,#1636,#1637);
#1346=AXIS2_PLACEMENT_3D('',#2007,#1639,#1640);
#1347=AXIS2_PLACEMENT_3D('',#2008,#1641,#1642);
#1348=AXIS2_PLACEMENT_3D('',#2014,#1646,#1647);
#1349=AXIS2_PLACEMENT_3D('',#2015,#1648,#1649);
#1350=AXIS2_PLACEMENT_3D('',#2019,#1651,#1652);
#1351=AXIS2_PLACEMENT_3D('',#2020,#1653,#1654);
#1352=AXIS2_PLACEMENT_3D('',#2023,#1657,#1658);
#1353=AXIS2_PLACEMENT_3D('',#2026,#1661,#1662);
#1354=AXIS2_PLACEMENT_3D('',#2029,#1665,#1666);
#1355=AXIS2_PLACEMENT_3D('',#2032,#1669,#1670);
#1356=AXIS2_PLACEMENT_3D('',#2035,#1673,#1674);
#1357=AXIS2_PLACEMENT_3D('',#2038,#1677,#1678);
#1358=AXIS2_PLACEMENT_3D('',#2039,#1679,#1680);
#1359=AXIS2_PLACEMENT_3D('',#2041,#1681,#1682);
#1360=AXIS2_PLACEMENT_3D('',#2043,#1683,#1684);
#1361=AXIS2_PLACEMENT_3D('',#2045,#1685,#1686);
#1362=AXIS2_PLACEMENT_3D('',#2047,#1687,#1688);
#1363=AXIS2_PLACEMENT_3D('',#2049,#1689,#1690);
#1364=AXIS2_PLACEMENT_3D('',#2051,#1691,#1692);
#1365=AXIS2_PLACEMENT_3D('',#2053,#1693,#1694);
#1366=AXIS2_PLACEMENT_3D('',#2063,#1699,#1700);
#1367=AXIS2_PLACEMENT_3D('',#2064,#1701,#1702);
#1368=AXIS2_PLACEMENT_3D('',#2066,#1703,#1704);
#1369=AXIS2_PLACEMENT_3D('',#2068,#1705,#1706);
#1370=AXIS2_PLACEMENT_3D('',#2070,#1707,#1708);
#1371=AXIS2_PLACEMENT_3D('',#2072,#1709,#1710);
#1372=AXIS2_PLACEMENT_3D('',#2074,#1711,#1712);
#1373=AXIS2_PLACEMENT_3D('',#2076,#1713,#1714);
#1374=AXIS2_PLACEMENT_3D('',#2078,#1715,#1716);
#1375=AXIS2_PLACEMENT_3D('',#2088,#1721,#1722);
#1376=AXIS2_PLACEMENT_3D('',#2091,#1725,#1726);
#1377=AXIS2_PLACEMENT_3D('',#2093,#1728,#1729);
#1378=AXIS2_PLACEMENT_3D('',#2095,#1731,#1732);
#1379=AXIS2_PLACEMENT_3D('',#2096,#1733,#1734);
#1380=AXIS2_PLACEMENT_3D('',#2097,#1735,#1736);
#1381=AXIS2_PLACEMENT_3D('',#2098,#1737,#1738);
#1382=AXIS2_PLACEMENT_3D('',#2099,#1739,#1740);
#1383=AXIS2_PLACEMENT_3D('',#2100,#1741,#1742);
#1384=AXIS2_PLACEMENT_3D('',#2101,#1743,#1744);
#1385=AXIS2_PLACEMENT_3D('',#2102,#1745,#1746);
#1386=AXIS2_PLACEMENT_3D('',#2103,#1747,#1748);
#1387=DIRECTION('',(0.,0.,1.));
#1388=DIRECTION('',(1.,0.,0.));
#1389=DIRECTION('',(0.,0.,-1.));
#1390=DIRECTION('',(-1.,0.,0.));
#1391=DIRECTION('',(0.,0.,1.));
#1392=DIRECTION('',(0.,-1.,0.));
#1393=DIRECTION('',(0.,0.,-1.));
#1394=DIRECTION('',(0.,0.,1.));
#1395=DIRECTION('',(0.,-1.,0.));
#1396=DIRECTION('',(0.,0.,-1.));
#1397=DIRECTION('',(0.,1.,0.));
#1398=DIRECTION('',(0.,0.,1.));
#1399=DIRECTION('',(1.,0.,0.));
#1400=DIRECTION('',(0.,0.,-1.));
#1401=DIRECTION('',(1.,0.,0.));
#1402=DIRECTION('',(0.,0.,-1.));
#1403=DIRECTION('',(-1.,0.,0.));
#1404=DIRECTION('',(0.,0.,1.));
#1405=DIRECTION('',(-1.,0.,0.));
#1406=DIRECTION('',(0.,0.,-1.));
#1407=DIRECTION('',(0.,0.,1.));
#1408=DIRECTION('',(-1.,0.,0.));
#1409=DIRECTION('',(1.,0.,0.));
#1410=DIRECTION('',(0.,0.,-1.));
#1411=DIRECTION('',(0.,-1.,0.));
#1412=DIRECTION('',(0.,0.,-1.));
#1413=DIRECTION('',(0.,-1.,0.));
#1414=DIRECTION('',(0.,0.,-1.));
#1415=DIRECTION('',(-1.,0.,0.));
#1416=DIRECTION('',(0.,0.,1.));
#1417=DIRECTION('',(0.,1.,0.));
#1418=DIRECTION('',(0.,0.,-1.));
#1419=DIRECTION('',(0.,0.,1.));
#1420=DIRECTION('',(0.,1.,0.));
#1421=DIRECTION('',(0.,1.,0.));
#1422=DIRECTION('',(0.,0.,1.));
#1423=DIRECTION('',(1.,0.,0.));
#1424=DIRECTION('',(0.,0.,-1.));
#1425=DIRECTION('',(1.,0.,0.));
#1426=DIRECTION('',(0.,0.,-1.));
#1427=DIRECTION('',(-1.,0.,0.));
#1428=DIRECTION('',(0.,0.,1.));
#1429=DIRECTION('',(1.,0.,0.));
#1430=DIRECTION('',(0.,0.,-1.));
#1431=DIRECTION('',(0.,0.,1.));
#1432=DIRECTION('',(1.,0.,0.));
#1433=DIRECTION('',(0.,0.,-1.));
#1434=DIRECTION('',(-1.,0.,0.));
#1435=DIRECTION('',(0.,0.,1.));
#1436=DIRECTION('',(-1.38777878078147E-14,1.,0.));
#1437=DIRECTION('',(0.,0.,-1.));
#1438=DIRECTION('',(0.,0.,1.));
#1439=DIRECTION('',(-1.38777878078147E-14,1.,0.));
#1440=DIRECTION('',(0.,0.,-1.));
#1441=DIRECTION('',(0.,1.,0.));
#1442=DIRECTION('',(0.,0.,1.));
#1443=DIRECTION('',(1.,0.,0.));
#1444=DIRECTION('',(0.,0.,-1.));
#1445=DIRECTION('',(1.,0.,0.));
#1446=DIRECTION('',(0.,0.,-1.));
#1447=DIRECTION('',(-1.,0.,0.));
#1448=DIRECTION('',(0.,0.,1.));
#1449=DIRECTION('',(1.,0.,0.));
#1450=DIRECTION('',(0.,0.,-1.));
#1451=DIRECTION('',(0.,0.,1.));
#1452=DIRECTION('',(1.,0.,0.));
#1453=DIRECTION('',(1.,0.,0.));
#1454=DIRECTION('',(0.,0.,-1.));
#1455=DIRECTION('',(0.,-1.,0.));
#1456=DIRECTION('',(0.,0.,-1.));
#1457=DIRECTION('',(0.,-1.,0.));
#1458=DIRECTION('',(0.,0.,-1.));
#1459=DIRECTION('',(-1.,0.,0.));
#1460=DIRECTION('',(0.,0.,1.));
#1461=DIRECTION('',(0.,-1.,0.));
#1462=DIRECTION('',(0.,0.,-1.));
#1463=DIRECTION('',(0.,0.,1.));
#1464=DIRECTION('',(0.,-1.,0.));
#1465=DIRECTION('',(0.,1.,0.));
#1466=DIRECTION('',(0.,0.,1.));
#1467=DIRECTION('',(1.,0.,0.));
#1468=DIRECTION('',(0.,0.,-1.));
#1469=DIRECTION('',(1.,0.,0.));
#1470=DIRECTION('',(0.,0.,-1.));
#1471=DIRECTION('',(-1.,0.,0.));
#1472=DIRECTION('',(0.,0.,1.));
#1473=DIRECTION('',(-1.,2.42861286636753E-14,0.));
#1474=DIRECTION('',(0.,0.,-1.));
#1475=DIRECTION('',(0.,0.,1.));
#1476=DIRECTION('',(-1.,2.42861286636753E-14,0.));
#1477=DIRECTION('',(0.,0.,-1.));
#1478=DIRECTION('',(-1.,0.,0.));
#1479=DIRECTION('',(0.,0.,1.));
#1480=DIRECTION('',(0.,-1.,0.));
#1481=DIRECTION('',(0.,0.,-1.));
#1482=DIRECTION('',(0.,0.,1.));
#1483=DIRECTION('',(0.,-1.,0.));
#1484=DIRECTION('',(0.,0.,-1.));
#1485=DIRECTION('',(0.,1.,0.));
#1486=DIRECTION('',(0.,0.,1.));
#1487=DIRECTION('',(1.,0.,0.));
#1488=DIRECTION('',(0.,0.,-1.));
#1489=DIRECTION('',(1.,0.,0.));
#1490=DIRECTION('',(0.,0.,-1.));
#1491=DIRECTION('',(-1.,0.,0.));
#1492=DIRECTION('',(0.,0.,1.));
#1493=DIRECTION('',(-1.,1.38777878078144E-14,0.));
#1494=DIRECTION('',(0.,0.,-1.));
#1495=DIRECTION('',(0.,0.,1.));
#1496=DIRECTION('',(-1.,1.38777878078144E-14,0.));
#1497=DIRECTION('',(1.,0.,0.));
#1498=DIRECTION('',(0.,0.,-1.));
#1499=DIRECTION('',(0.,-1.,0.));
#1500=DIRECTION('',(0.,0.,-1.));
#1501=DIRECTION('',(0.,-1.,0.));
#1502=DIRECTION('',(0.,0.,-1.));
#1503=DIRECTION('',(-1.,0.,0.));
#1504=DIRECTION('',(0.,0.,1.));
#1505=DIRECTION('',(-2.0816681711722E-14,1.,0.));
#1506=DIRECTION('',(0.,0.,-1.));
#1507=DIRECTION('',(0.,0.,1.));
#1508=DIRECTION('',(-2.0816681711722E-14,1.,0.));
#1509=DIRECTION('',(0.,1.,0.));
#1510=DIRECTION('',(0.,0.,1.));
#1511=DIRECTION('',(1.,0.,0.));
#1512=DIRECTION('',(0.,0.,-1.));
#1513=DIRECTION('',(1.,0.,0.));
#1514=DIRECTION('',(0.,0.,-1.));
#1515=DIRECTION('',(-1.,0.,0.));
#1516=DIRECTION('',(0.,0.,1.));
#1517=DIRECTION('',(1.,0.,0.));
#1518=DIRECTION('',(0.,0.,-1.));
#1519=DIRECTION('',(0.,0.,1.));
#1520=DIRECTION('',(1.,0.,0.));
#1521=DIRECTION('',(0.,0.,-1.));
#1522=DIRECTION('',(-1.,0.,0.));
#1523=DIRECTION('',(0.,0.,1.));
#1524=DIRECTION('',(0.,-1.,0.));
#1525=DIRECTION('',(0.,0.,-1.));
#1526=DIRECTION('',(0.,0.,1.));
#1527=DIRECTION('',(0.,-1.,0.));
#1528=DIRECTION('',(0.,0.,-1.));
#1529=DIRECTION('',(0.,1.,0.));
#1530=DIRECTION('',(0.,0.,1.));
#1531=DIRECTION('',(1.,0.,0.));
#1532=DIRECTION('',(0.,0.,-1.));
#1533=DIRECTION('',(1.,0.,0.));
#1534=DIRECTION('',(0.,0.,-1.));
#1535=DIRECTION('',(-1.,0.,0.));
#1536=DIRECTION('',(0.,0.,1.));
#1537=DIRECTION('',(-1.,1.19262238973405E-14,0.));
#1538=DIRECTION('',(0.,0.,-1.));
#1539=DIRECTION('',(0.,0.,1.));
#1540=DIRECTION('',(-1.,1.19262238973405E-14,0.));
#1541=DIRECTION('',(1.,0.,0.));
#1542=DIRECTION('',(0.,0.,-1.));
#1543=DIRECTION('',(0.,-1.,0.));
#1544=DIRECTION('',(0.,0.,-1.));
#1545=DIRECTION('',(0.,-1.,0.));
#1546=DIRECTION('',(0.,0.,-1.));
#1547=DIRECTION('',(-1.,0.,0.));
#1548=DIRECTION('',(0.,0.,1.));
#1549=DIRECTION('',(-6.9388939039073E-15,1.,0.));
#1550=DIRECTION('',(0.,0.,-1.));
#1551=DIRECTION('',(0.,0.,1.));
#1552=DIRECTION('',(-6.9388939039073E-15,1.,0.));
#1553=DIRECTION('',(0.,1.,0.));
#1554=DIRECTION('',(0.,0.,1.));
#1555=DIRECTION('',(1.,0.,0.));
#1556=DIRECTION('',(0.,0.,-1.));
#1557=DIRECTION('',(1.,0.,0.));
#1558=DIRECTION('',(0.,0.,-1.));
#1559=DIRECTION('',(-1.,0.,0.));
#1560=DIRECTION('',(0.,0.,1.));
#1561=DIRECTION('',(1.,0.,0.));
#1562=DIRECTION('',(0.,0.,-1.));
#1563=DIRECTION('',(0.,0.,1.));
#1564=DIRECTION('',(1.,0.,0.));
#1565=DIRECTION('',(0.,0.,-1.));
#1566=DIRECTION('',(-1.,0.,0.));
#1567=DIRECTION('',(0.,0.,1.));
#1568=DIRECTION('',(0.,-1.,0.));
#1569=DIRECTION('',(0.,0.,-1.));
#1570=DIRECTION('',(0.,0.,1.));
#1571=DIRECTION('',(0.,-1.,0.));
#1572=DIRECTION('',(0.,0.,-1.));
#1573=DIRECTION('',(0.,1.,0.));
#1574=DIRECTION('',(0.,0.,1.));
#1575=DIRECTION('',(1.,0.,0.));
#1576=DIRECTION('',(0.,0.,-1.));
#1577=DIRECTION('',(1.,0.,0.));
#1578=DIRECTION('',(0.,0.,-1.));
#1579=DIRECTION('',(-1.,0.,0.));
#1580=DIRECTION('',(0.,0.,1.));
#1581=DIRECTION('',(-1.,0.,0.));
#1582=DIRECTION('',(0.,0.,-1.));
#1583=DIRECTION('',(0.,0.,1.));
#1584=DIRECTION('',(-1.,0.,0.));
#1585=DIRECTION('',(1.,0.,0.));
#1586=DIRECTION('',(0.,0.,-1.));
#1587=DIRECTION('',(0.,-1.,0.));
#1588=DIRECTION('',(0.,0.,-1.));
#1589=DIRECTION('',(0.,-1.,0.));
#1590=DIRECTION('',(0.,0.,-1.));
#1591=DIRECTION('',(-1.,0.,0.));
#1592=DIRECTION('',(0.,0.,1.));
#1593=DIRECTION('',(-2.3663236517386E-14,1.,0.));
#1594=DIRECTION('',(0.,0.,-1.));
#1595=DIRECTION('',(0.,0.,1.));
#1596=DIRECTION('',(-2.3663236517386E-14,1.,0.));
#1597=DIRECTION('',(0.,1.,0.));
#1598=DIRECTION('',(0.,0.,1.));
#1599=DIRECTION('',(1.,0.,0.));
#1600=DIRECTION('',(0.,0.,-1.));
#1601=DIRECTION('',(1.,0.,0.));
#1602=DIRECTION('',(0.,0.,-1.));
#1603=DIRECTION('',(-1.,0.,0.));
#1604=DIRECTION('',(0.,0.,1.));
#1605=DIRECTION('',(1.,0.,0.));
#1606=DIRECTION('',(0.,0.,-1.));
#1607=DIRECTION('',(0.,0.,1.));
#1608=DIRECTION('',(1.,0.,0.));
#1609=DIRECTION('',(0.,0.,-1.));
#1610=DIRECTION('',(-1.,0.,0.));
#1611=DIRECTION('',(0.,0.,1.));
#1612=DIRECTION('',(-5.88870407503437E-15,1.,0.));
#1613=DIRECTION('',(0.,0.,-1.));
#1614=DIRECTION('',(0.,0.,1.));
#1615=DIRECTION('',(-5.88870407503437E-15,1.,0.));
#1616=DIRECTION('',(0.,0.,-1.));
#1617=DIRECTION('',(0.,1.,0.));
#1618=DIRECTION('',(0.,0.,1.));
#1619=DIRECTION('',(1.,0.,0.));
#1620=DIRECTION('',(0.,0.,-1.));
#1621=DIRECTION('',(1.,0.,0.));
#1622=DIRECTION('',(0.,0.,-1.));
#1623=DIRECTION('',(-1.,0.,0.));
#1624=DIRECTION('',(0.,0.,1.));
#1625=DIRECTION('',(1.,6.93889390390717E-15,0.));
#1626=DIRECTION('',(0.,0.,-1.));
#1627=DIRECTION('',(0.,0.,1.));
#1628=DIRECTION('',(1.,6.93889390390717E-15,0.));
#1629=DIRECTION('',(1.,0.,0.));
#1630=DIRECTION('',(0.,0.,-1.));
#1631=DIRECTION('',(0.,-1.,0.));
#1632=DIRECTION('',(0.,0.,-1.));
#1633=DIRECTION('',(0.,-1.,0.));
#1634=DIRECTION('',(0.,0.,-1.));
#1635=DIRECTION('',(-1.,0.,0.));
#1636=DIRECTION('',(0.,0.,1.));
#1637=DIRECTION('',(0.,-1.,0.));
#1638=DIRECTION('',(0.,0.,-1.));
#1639=DIRECTION('',(0.,0.,1.));
#1640=DIRECTION('',(0.,-1.,0.));
#1641=DIRECTION('',(0.,1.,0.));
#1642=DIRECTION('',(0.,0.,1.));
#1643=DIRECTION('',(1.,0.,0.));
#1644=DIRECTION('',(0.,0.,-1.));
#1645=DIRECTION('',(1.,0.,0.));
#1646=DIRECTION('',(0.,0.,-1.));
#1647=DIRECTION('',(-1.,0.,0.));
#1648=DIRECTION('',(0.,0.,1.));
#1649=DIRECTION('',(-1.,0.,0.));
#1650=DIRECTION('',(0.,0.,-1.));
#1651=DIRECTION('',(0.,0.,1.));
#1652=DIRECTION('',(-1.,0.,0.));
#1653=DIRECTION('',(1.,0.,0.));
#1654=DIRECTION('',(0.,0.,-1.));
#1655=DIRECTION('',(0.,-1.,0.));
#1656=DIRECTION('',(0.,-1.,0.));
#1657=DIRECTION('',(1.,0.,0.));
#1658=DIRECTION('',(0.,0.,-1.));
#1659=DIRECTION('',(0.,-1.,0.));
#1660=DIRECTION('',(0.,-1.,0.));
#1661=DIRECTION('',(1.,0.,0.));
#1662=DIRECTION('',(0.,0.,-1.));
#1663=DIRECTION('',(0.,-1.,0.));
#1664=DIRECTION('',(0.,-1.,0.));
#1665=DIRECTION('',(1.,0.,0.));
#1666=DIRECTION('',(0.,0.,-1.));
#1667=DIRECTION('',(0.,-1.,0.));
#1668=DIRECTION('',(0.,-1.,0.));
#1669=DIRECTION('',(1.,0.,0.));
#1670=DIRECTION('',(0.,0.,-1.));
#1671=DIRECTION('',(0.,-1.,0.));
#1672=DIRECTION('',(0.,-1.,0.));
#1673=DIRECTION('',(1.,0.,0.));
#1674=DIRECTION('',(0.,0.,-1.));
#1675=DIRECTION('',(0.,-1.,0.));
#1676=DIRECTION('',(0.,-1.,0.));
#1677=DIRECTION('',(0.,0.,1.));
#1678=DIRECTION('',(1.,0.,0.));
#1679=DIRECTION('',(0.,0.,1.));
#1680=DIRECTION('',(1.,3.03576608295943E-14,0.));
#1681=DIRECTION('',(0.,0.,1.));
#1682=DIRECTION('',(1.,0.,0.));
#1683=DIRECTION('',(0.,0.,1.));
#1684=DIRECTION('',(-1.,-2.16840434497101E-15,0.));
#1685=DIRECTION('',(0.,0.,1.));
#1686=DIRECTION('',(-1.,0.,0.));
#1687=DIRECTION('',(0.,0.,1.));
#1688=DIRECTION('',(1.,0.,0.));
#1689=DIRECTION('',(0.,0.,1.));
#1690=DIRECTION('',(0.,-1.,0.));
#1691=DIRECTION('',(0.,0.,1.));
#1692=DIRECTION('',(-9.29316147844717E-16,-1.,0.));
#1693=DIRECTION('',(0.,0.,1.));
#1694=DIRECTION('',(-1.,0.,0.));
#1695=DIRECTION('',(0.,1.,0.));
#1696=DIRECTION('',(1.,-6.60847038467355E-16,0.));
#1697=DIRECTION('',(0.,-1.,0.));
#1698=DIRECTION('',(1.,0.,0.));
#1699=DIRECTION('',(0.,0.,1.));
#1700=DIRECTION('',(1.,0.,0.));
#1701=DIRECTION('',(0.,0.,1.));
#1702=DIRECTION('',(1.,0.,0.));
#1703=DIRECTION('',(0.,0.,1.));
#1704=DIRECTION('',(1.,0.,0.));
#1705=DIRECTION('',(0.,0.,1.));
#1706=DIRECTION('',(1.,0.,0.));
#1707=DIRECTION('',(0.,0.,1.));
#1708=DIRECTION('',(1.,0.,0.));
#1709=DIRECTION('',(0.,0.,1.));
#1710=DIRECTION('',(1.,0.,0.));
#1711=DIRECTION('',(0.,0.,1.));
#1712=DIRECTION('',(1.,0.,0.));
#1713=DIRECTION('',(0.,0.,1.));
#1714=DIRECTION('',(1.,0.,0.));
#1715=DIRECTION('',(0.,0.,1.));
#1716=DIRECTION('',(1.,0.,0.));
#1717=DIRECTION('',(0.,1.,0.));
#1718=DIRECTION('',(1.,0.,0.));
#1719=DIRECTION('',(0.,-1.,0.));
#1720=DIRECTION('',(1.,-6.60847038467355E-16,0.));
#1721=DIRECTION('',(-1.,0.,0.));
#1722=DIRECTION('',(0.,0.,1.));
#1723=DIRECTION('',(0.,0.,-1.));
#1724=DIRECTION('',(0.,0.,-1.));
#1725=DIRECTION('',(0.,1.,0.));
#1726=DIRECTION('',(0.,0.,1.));
#1727=DIRECTION('',(0.,0.,-1.));
#1728=DIRECTION('',(6.60847038467355E-16,1.,0.));
#1729=DIRECTION('',(-1.,6.60847038467355E-16,0.));
#1730=DIRECTION('',(0.,0.,-1.));
#1731=DIRECTION('',(1.,0.,0.));
#1732=DIRECTION('',(0.,0.,-1.));
#1733=DIRECTION('',(0.,0.,1.));
#1734=DIRECTION('',(1.,0.,0.));
#1735=DIRECTION('',(0.,0.,1.));
#1736=DIRECTION('',(1.,0.,0.));
#1737=DIRECTION('',(0.,0.,1.));
#1738=DIRECTION('',(1.,0.,0.));
#1739=DIRECTION('',(0.,0.,1.));
#1740=DIRECTION('',(1.,0.,0.));
#1741=DIRECTION('',(0.,0.,1.));
#1742=DIRECTION('',(1.,0.,0.));
#1743=DIRECTION('',(0.,0.,1.));
#1744=DIRECTION('',(1.,0.,0.));
#1745=DIRECTION('',(0.,0.,1.));
#1746=DIRECTION('',(1.,0.,0.));
#1747=DIRECTION('',(0.,0.,1.));
#1748=DIRECTION('',(1.,0.,0.));
#1749=CARTESIAN_POINT('',(0.,0.,0.));
#1750=CARTESIAN_POINT('',(0.133,0.0155,0.003));
#1751=CARTESIAN_POINT('',(0.133,0.0155,0.));
#1752=CARTESIAN_POINT('',(0.133,0.015,0.));
#1753=CARTESIAN_POINT('',(0.1335,0.0155,0.));
#1754=CARTESIAN_POINT('',(0.133,0.015,0.003));
#1755=CARTESIAN_POINT('',(0.133,0.015,0.003));
#1756=CARTESIAN_POINT('',(0.133,0.0155,0.003));
#1757=CARTESIAN_POINT('',(0.1335,0.0155,0.003));
#1758=CARTESIAN_POINT('',(0.1335,0.0155,0.003));
#1759=CARTESIAN_POINT('',(0.1265,0.015,0.003));
#1760=CARTESIAN_POINT('',(0.1265,0.015,0.));
#1761=CARTESIAN_POINT('',(0.12,0.015,0.));
#1762=CARTESIAN_POINT('',(0.12,0.015,0.003));
#1763=CARTESIAN_POINT('',(0.12,0.015,0.003));
#1764=CARTESIAN_POINT('',(0.1265,0.015,0.003));
#1765=CARTESIAN_POINT('',(0.12,0.0155,0.003));
#1766=CARTESIAN_POINT('',(0.12,0.0155,0.));
#1767=CARTESIAN_POINT('',(0.1195,0.0155,0.));
#1768=CARTESIAN_POINT('',(0.1195,0.0155,0.003));
#1769=CARTESIAN_POINT('',(0.1195,0.0155,0.003));
#1770=CARTESIAN_POINT('',(0.12,0.0155,0.003));
#1771=CARTESIAN_POINT('',(0.1195,0.022,0.003));
#1772=CARTESIAN_POINT('',(0.1195,0.022,0.));
#1773=CARTESIAN_POINT('',(0.1195,0.0285,0.));
#1774=CARTESIAN_POINT('',(0.1195,0.0285,0.003));
#1775=CARTESIAN_POINT('',(0.1195,0.0285,0.003));
#1776=CARTESIAN_POINT('',(0.1195,0.022,0.003));
#1777=CARTESIAN_POINT('',(0.12,0.0285,0.003));
#1778=CARTESIAN_POINT('',(0.12,0.0285,0.));
#1779=CARTESIAN_POINT('',(0.12,0.029,0.));
#1780=CARTESIAN_POINT('',(0.12,0.029,0.003));
#1781=CARTESIAN_POINT('',(0.12,0.029,0.003));
#1782=CARTESIAN_POINT('',(0.12,0.0285,0.003));
#1783=CARTESIAN_POINT('',(0.1265,0.029,0.003));
#1784=CARTESIAN_POINT('',(0.1265,0.029,0.));
#1785=CARTESIAN_POINT('',(0.133,0.029,0.));
#1786=CARTESIAN_POINT('',(0.133,0.029,0.003));
#1787=CARTESIAN_POINT('',(0.133,0.029,0.003));
#1788=CARTESIAN_POINT('',(0.1265,0.029,0.003));
#1789=CARTESIAN_POINT('',(0.133,0.0285,0.003));
#1790=CARTESIAN_POINT('',(0.133,0.0285,0.));
#1791=CARTESIAN_POINT('',(0.1335,0.0285,0.));
#1792=CARTESIAN_POINT('',(0.1335,0.0285,0.003));
#1793=CARTESIAN_POINT('',(0.1335,0.0285,0.003));
#1794=CARTESIAN_POINT('',(0.133,0.0285,0.003));
#1795=CARTESIAN_POINT('',(0.06,0.0285,0.003));
#1796=CARTESIAN_POINT('',(0.06,0.0285,0.));
#1797=CARTESIAN_POINT('',(0.06,0.029,0.));
#1798=CARTESIAN_POINT('',(0.0595,0.0285,0.));
#1799=CARTESIAN_POINT('',(0.06,0.029,0.003));
#1800=CARTESIAN_POINT('',(0.06,0.029,0.003));
#1801=CARTESIAN_POINT('',(0.06,0.0285,0.003));
#1802=CARTESIAN_POINT('',(0.0595,0.0285,0.003));
#1803=CARTESIAN_POINT('',(0.0595,0.0285,0.003));
#1804=CARTESIAN_POINT('',(0.0665,0.029,0.003));
#1805=CARTESIAN_POINT('',(0.0665,0.029,0.));
#1806=CARTESIAN_POINT('',(0.073,0.029,0.));
#1807=CARTESIAN_POINT('',(0.073,0.029,0.003));
#1808=CARTESIAN_POINT('',(0.073,0.029,0.003));
#1809=CARTESIAN_POINT('',(0.0665,0.029,0.003));
#1810=CARTESIAN_POINT('',(0.073,0.0285,0.003));
#1811=CARTESIAN_POINT('',(0.073,0.0285,0.));
#1812=CARTESIAN_POINT('',(0.0735,0.0285,0.));
#1813=CARTESIAN_POINT('',(0.0735,0.0285,0.003));
#1814=CARTESIAN_POINT('',(0.0735,0.0285,0.003));
#1815=CARTESIAN_POINT('',(0.073,0.0285,0.003));
#1816=CARTESIAN_POINT('',(0.0735,0.022,0.003));
#1817=CARTESIAN_POINT('',(0.0735,0.022,0.));
#1818=CARTESIAN_POINT('',(0.0735,0.0155,0.));
#1819=CARTESIAN_POINT('',(0.0735,0.0155,0.003));
#1820=CARTESIAN_POINT('',(0.0735,0.0155,0.003));
#1821=CARTESIAN_POINT('',(0.0735,0.022,0.003));
#1822=CARTESIAN_POINT('',(0.073,0.0155,0.003));
#1823=CARTESIAN_POINT('',(0.073,0.0155,0.));
#1824=CARTESIAN_POINT('',(0.073,0.015,0.));
#1825=CARTESIAN_POINT('',(0.073,0.015,0.003));
#1826=CARTESIAN_POINT('',(0.073,0.015,0.003));
#1827=CARTESIAN_POINT('',(0.073,0.0155,0.003));
#1828=CARTESIAN_POINT('',(0.0665,0.015,0.003));
#1829=CARTESIAN_POINT('',(0.0665,0.015,0.));
#1830=CARTESIAN_POINT('',(0.06,0.015,0.));
#1831=CARTESIAN_POINT('',(0.06,0.015,0.003));
#1832=CARTESIAN_POINT('',(0.06,0.015,0.003));
#1833=CARTESIAN_POINT('',(0.0665,0.015,0.003));
#1834=CARTESIAN_POINT('',(0.06,0.0155,0.003));
#1835=CARTESIAN_POINT('',(0.06,0.0155,0.));
#1836=CARTESIAN_POINT('',(0.0595,0.0155,0.));
#1837=CARTESIAN_POINT('',(0.0595,0.0155,0.003));
#1838=CARTESIAN_POINT('',(0.0595,0.0155,0.003));
#1839=CARTESIAN_POINT('',(0.06,0.0155,0.003));
#1840=CARTESIAN_POINT('',(0.043,0.0305,0.003));
#1841=CARTESIAN_POINT('',(0.043,0.0305,0.));
#1842=CARTESIAN_POINT('',(0.043,0.03,0.));
#1843=CARTESIAN_POINT('',(0.0435,0.0305,0.));
#1844=CARTESIAN_POINT('',(0.043,0.03,0.003));
#1845=CARTESIAN_POINT('',(0.043,0.03,0.003));
#1846=CARTESIAN_POINT('',(0.043,0.0305,0.003));
#1847=CARTESIAN_POINT('',(0.0435,0.0305,0.003));
#1848=CARTESIAN_POINT('',(0.0435,0.0305,0.003));
#1849=CARTESIAN_POINT('',(0.0365,0.03,0.003));
#1850=CARTESIAN_POINT('',(0.0365,0.03,0.));
#1851=CARTESIAN_POINT('',(0.03,0.03,0.));
#1852=CARTESIAN_POINT('',(0.03,0.03,0.003));
#1853=CARTESIAN_POINT('',(0.03,0.03,0.003));
#1854=CARTESIAN_POINT('',(0.0365,0.03,0.003));
#1855=CARTESIAN_POINT('',(0.03,0.0305,0.003));
#1856=CARTESIAN_POINT('',(0.03,0.0305,0.));
#1857=CARTESIAN_POINT('',(0.0295,0.0305,0.));
#1858=CARTESIAN_POINT('',(0.0295,0.0305,0.003));
#1859=CARTESIAN_POINT('',(0.0295,0.0305,0.003));
#1860=CARTESIAN_POINT('',(0.03,0.0305,0.003));
#1861=CARTESIAN_POINT('',(0.0295,0.037,0.003));
#1862=CARTESIAN_POINT('',(0.0295,0.037,0.));
#1863=CARTESIAN_POINT('',(0.0295,0.0435,0.));
#1864=CARTESIAN_POINT('',(0.0295,0.0435,0.003));
#1865=CARTESIAN_POINT('',(0.0295,0.0435,0.003));
#1866=CARTESIAN_POINT('',(0.0295,0.037,0.003));
#1867=CARTESIAN_POINT('',(0.03,0.0435,0.003));
#1868=CARTESIAN_POINT('',(0.03,0.0435,0.));
#1869=CARTESIAN_POINT('',(0.03,0.044,0.));
#1870=CARTESIAN_POINT('',(0.03,0.044,0.003));
#1871=CARTESIAN_POINT('',(0.03,0.044,0.003));
#1872=CARTESIAN_POINT('',(0.03,0.0435,0.003));
#1873=CARTESIAN_POINT('',(0.0365,0.044,0.003));
#1874=CARTESIAN_POINT('',(0.0365,0.044,0.));
#1875=CARTESIAN_POINT('',(0.043,0.044,0.));
#1876=CARTESIAN_POINT('',(0.043,0.044,0.003));
#1877=CARTESIAN_POINT('',(0.043,0.044,0.003));
#1878=CARTESIAN_POINT('',(0.0365,0.044,0.003));
#1879=CARTESIAN_POINT('',(0.043,0.0435,0.003));
#1880=CARTESIAN_POINT('',(0.043,0.0435,0.));
#1881=CARTESIAN_POINT('',(0.0435,0.0435,0.));
#1882=CARTESIAN_POINT('',(0.0435,0.0435,0.003));
#1883=CARTESIAN_POINT('',(0.0435,0.0435,0.003));
#1884=CARTESIAN_POINT('',(0.043,0.0435,0.003));
#1885=CARTESIAN_POINT('',(0.043,0.000500000000000006,0.003));
#1886=CARTESIAN_POINT('',(0.043,0.000500000000000006,0.));
#1887=CARTESIAN_POINT('',(0.043,0.,0.));
#1888=CARTESIAN_POINT('',(0.0435,0.000500000000000006,0.));
#1889=CARTESIAN_POINT('',(0.043,0.,0.003));
#1890=CARTESIAN_POINT('',(0.043,0.,0.003));
#1891=CARTESIAN_POINT('',(0.043,0.000500000000000006,0.003));
#1892=CARTESIAN_POINT('',(0.0435,0.000500000000000006,0.003));
#1893=CARTESIAN_POINT('',(0.0435,0.000500000000000006,0.003));
#1894=CARTESIAN_POINT('',(0.0365,0.,0.003));
#1895=CARTESIAN_POINT('',(0.0365,0.,0.));
#1896=CARTESIAN_POINT('',(0.03,5.63785129692462E-18,0.));
#1897=CARTESIAN_POINT('',(0.03,5.63785129692462E-18,0.003));
#1898=CARTESIAN_POINT('',(0.03,5.63785129692462E-18,0.003));
#1899=CARTESIAN_POINT('',(0.0365,0.,0.003));
#1900=CARTESIAN_POINT('',(0.03,0.0005,0.003));
#1901=CARTESIAN_POINT('',(0.03,0.0005,0.));
#1902=CARTESIAN_POINT('',(0.0295,0.000500000000000006,0.));
#1903=CARTESIAN_POINT('',(0.0295,0.000500000000000006,0.003));
#1904=CARTESIAN_POINT('',(0.0295,0.000500000000000006,0.003));
#1905=CARTESIAN_POINT('',(0.03,0.0005,0.003));
#1906=CARTESIAN_POINT('',(0.0295,0.007,0.003));
#1907=CARTESIAN_POINT('',(0.0295,0.007,0.));
#1908=CARTESIAN_POINT('',(0.0295,0.0135,0.));
#1909=CARTESIAN_POINT('',(0.0295,0.0135,0.003));
#1910=CARTESIAN_POINT('',(0.0295,0.0135,0.003));
#1911=CARTESIAN_POINT('',(0.0295,0.007,0.003));
#1912=CARTESIAN_POINT('',(0.03,0.0135,0.003));
#1913=CARTESIAN_POINT('',(0.03,0.0135,0.));
#1914=CARTESIAN_POINT('',(0.03,0.014,0.));
#1915=CARTESIAN_POINT('',(0.03,0.014,0.003));
#1916=CARTESIAN_POINT('',(0.03,0.014,0.003));
#1917=CARTESIAN_POINT('',(0.03,0.0135,0.003));
#1918=CARTESIAN_POINT('',(0.0365,0.014,0.003));
#1919=CARTESIAN_POINT('',(0.0365,0.014,0.));
#1920=CARTESIAN_POINT('',(0.043,0.014,0.));
#1921=CARTESIAN_POINT('',(0.043,0.014,0.003));
#1922=CARTESIAN_POINT('',(0.043,0.014,0.003));
#1923=CARTESIAN_POINT('',(0.0365,0.014,0.003));
#1924=CARTESIAN_POINT('',(0.043,0.0135,0.003));
#1925=CARTESIAN_POINT('',(0.043,0.0135,0.));
#1926=CARTESIAN_POINT('',(0.0435,0.0135,0.));
#1927=CARTESIAN_POINT('',(0.0435,0.0135,0.003));
#1928=CARTESIAN_POINT('',(0.0435,0.0135,0.003));
#1929=CARTESIAN_POINT('',(0.043,0.0135,0.003));
#1930=CARTESIAN_POINT('',(0.013,0.0305,0.003));
#1931=CARTESIAN_POINT('',(0.013,0.0305,0.));
#1932=CARTESIAN_POINT('',(0.013,0.03,0.));
#1933=CARTESIAN_POINT('',(0.0135,0.0305,0.));
#1934=CARTESIAN_POINT('',(0.013,0.03,0.003));
#1935=CARTESIAN_POINT('',(0.013,0.03,0.003));
#1936=CARTESIAN_POINT('',(0.013,0.0305,0.003));
#1937=CARTESIAN_POINT('',(0.0135,0.0305,0.003));
#1938=CARTESIAN_POINT('',(0.0135,0.0305,0.003));
#1939=CARTESIAN_POINT('',(0.0065,0.03,0.003));
#1940=CARTESIAN_POINT('',(0.0065,0.03,0.));
#1941=CARTESIAN_POINT('',(-3.06161699786839E-20,0.03,0.));
#1942=CARTESIAN_POINT('',(-3.06161699786839E-20,0.03,0.003));
#1943=CARTESIAN_POINT('',(-3.06161699786839E-20,0.03,0.003));
#1944=CARTESIAN_POINT('',(0.0065,0.03,0.003));
#1945=CARTESIAN_POINT('',(-1.53080849893419E-20,0.0305,0.003));
#1946=CARTESIAN_POINT('',(-1.53080849893419E-20,0.0305,0.));
#1947=CARTESIAN_POINT('',(-0.0005,0.0305,0.));
#1948=CARTESIAN_POINT('',(-0.0005,0.0305,0.003));
#1949=CARTESIAN_POINT('',(-0.0005,0.0305,0.003));
#1950=CARTESIAN_POINT('',(-1.53080849893419E-20,0.0305,0.003));
#1951=CARTESIAN_POINT('',(-0.0005,0.037,0.003));
#1952=CARTESIAN_POINT('',(-0.0005,0.037,0.));
#1953=CARTESIAN_POINT('',(-0.0005,0.0435,0.));
#1954=CARTESIAN_POINT('',(-0.0005,0.0435,0.003));
#1955=CARTESIAN_POINT('',(-0.0005,0.0435,0.003));
#1956=CARTESIAN_POINT('',(-0.0005,0.037,0.003));
#1957=CARTESIAN_POINT('',(1.1831618258693E-17,0.0435,0.003));
#1958=CARTESIAN_POINT('',(1.1831618258693E-17,0.0435,0.));
#1959=CARTESIAN_POINT('',(0.,0.044,0.));
#1960=CARTESIAN_POINT('',(0.,0.044,0.003));
#1961=CARTESIAN_POINT('',(0.,0.044,0.003));
#1962=CARTESIAN_POINT('',(1.1831618258693E-17,0.0435,0.003));
#1963=CARTESIAN_POINT('',(0.0065,0.044,0.003));
#1964=CARTESIAN_POINT('',(0.0065,0.044,0.));
#1965=CARTESIAN_POINT('',(0.013,0.044,0.));
#1966=CARTESIAN_POINT('',(0.013,0.044,0.003));
#1967=CARTESIAN_POINT('',(0.013,0.044,0.003));
#1968=CARTESIAN_POINT('',(0.0065,0.044,0.003));
#1969=CARTESIAN_POINT('',(0.013,0.0435,0.003));
#1970=CARTESIAN_POINT('',(0.013,0.0435,0.));
#1971=CARTESIAN_POINT('',(0.0135,0.0435,0.));
#1972=CARTESIAN_POINT('',(0.0135,0.0435,0.003));
#1973=CARTESIAN_POINT('',(0.0135,0.0435,0.003));
#1974=CARTESIAN_POINT('',(0.013,0.0435,0.003));
#1975=CARTESIAN_POINT('',(2.94435203751718E-18,0.0135,0.003));
#1976=CARTESIAN_POINT('',(2.94435203751718E-18,0.0135,0.));
#1977=CARTESIAN_POINT('',(0.,0.014,0.));
#1978=CARTESIAN_POINT('',(-0.0005,0.0135,0.));
#1979=CARTESIAN_POINT('',(0.,0.014,0.003));
#1980=CARTESIAN_POINT('',(0.,0.014,0.003));
#1981=CARTESIAN_POINT('',(2.94435203751718E-18,0.0135,0.003));
#1982=CARTESIAN_POINT('',(-0.0005,0.0135,0.003));
#1983=CARTESIAN_POINT('',(-0.0005,0.0135,0.003));
#1984=CARTESIAN_POINT('',(0.0065,0.014,0.003));
#1985=CARTESIAN_POINT('',(0.0065,0.014,0.));
#1986=CARTESIAN_POINT('',(0.013,0.014,0.));
#1987=CARTESIAN_POINT('',(0.013,0.014,0.003));
#1988=CARTESIAN_POINT('',(0.013,0.014,0.003));
#1989=CARTESIAN_POINT('',(0.0065,0.014,0.003));
#1990=CARTESIAN_POINT('',(0.013,0.0135,0.003));
#1991=CARTESIAN_POINT('',(0.013,0.0135,0.));
#1992=CARTESIAN_POINT('',(0.0135,0.0135,0.));
#1993=CARTESIAN_POINT('',(0.0135,0.0135,0.003));
#1994=CARTESIAN_POINT('',(0.0135,0.0135,0.003));
#1995=CARTESIAN_POINT('',(0.013,0.0135,0.003));
#1996=CARTESIAN_POINT('',(0.0135,0.007,0.003));
#1997=CARTESIAN_POINT('',(0.0135,0.007,0.));
#1998=CARTESIAN_POINT('',(0.0135,0.000500000000000006,0.));
#1999=CARTESIAN_POINT('',(0.0135,0.000500000000000006,0.003));
#2000=CARTESIAN_POINT('',(0.0135,0.000500000000000006,0.003));
#2001=CARTESIAN_POINT('',(0.0135,0.007,0.003));
#2002=CARTESIAN_POINT('',(0.013,0.000500000000000009,0.003));
#2003=CARTESIAN_POINT('',(0.013,0.000500000000000009,0.));
#2004=CARTESIAN_POINT('',(0.013,5.63785129692462E-18,0.));
#2005=CARTESIAN_POINT('',(0.013,5.63785129692462E-18,0.003));
#2006=CARTESIAN_POINT('',(0.013,5.63785129692462E-18,0.003));
#2007=CARTESIAN_POINT('',(0.013,0.000500000000000009,0.003));
#2008=CARTESIAN_POINT('',(0.0065,0.,0.003));
#2009=CARTESIAN_POINT('',(0.0065,0.,0.));
#2010=CARTESIAN_POINT('',(0.,0.,0.));
#2011=CARTESIAN_POINT('',(0.,0.,0.003));
#2012=CARTESIAN_POINT('',(0.,0.,0.003));
#2013=CARTESIAN_POINT('',(0.0065,0.,0.003));
#2014=CARTESIAN_POINT('',(2.16667118743564E-34,0.000500000000000006,0.003));
#2015=CARTESIAN_POINT('',(2.16667118743564E-34,0.000500000000000006,0.));
#2016=CARTESIAN_POINT('',(-0.0005,0.000500000000000006,0.));
#2017=CARTESIAN_POINT('',(-0.0005,0.000500000000000006,0.003));
#2018=CARTESIAN_POINT('',(-0.0005,0.000500000000000006,0.003));
#2019=CARTESIAN_POINT('',(2.16667118743564E-34,0.000500000000000006,0.003));
#2020=CARTESIAN_POINT('',(0.1335,0.022,0.003));
#2021=CARTESIAN_POINT('',(0.1335,0.022,0.));
#2022=CARTESIAN_POINT('',(0.1335,0.022,0.003));
#2023=CARTESIAN_POINT('',(0.0595,0.022,0.003));
#2024=CARTESIAN_POINT('',(0.0595,0.022,0.));
#2025=CARTESIAN_POINT('',(0.0595,0.022,0.003));
#2026=CARTESIAN_POINT('',(0.0435,0.037,0.003));
#2027=CARTESIAN_POINT('',(0.0435,0.037,0.));
#2028=CARTESIAN_POINT('',(0.0435,0.037,0.003));
#2029=CARTESIAN_POINT('',(0.0435,0.007,0.003));
#2030=CARTESIAN_POINT('',(0.0435,0.007,0.));
#2031=CARTESIAN_POINT('',(0.0435,0.007,0.003));
#2032=CARTESIAN_POINT('',(0.0135,0.037,0.003));
#2033=CARTESIAN_POINT('',(0.0135,0.037,0.));
#2034=CARTESIAN_POINT('',(0.0135,0.037,0.003));
#2035=CARTESIAN_POINT('',(-0.0005,0.007,0.003));
#2036=CARTESIAN_POINT('',(-0.0005,0.007,0.));
#2037=CARTESIAN_POINT('',(-0.0005,0.007,0.003));
#2038=CARTESIAN_POINT('',(0.0639367673895617,0.022,0.003));
#2039=CARTESIAN_POINT('',(0.1815,0.05658,0.003));
#2040=CARTESIAN_POINT('',(0.1831,0.05658,0.003));
#2041=CARTESIAN_POINT('',(0.1815,-0.01242,0.003));
#2042=CARTESIAN_POINT('',(0.1831,-0.01242,0.003));
#2043=CARTESIAN_POINT('',(-0.01351464,-0.01242,0.003));
#2044=CARTESIAN_POINT('',(-0.01511464,-0.01242,0.003));
#2045=CARTESIAN_POINT('',(-0.01351464,0.05658,0.003));
#2046=CARTESIAN_POINT('',(-0.01511464,0.05658,0.003));
#2047=CARTESIAN_POINT('',(0.172,0.04708,0.003));
#2048=CARTESIAN_POINT('',(0.1748,0.04708,0.003));
#2049=CARTESIAN_POINT('',(0.172,-0.00292,0.003));
#2050=CARTESIAN_POINT('',(0.172,-0.00572,0.003));
#2051=CARTESIAN_POINT('',(-0.00401464,-0.00292,0.003));
#2052=CARTESIAN_POINT('',(-0.00401464,-0.00572,0.003));
#2053=CARTESIAN_POINT('',(-0.00401464,0.04708,0.003));
#2054=CARTESIAN_POINT('',(-0.00681464,0.04708,0.003));
#2055=CARTESIAN_POINT('',(-0.01851464,0.049,0.003));
#2056=CARTESIAN_POINT('',(-0.01851464,-0.01742,0.003));
#2057=CARTESIAN_POINT('',(-0.01851464,0.06158,0.003));
#2058=CARTESIAN_POINT('',(-0.00525,-0.01742,0.003));
#2059=CARTESIAN_POINT('',(0.1865,-0.01742,0.003));
#2060=CARTESIAN_POINT('',(0.1865,0.022,0.003));
#2061=CARTESIAN_POINT('',(0.1865,0.06158,0.003));
#2062=CARTESIAN_POINT('',(0.0985,0.06158,0.003));
#2063=CARTESIAN_POINT('',(0.0639367673895617,0.022,0.));
#2064=CARTESIAN_POINT('',(0.1815,0.05658,0.));
#2065=CARTESIAN_POINT('',(0.1831,0.05658,0.));
#2066=CARTESIAN_POINT('',(0.1815,-0.01242,0.));
#2067=CARTESIAN_POINT('',(0.1831,-0.01242,0.));
#2068=CARTESIAN_POINT('',(-0.01351464,-0.01242,0.));
#2069=CARTESIAN_POINT('',(-0.01191464,-0.01242,0.));
#2070=CARTESIAN_POINT('',(-0.01351464,0.05658,0.));
#2071=CARTESIAN_POINT('',(-0.01191464,0.05658,0.));
#2072=CARTESIAN_POINT('',(0.172,0.04708,0.));
#2073=CARTESIAN_POINT('',(0.1748,0.04708,0.));
#2074=CARTESIAN_POINT('',(0.172,-0.00292,0.));
#2075=CARTESIAN_POINT('',(0.1748,-0.00292,0.));
#2076=CARTESIAN_POINT('',(-0.00401464,-0.00292,0.));
#2077=CARTESIAN_POINT('',(-0.00121464,-0.00292,0.));
#2078=CARTESIAN_POINT('',(-0.00401464,0.04708,0.));
#2079=CARTESIAN_POINT('',(-0.00121464,0.04708,0.));
#2080=CARTESIAN_POINT('',(-0.01851464,0.049,0.));
#2081=CARTESIAN_POINT('',(-0.01851464,-0.01742,0.));
#2082=CARTESIAN_POINT('',(-0.01851464,0.06158,0.));
#2083=CARTESIAN_POINT('',(0.0985,0.06158,0.));
#2084=CARTESIAN_POINT('',(0.1865,0.06158,0.));
#2085=CARTESIAN_POINT('',(0.1865,0.022,0.));
#2086=CARTESIAN_POINT('',(0.1865,-0.01742,0.));
#2087=CARTESIAN_POINT('',(-0.00525,-0.01742,0.));
#2088=CARTESIAN_POINT('',(-0.01851464,0.049,0.003));
#2089=CARTESIAN_POINT('',(-0.01851464,-0.01742,0.003));
#2090=CARTESIAN_POINT('',(-0.01851464,0.06158,0.003));
#2091=CARTESIAN_POINT('',(0.0985,0.06158,0.003));
#2092=CARTESIAN_POINT('',(0.1865,0.06158,0.003));
#2093=CARTESIAN_POINT('',(-0.00525,-0.01742,0.003));
#2094=CARTESIAN_POINT('',(0.1865,-0.01742,0.003));
#2095=CARTESIAN_POINT('',(0.1865,0.022,0.003));
#2096=CARTESIAN_POINT('',(-0.00401464,0.04708,-0.022));
#2097=CARTESIAN_POINT('',(-0.00401464,-0.00292,-0.022));
#2098=CARTESIAN_POINT('',(0.172,-0.00292,-0.022));
#2099=CARTESIAN_POINT('',(0.172,0.04708,-0.022));
#2100=CARTESIAN_POINT('',(-0.01351464,0.05658,-0.022));
#2101=CARTESIAN_POINT('',(-0.01351464,-0.01242,-0.022));
#2102=CARTESIAN_POINT('',(0.1815,-0.01242,-0.022));
#2103=CARTESIAN_POINT('',(0.1815,0.05658,-0.022));
#2104=MECHANICAL_DESIGN_GEOMETRIC_PRESENTATION_REPRESENTATION('',(#1249),
#2105);
#2105=(
GEOMETRIC_REPRESENTATION_CONTEXT(3)
GLOBAL_UNCERTAINTY_ASSIGNED_CONTEXT((#2106))
GLOBAL_UNIT_ASSIGNED_CONTEXT((#2109,#2108,#2107))
REPRESENTATION_CONTEXT('Part 1','TOP_LEVEL_ASSEMBLY_PART')
);
#2106=UNCERTAINTY_MEASURE_WITH_UNIT(LENGTH_MEASURE(1.E-8),#2109,
'DISTANCE_ACCURACY_VALUE','Maximum Tolerance applied to model');
#2107=(
NAMED_UNIT(*)
SI_UNIT($,.STERADIAN.)
SOLID_ANGLE_UNIT()
);
#2108=(
NAMED_UNIT(*)
PLANE_ANGLE_UNIT()
SI_UNIT($,.RADIAN.)
);
#2109=(
LENGTH_UNIT()
NAMED_UNIT(*)
SI_UNIT($,.METRE.)
);
#2110=PRODUCT_DEFINITION_SHAPE('','',#2111);
#2111=PRODUCT_DEFINITION('','',#2113,#2112);
#2112=PRODUCT_DEFINITION_CONTEXT('',#2119,'design');
#2113=PRODUCT_DEFINITION_FORMATION_WITH_SPECIFIED_SOURCE('','',#2115,
 .NOT_KNOWN.);
#2114=PRODUCT_RELATED_PRODUCT_CATEGORY('','',(#2115));
#2115=PRODUCT('Part 1','Part 1','Part 1',(#2117));
#2116=PRODUCT_CATEGORY('','');
#2117=PRODUCT_CONTEXT('',#2119,'mechanical');
#2118=APPLICATION_PROTOCOL_DEFINITION('international standard',
'ap242_managed_model_based_3d_engineering',2020,#2119);
#2119=APPLICATION_CONTEXT('managed model based 3d engineering');
ENDSEC;
END-ISO-10303-21;
