ISO-10303-21;
HEADER;
/* Generated by software containing ST-Developer
 * from STEP Tools, Inc. (www.steptools.com) 
 */
/* OPTION: using custom renumber hook */

FILE_DESCRIPTION(
/* description */ ('STEP AP242 Edition 2',
'CAx-IF Rec.Pracs.---Representation and Presentation of Product Manufa
cturing Information (PMI)---4.0---2014-10-13',
'CAx-IF Rec.Pracs.---3D Tessellated Geometry---0.4---2014-09-14','2;1',
'CAx-IF Rec.Pracs.---User Defined Attributes---1.5---2016-08-15'),
/* implementation_level */ '2;1');

FILE_NAME(
/* name */ 'TOP',
/* time_stamp */ '2026-09-27T01:47:36Z',
/* author */ (''),
/* organization */ (''),
/* preprocessor_version */ 'ST-DEVELOPER v20',
/* originating_system */ 'ONSHAPE BY PTC INC, 1.221',
/* authorisation */ '  ');

FILE_SCHEMA (('AP242_MANAGED_MODEL_BASED_3D_ENGINEERING_MIM_LF { 1 0 10303 442 3 1 4 }'));
ENDSEC;

DATA;
#10=SHAPE_REPRESENTATION_RELATIONSHIP('','',#291,#11);
#11=ADVANCED_BREP_SHAPE_REPRESENTATION('',(#289),#473);
#12=CYLINDRICAL_SURFACE('',#307,0.0016);
#13=CYLINDRICAL_SURFACE('',#310,0.0016);
#14=CYLINDRICAL_SURFACE('',#313,0.0016);
#15=CYLINDRICAL_SURFACE('',#316,0.0016);
#16=CIRCLE('',#303,0.0016);
#17=CIRCLE('',#304,0.0016);
#18=CIRCLE('',#305,0.0016);
#19=CIRCLE('',#306,0.0016);
#20=CIRCLE('',#308,0.0016);
#21=CIRCLE('',#311,0.0016);
#22=CIRCLE('',#314,0.0016);
#23=CIRCLE('',#317,0.0016);
#24=ORIENTED_EDGE('',*,*,#88,.F.);
#25=ORIENTED_EDGE('',*,*,#89,.F.);
#26=ORIENTED_EDGE('',*,*,#90,.T.);
#27=ORIENTED_EDGE('',*,*,#91,.T.);
#28=ORIENTED_EDGE('',*,*,#92,.T.);
#29=ORIENTED_EDGE('',*,*,#93,.F.);
#30=ORIENTED_EDGE('',*,*,#94,.F.);
#31=ORIENTED_EDGE('',*,*,#89,.T.);
#32=ORIENTED_EDGE('',*,*,#95,.T.);
#33=ORIENTED_EDGE('',*,*,#96,.F.);
#34=ORIENTED_EDGE('',*,*,#97,.F.);
#35=ORIENTED_EDGE('',*,*,#93,.T.);
#36=ORIENTED_EDGE('',*,*,#98,.T.);
#37=ORIENTED_EDGE('',*,*,#99,.F.);
#38=ORIENTED_EDGE('',*,*,#100,.F.);
#39=ORIENTED_EDGE('',*,*,#101,.T.);
#40=ORIENTED_EDGE('',*,*,#102,.T.);
#41=ORIENTED_EDGE('',*,*,#103,.F.);
#42=ORIENTED_EDGE('',*,*,#104,.F.);
#43=ORIENTED_EDGE('',*,*,#99,.T.);
#44=ORIENTED_EDGE('',*,*,#105,.F.);
#45=ORIENTED_EDGE('',*,*,#106,.F.);
#46=ORIENTED_EDGE('',*,*,#107,.T.);
#47=ORIENTED_EDGE('',*,*,#103,.T.);
#48=ORIENTED_EDGE('',*,*,#108,.F.);
#49=ORIENTED_EDGE('',*,*,#101,.F.);
#50=ORIENTED_EDGE('',*,*,#109,.T.);
#51=ORIENTED_EDGE('',*,*,#106,.T.);
#52=ORIENTED_EDGE('',*,*,#110,.F.);
#53=ORIENTED_EDGE('',*,*,#91,.F.);
#54=ORIENTED_EDGE('',*,*,#111,.T.);
#55=ORIENTED_EDGE('',*,*,#96,.T.);
#56=ORIENTED_EDGE('',*,*,#100,.T.);
#57=ORIENTED_EDGE('',*,*,#104,.T.);
#58=ORIENTED_EDGE('',*,*,#107,.F.);
#59=ORIENTED_EDGE('',*,*,#109,.F.);
#60=ORIENTED_EDGE('',*,*,#90,.F.);
#61=ORIENTED_EDGE('',*,*,#94,.T.);
#62=ORIENTED_EDGE('',*,*,#97,.T.);
#63=ORIENTED_EDGE('',*,*,#111,.F.);
#64=ORIENTED_EDGE('',*,*,#112,.T.);
#65=ORIENTED_EDGE('',*,*,#113,.T.);
#66=ORIENTED_EDGE('',*,*,#114,.T.);
#67=ORIENTED_EDGE('',*,*,#115,.T.);
#68=ORIENTED_EDGE('',*,*,#98,.F.);
#69=ORIENTED_EDGE('',*,*,#108,.T.);
#70=ORIENTED_EDGE('',*,*,#105,.T.);
#71=ORIENTED_EDGE('',*,*,#102,.F.);
#72=ORIENTED_EDGE('',*,*,#88,.T.);
#73=ORIENTED_EDGE('',*,*,#110,.T.);
#74=ORIENTED_EDGE('',*,*,#95,.F.);
#75=ORIENTED_EDGE('',*,*,#92,.F.);
#76=ORIENTED_EDGE('',*,*,#116,.T.);
#77=ORIENTED_EDGE('',*,*,#115,.F.);
#78=ORIENTED_EDGE('',*,*,#116,.F.);
#79=ORIENTED_EDGE('',*,*,#117,.T.);
#80=ORIENTED_EDGE('',*,*,#114,.F.);
#81=ORIENTED_EDGE('',*,*,#117,.F.);
#82=ORIENTED_EDGE('',*,*,#118,.T.);
#83=ORIENTED_EDGE('',*,*,#113,.F.);
#84=ORIENTED_EDGE('',*,*,#118,.F.);
#85=ORIENTED_EDGE('',*,*,#119,.T.);
#86=ORIENTED_EDGE('',*,*,#112,.F.);
#87=ORIENTED_EDGE('',*,*,#119,.F.);
#88=EDGE_CURVE('',#120,#121,#144,.T.);
#89=EDGE_CURVE('',#122,#120,#145,.T.);
#90=EDGE_CURVE('',#122,#123,#146,.T.);
#91=EDGE_CURVE('',#123,#121,#147,.T.);
#92=EDGE_CURVE('',#120,#124,#148,.T.);
#93=EDGE_CURVE('',#125,#124,#149,.T.);
#94=EDGE_CURVE('',#122,#125,#150,.T.);
#95=EDGE_CURVE('',#124,#126,#151,.T.);
#96=EDGE_CURVE('',#127,#126,#152,.T.);
#97=EDGE_CURVE('',#125,#127,#153,.T.);
#98=EDGE_CURVE('',#128,#129,#154,.T.);
#99=EDGE_CURVE('',#130,#129,#155,.T.);
#100=EDGE_CURVE('',#131,#130,#156,.T.);
#101=EDGE_CURVE('',#131,#128,#157,.T.);
#102=EDGE_CURVE('',#129,#132,#158,.T.);
#103=EDGE_CURVE('',#133,#132,#159,.T.);
#104=EDGE_CURVE('',#130,#133,#160,.T.);
#105=EDGE_CURVE('',#134,#132,#161,.T.);
#106=EDGE_CURVE('',#135,#134,#162,.T.);
#107=EDGE_CURVE('',#135,#133,#163,.T.);
#108=EDGE_CURVE('',#128,#134,#164,.T.);
#109=EDGE_CURVE('',#131,#135,#165,.T.);
#110=EDGE_CURVE('',#121,#126,#166,.T.);
#111=EDGE_CURVE('',#123,#127,#167,.T.);
#112=EDGE_CURVE('',#136,#136,#16,.T.);
#113=EDGE_CURVE('',#137,#137,#17,.T.);
#114=EDGE_CURVE('',#138,#138,#18,.T.);
#115=EDGE_CURVE('',#139,#139,#19,.T.);
#116=EDGE_CURVE('',#140,#140,#20,.T.);
#117=EDGE_CURVE('',#141,#141,#21,.T.);
#118=EDGE_CURVE('',#142,#142,#22,.T.);
#119=EDGE_CURVE('',#143,#143,#23,.T.);
#120=VERTEX_POINT('',#400);
#121=VERTEX_POINT('',#401);
#122=VERTEX_POINT('',#403);
#123=VERTEX_POINT('',#405);
#124=VERTEX_POINT('',#409);
#125=VERTEX_POINT('',#411);
#126=VERTEX_POINT('',#415);
#127=VERTEX_POINT('',#417);
#128=VERTEX_POINT('',#421);
#129=VERTEX_POINT('',#422);
#130=VERTEX_POINT('',#424);
#131=VERTEX_POINT('',#426);
#132=VERTEX_POINT('',#430);
#133=VERTEX_POINT('',#432);
#134=VERTEX_POINT('',#436);
#135=VERTEX_POINT('',#438);
#136=VERTEX_POINT('',#449);
#137=VERTEX_POINT('',#451);
#138=VERTEX_POINT('',#453);
#139=VERTEX_POINT('',#455);
#140=VERTEX_POINT('',#458);
#141=VERTEX_POINT('',#462);
#142=VERTEX_POINT('',#466);
#143=VERTEX_POINT('',#470);
#144=LINE('',#399,#168);
#145=LINE('',#402,#169);
#146=LINE('',#404,#170);
#147=LINE('',#406,#171);
#148=LINE('',#408,#172);
#149=LINE('',#410,#173);
#150=LINE('',#412,#174);
#151=LINE('',#414,#175);
#152=LINE('',#416,#176);
#153=LINE('',#418,#177);
#154=LINE('',#420,#178);
#155=LINE('',#423,#179);
#156=LINE('',#425,#180);
#157=LINE('',#427,#181);
#158=LINE('',#429,#182);
#159=LINE('',#431,#183);
#160=LINE('',#433,#184);
#161=LINE('',#435,#185);
#162=LINE('',#437,#186);
#163=LINE('',#439,#187);
#164=LINE('',#441,#188);
#165=LINE('',#442,#189);
#166=LINE('',#444,#190);
#167=LINE('',#445,#191);
#168=VECTOR('',#323,1.);
#169=VECTOR('',#324,1.);
#170=VECTOR('',#325,1.);
#171=VECTOR('',#326,1.);
#172=VECTOR('',#329,1.);
#173=VECTOR('',#330,1.);
#174=VECTOR('',#331,1.);
#175=VECTOR('',#334,1.);
#176=VECTOR('',#335,1.);
#177=VECTOR('',#336,1.);
#178=VECTOR('',#339,1.);
#179=VECTOR('',#340,1.);
#180=VECTOR('',#341,1.);
#181=VECTOR('',#342,1.);
#182=VECTOR('',#345,1.);
#183=VECTOR('',#346,1.);
#184=VECTOR('',#347,1.);
#185=VECTOR('',#350,1.);
#186=VECTOR('',#351,1.);
#187=VECTOR('',#352,1.);
#188=VECTOR('',#355,1.);
#189=VECTOR('',#356,1.);
#190=VECTOR('',#359,1.);
#191=VECTOR('',#360,1.);
#192=EDGE_LOOP('',(#24,#25,#26,#27));
#193=EDGE_LOOP('',(#28,#29,#30,#31));
#194=EDGE_LOOP('',(#32,#33,#34,#35));
#195=EDGE_LOOP('',(#36,#37,#38,#39));
#196=EDGE_LOOP('',(#40,#41,#42,#43));
#197=EDGE_LOOP('',(#44,#45,#46,#47));
#198=EDGE_LOOP('',(#48,#49,#50,#51));
#199=EDGE_LOOP('',(#52,#53,#54,#55));
#200=EDGE_LOOP('',(#56,#57,#58,#59));
#201=EDGE_LOOP('',(#60,#61,#62,#63));
#202=EDGE_LOOP('',(#64));
#203=EDGE_LOOP('',(#65));
#204=EDGE_LOOP('',(#66));
#205=EDGE_LOOP('',(#67));
#206=EDGE_LOOP('',(#68,#69,#70,#71));
#207=EDGE_LOOP('',(#72,#73,#74,#75));
#208=EDGE_LOOP('',(#76));
#209=EDGE_LOOP('',(#77));
#210=EDGE_LOOP('',(#78));
#211=EDGE_LOOP('',(#79));
#212=EDGE_LOOP('',(#80));
#213=EDGE_LOOP('',(#81));
#214=EDGE_LOOP('',(#82));
#215=EDGE_LOOP('',(#83));
#216=EDGE_LOOP('',(#84));
#217=EDGE_LOOP('',(#85));
#218=EDGE_LOOP('',(#86));
#219=EDGE_LOOP('',(#87));
#220=FACE_BOUND('',#192,.T.);
#221=FACE_BOUND('',#193,.T.);
#222=FACE_BOUND('',#194,.T.);
#223=FACE_BOUND('',#195,.T.);
#224=FACE_BOUND('',#196,.T.);
#225=FACE_BOUND('',#197,.T.);
#226=FACE_BOUND('',#198,.T.);
#227=FACE_BOUND('',#199,.T.);
#228=FACE_BOUND('',#200,.T.);
#229=FACE_BOUND('',#201,.T.);
#230=FACE_BOUND('',#202,.T.);
#231=FACE_BOUND('',#203,.T.);
#232=FACE_BOUND('',#204,.T.);
#233=FACE_BOUND('',#205,.T.);
#234=FACE_BOUND('',#206,.T.);
#235=FACE_BOUND('',#207,.T.);
#236=FACE_BOUND('',#208,.T.);
#237=FACE_BOUND('',#209,.T.);
#238=FACE_BOUND('',#210,.T.);
#239=FACE_BOUND('',#211,.T.);
#240=FACE_BOUND('',#212,.T.);
#241=FACE_BOUND('',#213,.T.);
#242=FACE_BOUND('',#214,.T.);
#243=FACE_BOUND('',#215,.T.);
#244=FACE_BOUND('',#216,.T.);
#245=FACE_BOUND('',#217,.T.);
#246=FACE_BOUND('',#218,.T.);
#247=FACE_BOUND('',#219,.T.);
#248=PLANE('',#293);
#249=PLANE('',#294);
#250=PLANE('',#295);
#251=PLANE('',#296);
#252=PLANE('',#297);
#253=PLANE('',#298);
#254=PLANE('',#299);
#255=PLANE('',#300);
#256=PLANE('',#301);
#257=PLANE('',#302);
#258=PLANE('',#309);
#259=PLANE('',#312);
#260=PLANE('',#315);
#261=PLANE('',#318);
#262=ADVANCED_FACE('',(#220),#248,.T.);
#263=ADVANCED_FACE('',(#221),#249,.F.);
#264=ADVANCED_FACE('',(#222),#250,.F.);
#265=ADVANCED_FACE('',(#223),#251,.F.);
#266=ADVANCED_FACE('',(#224),#252,.F.);
#267=ADVANCED_FACE('',(#225),#253,.T.);
#268=ADVANCED_FACE('',(#226),#254,.T.);
#269=ADVANCED_FACE('',(#227),#255,.T.);
#270=ADVANCED_FACE('',(#228,#229),#256,.T.);
#271=ADVANCED_FACE('',(#230,#231,#232,#233,#234,#235),#257,.F.);
#272=ADVANCED_FACE('',(#236,#237),#12,.F.);
#273=ADVANCED_FACE('',(#238),#258,.F.);
#274=ADVANCED_FACE('',(#239,#240),#13,.F.);
#275=ADVANCED_FACE('',(#241),#259,.F.);
#276=ADVANCED_FACE('',(#242,#243),#14,.F.);
#277=ADVANCED_FACE('',(#244),#260,.F.);
#278=ADVANCED_FACE('',(#245,#246),#15,.F.);
#279=ADVANCED_FACE('',(#247),#261,.F.);
#280=CLOSED_SHELL('',(#262,#263,#264,#265,#266,#267,#268,#269,#270,#271,
#272,#273,#274,#275,#276,#277,#278,#279));
#281=STYLED_ITEM('',(#282),#289);
#282=PRESENTATION_STYLE_ASSIGNMENT((#283));
#283=SURFACE_STYLE_USAGE(.BOTH.,#284);
#284=SURFACE_SIDE_STYLE('',(#285));
#285=SURFACE_STYLE_FILL_AREA(#286);
#286=FILL_AREA_STYLE('',(#287));
#287=FILL_AREA_STYLE_COLOUR('',#288);
#288=COLOUR_RGB('',0.615686274509804,0.811764705882353,0.929411764705882);
#289=MANIFOLD_SOLID_BREP('Part 1',#280);
#290=SHAPE_DEFINITION_REPRESENTATION(#478,#291);
#291=SHAPE_REPRESENTATION('Part 1',(#292),#473);
#292=AXIS2_PLACEMENT_3D('',#397,#319,#320);
#293=AXIS2_PLACEMENT_3D('',#398,#321,#322);
#294=AXIS2_PLACEMENT_3D('',#407,#327,#328);
#295=AXIS2_PLACEMENT_3D('',#413,#332,#333);
#296=AXIS2_PLACEMENT_3D('',#419,#337,#338);
#297=AXIS2_PLACEMENT_3D('',#428,#343,#344);
#298=AXIS2_PLACEMENT_3D('',#434,#348,#349);
#299=AXIS2_PLACEMENT_3D('',#440,#353,#354);
#300=AXIS2_PLACEMENT_3D('',#443,#357,#358);
#301=AXIS2_PLACEMENT_3D('',#446,#361,#362);
#302=AXIS2_PLACEMENT_3D('',#447,#363,#364);
#303=AXIS2_PLACEMENT_3D('',#448,#365,#366);
#304=AXIS2_PLACEMENT_3D('',#450,#367,#368);
#305=AXIS2_PLACEMENT_3D('',#452,#369,#370);
#306=AXIS2_PLACEMENT_3D('',#454,#371,#372);
#307=AXIS2_PLACEMENT_3D('',#456,#373,#374);
#308=AXIS2_PLACEMENT_3D('',#457,#375,#376);
#309=AXIS2_PLACEMENT_3D('',#459,#377,#378);
#310=AXIS2_PLACEMENT_3D('',#460,#379,#380);
#311=AXIS2_PLACEMENT_3D('',#461,#381,#382);
#312=AXIS2_PLACEMENT_3D('',#463,#383,#384);
#313=AXIS2_PLACEMENT_3D('',#464,#385,#386);
#314=AXIS2_PLACEMENT_3D('',#465,#387,#388);
#315=AXIS2_PLACEMENT_3D('',#467,#389,#390);
#316=AXIS2_PLACEMENT_3D('',#468,#391,#392);
#317=AXIS2_PLACEMENT_3D('',#469,#393,#394);
#318=AXIS2_PLACEMENT_3D('',#471,#395,#396);
#319=DIRECTION('',(0.,0.,1.));
#320=DIRECTION('',(1.,0.,0.));
#321=DIRECTION('',(1.,0.,0.));
#322=DIRECTION('',(0.,0.,-1.));
#323=DIRECTION('',(0.,-1.,0.));
#324=DIRECTION('',(0.,0.,-1.));
#325=DIRECTION('',(0.,-1.,0.));
#326=DIRECTION('',(0.,0.,-1.));
#327=DIRECTION('',(0.,1.,0.));
#328=DIRECTION('',(0.,0.,1.));
#329=DIRECTION('',(1.,0.,0.));
#330=DIRECTION('',(0.,0.,-1.));
#331=DIRECTION('',(1.,0.,0.));
#332=DIRECTION('',(1.,0.,0.));
#333=DIRECTION('',(0.,0.,-1.));
#334=DIRECTION('',(0.,-1.,0.));
#335=DIRECTION('',(0.,0.,-1.));
#336=DIRECTION('',(0.,-1.,0.));
#337=DIRECTION('',(0.,-1.,0.));
#338=DIRECTION('',(0.,0.,-1.));
#339=DIRECTION('',(-1.,0.,0.));
#340=DIRECTION('',(0.,0.,-1.));
#341=DIRECTION('',(-1.,0.,0.));
#342=DIRECTION('',(0.,0.,-1.));
#343=DIRECTION('',(1.,0.,0.));
#344=DIRECTION('',(0.,0.,-1.));
#345=DIRECTION('',(0.,-1.,0.));
#346=DIRECTION('',(0.,0.,-1.));
#347=DIRECTION('',(0.,-1.,0.));
#348=DIRECTION('',(0.,-1.,0.));
#349=DIRECTION('',(0.,0.,-1.));
#350=DIRECTION('',(-1.,0.,0.));
#351=DIRECTION('',(0.,0.,-1.));
#352=DIRECTION('',(-1.,0.,0.));
#353=DIRECTION('',(1.,0.,0.));
#354=DIRECTION('',(0.,0.,-1.));
#355=DIRECTION('',(0.,-1.,0.));
#356=DIRECTION('',(0.,-1.,0.));
#357=DIRECTION('',(0.,1.,0.));
#358=DIRECTION('',(0.,0.,1.));
#359=DIRECTION('',(1.,0.,0.));
#360=DIRECTION('',(1.,0.,0.));
#361=DIRECTION('',(0.,0.,1.));
#362=DIRECTION('',(1.,0.,0.));
#363=DIRECTION('',(0.,0.,1.));
#364=DIRECTION('',(1.,0.,0.));
#365=DIRECTION('',(0.,0.,1.));
#366=DIRECTION('',(1.,0.,0.));
#367=DIRECTION('',(0.,0.,1.));
#368=DIRECTION('',(0.,-1.,0.));
#369=DIRECTION('',(0.,0.,1.));
#370=DIRECTION('',(0.,-1.,0.));
#371=DIRECTION('',(0.,0.,1.));
#372=DIRECTION('',(0.,1.,0.));
#373=DIRECTION('',(0.,0.,-1.));
#374=DIRECTION('',(-1.,0.,0.));
#375=DIRECTION('',(0.,0.,1.));
#376=DIRECTION('',(0.,1.,0.));
#377=DIRECTION('',(0.,0.,1.));
#378=DIRECTION('',(1.,0.,0.));
#379=DIRECTION('',(0.,0.,-1.));
#380=DIRECTION('',(-1.,0.,0.));
#381=DIRECTION('',(0.,0.,1.));
#382=DIRECTION('',(0.,-1.,0.));
#383=DIRECTION('',(0.,0.,1.));
#384=DIRECTION('',(1.,0.,0.));
#385=DIRECTION('',(0.,0.,-1.));
#386=DIRECTION('',(-1.,0.,0.));
#387=DIRECTION('',(0.,0.,1.));
#388=DIRECTION('',(0.,-1.,0.));
#389=DIRECTION('',(0.,0.,1.));
#390=DIRECTION('',(1.,0.,0.));
#391=DIRECTION('',(0.,0.,-1.));
#392=DIRECTION('',(-1.,0.,0.));
#393=DIRECTION('',(0.,0.,1.));
#394=DIRECTION('',(1.,0.,0.));
#395=DIRECTION('',(0.,0.,1.));
#396=DIRECTION('',(1.,0.,0.));
#397=CARTESIAN_POINT('',(0.,0.,0.));
#398=CARTESIAN_POINT('',(-0.09250732,1.7347234759768E-17,0.006));
#399=CARTESIAN_POINT('',(-0.09250732,1.7347234759768E-17,0.));
#400=CARTESIAN_POINT('',(-0.09250732,0.0295,0.));
#401=CARTESIAN_POINT('',(-0.09250732,-0.0295,0.));
#402=CARTESIAN_POINT('',(-0.09250732,0.0295,0.006));
#403=CARTESIAN_POINT('',(-0.09250732,0.0295,0.006));
#404=CARTESIAN_POINT('',(-0.09250732,1.7347234759768E-17,0.006));
#405=CARTESIAN_POINT('',(-0.09250732,-0.0295,0.006));
#406=CARTESIAN_POINT('',(-0.09250732,-0.0295,0.006));
#407=CARTESIAN_POINT('',(0.,0.0295,0.006));
#408=CARTESIAN_POINT('',(0.,0.0295,0.));
#409=CARTESIAN_POINT('',(0.09250732,0.0295,0.));
#410=CARTESIAN_POINT('',(0.09250732,0.0295,0.006));
#411=CARTESIAN_POINT('',(0.09250732,0.0295,0.006));
#412=CARTESIAN_POINT('',(0.,0.0295,0.006));
#413=CARTESIAN_POINT('',(0.09250732,2.42861286636753E-17,0.006));
#414=CARTESIAN_POINT('',(0.09250732,2.42861286636753E-17,0.));
#415=CARTESIAN_POINT('',(0.09250732,-0.0295,0.));
#416=CARTESIAN_POINT('',(0.09250732,-0.0295,0.006));
#417=CARTESIAN_POINT('',(0.09250732,-0.0295,0.006));
#418=CARTESIAN_POINT('',(0.09250732,2.42861286636753E-17,0.006));
#419=CARTESIAN_POINT('',(0.0025,0.0395,0.006));
#420=CARTESIAN_POINT('',(0.0025,0.0395,0.));
#421=CARTESIAN_POINT('',(0.10250732,0.0395,0.));
#422=CARTESIAN_POINT('',(-0.10250732,0.0395,0.));
#423=CARTESIAN_POINT('',(-0.10250732,0.0395,0.006));
#424=CARTESIAN_POINT('',(-0.10250732,0.0395,0.006));
#425=CARTESIAN_POINT('',(0.0025,0.0395,0.006));
#426=CARTESIAN_POINT('',(0.10250732,0.0395,0.006));
#427=CARTESIAN_POINT('',(0.10250732,0.0395,0.006));
#428=CARTESIAN_POINT('',(-0.10250732,-6.93889390390723E-18,0.006));
#429=CARTESIAN_POINT('',(-0.10250732,-6.93889390390723E-18,0.));
#430=CARTESIAN_POINT('',(-0.10250732,-0.0395,0.));
#431=CARTESIAN_POINT('',(-0.10250732,-0.0395,0.006));
#432=CARTESIAN_POINT('',(-0.10250732,-0.0395,0.006));
#433=CARTESIAN_POINT('',(-0.10250732,-6.93889390390723E-18,0.006));
#434=CARTESIAN_POINT('',(0.,-0.0395,0.006));
#435=CARTESIAN_POINT('',(0.,-0.0395,0.));
#436=CARTESIAN_POINT('',(0.10250732,-0.0395,0.));
#437=CARTESIAN_POINT('',(0.10250732,-0.0395,0.006));
#438=CARTESIAN_POINT('',(0.10250732,-0.0395,0.006));
#439=CARTESIAN_POINT('',(0.,-0.0395,0.006));
#440=CARTESIAN_POINT('',(0.10250732,0.,0.006));
#441=CARTESIAN_POINT('',(0.10250732,0.,0.));
#442=CARTESIAN_POINT('',(0.10250732,0.,0.006));
#443=CARTESIAN_POINT('',(-1.38777878078145E-17,-0.0295,0.006));
#444=CARTESIAN_POINT('',(-1.38777878078145E-17,-0.0295,0.));
#445=CARTESIAN_POINT('',(-1.38777878078145E-17,-0.0295,0.006));
#446=CARTESIAN_POINT('',(-1.38777878078145E-17,0.,0.006));
#447=CARTESIAN_POINT('',(-1.38777878078145E-17,0.,0.));
#448=CARTESIAN_POINT('',(0.09750732,0.0345,0.));
#449=CARTESIAN_POINT('',(0.09910732,0.0345,0.));
#450=CARTESIAN_POINT('',(0.09750732,-0.0345,0.));
#451=CARTESIAN_POINT('',(0.09750732,-0.0361,0.));
#452=CARTESIAN_POINT('',(-0.09750732,-0.0345,0.));
#453=CARTESIAN_POINT('',(-0.09750732,-0.0361,0.));
#454=CARTESIAN_POINT('',(-0.09750732,0.0345,0.));
#455=CARTESIAN_POINT('',(-0.09750732,0.0361,0.));
#456=CARTESIAN_POINT('',(-0.09750732,0.0345,0.004));
#457=CARTESIAN_POINT('',(-0.09750732,0.0345,0.004));
#458=CARTESIAN_POINT('',(-0.09750732,0.0361,0.004));
#459=CARTESIAN_POINT('',(-1.38777878078145E-17,0.,0.004));
#460=CARTESIAN_POINT('',(-0.09750732,-0.0345,0.004));
#461=CARTESIAN_POINT('',(-0.09750732,-0.0345,0.004));
#462=CARTESIAN_POINT('',(-0.09750732,-0.0361,0.004));
#463=CARTESIAN_POINT('',(-1.38777878078145E-17,0.,0.004));
#464=CARTESIAN_POINT('',(0.09750732,-0.0345,0.004));
#465=CARTESIAN_POINT('',(0.09750732,-0.0345,0.004));
#466=CARTESIAN_POINT('',(0.09750732,-0.0361,0.004));
#467=CARTESIAN_POINT('',(-1.38777878078145E-17,0.,0.004));
#468=CARTESIAN_POINT('',(0.09750732,0.0345,0.004));
#469=CARTESIAN_POINT('',(0.09750732,0.0345,0.004));
#470=CARTESIAN_POINT('',(0.09910732,0.0345,0.004));
#471=CARTESIAN_POINT('',(-1.38777878078145E-17,0.,0.004));
#472=MECHANICAL_DESIGN_GEOMETRIC_PRESENTATION_REPRESENTATION('',(#281),
#473);
#473=(
GEOMETRIC_REPRESENTATION_CONTEXT(3)
GLOBAL_UNCERTAINTY_ASSIGNED_CONTEXT((#474))
GLOBAL_UNIT_ASSIGNED_CONTEXT((#477,#476,#475))
REPRESENTATION_CONTEXT('Part 1','TOP_LEVEL_ASSEMBLY_PART')
);
#474=UNCERTAINTY_MEASURE_WITH_UNIT(LENGTH_MEASURE(1.E-8),#477,
'DISTANCE_ACCURACY_VALUE','Maximum Tolerance applied to model');
#475=(
NAMED_UNIT(*)
SI_UNIT($,.STERADIAN.)
SOLID_ANGLE_UNIT()
);
#476=(
NAMED_UNIT(*)
PLANE_ANGLE_UNIT()
SI_UNIT($,.RADIAN.)
);
#477=(
LENGTH_UNIT()
NAMED_UNIT(*)
SI_UNIT($,.METRE.)
);
#478=PRODUCT_DEFINITION_SHAPE('','',#479);
#479=PRODUCT_DEFINITION('','',#481,#480);
#480=PRODUCT_DEFINITION_CONTEXT('',#487,'design');
#481=PRODUCT_DEFINITION_FORMATION_WITH_SPECIFIED_SOURCE('','',#483,
 .NOT_KNOWN.);
#482=PRODUCT_RELATED_PRODUCT_CATEGORY('','',(#483));
#483=PRODUCT('Part 1','Part 1','Part 1',(#485));
#484=PRODUCT_CATEGORY('','');
#485=PRODUCT_CONTEXT('',#487,'mechanical');
#486=APPLICATION_PROTOCOL_DEFINITION('international standard',
'ap242_managed_model_based_3d_engineering',2020,#487);
#487=APPLICATION_CONTEXT('managed model based 3d engineering');
ENDSEC;
END-ISO-10303-21;
